<ttFont>
    <TTGlyph name=".notAccess" xMin="11" yMin="0" xMax="542" yMax="533">
      <contour>
        <pt x="274" y="450" on="1"/>
        <pt x="174" y="205" on="1"/>
        <pt x="375" y="205" on="1"/>
      </contour>
      <contour>
        <pt x="464" y="0" on="1"/>
        <pt x="406" y="142" on="1"/>
        <pt x="145" y="142" on="1"/>
        <pt x="87" y="0" on="1"/>
        <pt x="11" y="0" on="1"/>
        <pt x="234" y="533" on="1"/>
        <pt x="316" y="533" on="1"/>
        <pt x="542" y="0" on="1"/>
      </contour>
    </TTGlyph>
    <TTGlyph name=".notdef" xMin="100" yMin="0" xMax="1300" yMax="1800">
      <contour>
        <pt x="150" y="50" on="1"/>
        <pt x="1250" y="50" on="1"/>
        <pt x="1250" y="1750" on="1"/>
        <pt x="150" y="1750" on="1"/>
      </contour>
      <contour>
        <pt x="100" y="1800" on="1"/>
        <pt x="1300" y="1800" on="1"/>
        <pt x="1300" y="0" on="1"/>
        <pt x="100" y="0" on="1"/>
      </contour>
    </TTGlyph>
    <TTGlyph name="A" xMin="0" yMin="0" xMax="1266" yMax="1317">
      <contour>
        <pt x="747" y="550" on="1"/>
        <pt x="582" y="1015" on="1"/>
        <pt x="432" y="550" on="1"/>
      </contour>
      <contour>
        <pt x="392" y="430" on="1"/>
        <pt x="296" y="141" on="1"/>
        <pt x="286" y="110" on="0"/>
        <pt x="355" y="82" on="0"/>
        <pt x="437" y="73" on="1"/>
        <pt x="437" y="0" on="1"/>
        <pt x="0" y="0" on="1"/>
        <pt x="0" y="73" on="1"/>
        <pt x="68" y="85" on="0"/>
        <pt x="141" y="111" on="0"/>
        <pt x="151" y="141" on="1"/>
        <pt x="500" y="1207" on="1"/>
        <pt x="524" y="1227" on="0"/>
        <pt x="579" y="1261" on="0"/>
        <pt x="638" y="1288" on="0"/>
        <pt x="696" y="1309" on="0"/>
        <pt x="722" y="1317" on="1"/>
        <pt x="1142" y="141" on="1"/>
        <pt x="1147" y="127" on="0"/>
        <pt x="1163" y="105" on="0"/>
        <pt x="1191" y="89" on="0"/>
        <pt x="1234" y="77" on="0"/>
        <pt x="1266" y="73" on="1"/>
        <pt x="1266" y="0" on="1"/>
        <pt x="769" y="0" on="1"/>
        <pt x="769" y="73" on="1"/>
        <pt x="847" y="78" on="0"/>
        <pt x="902" y="108" on="0"/>
        <pt x="891" y="141" on="1"/>
        <pt x="789" y="430" on="1"/>
      </contour>
    </TTGlyph>
    <TTGlyph name="AE" xMin="0" yMin="0" xMax="1609" yMax="1260">
      <contour>
        <pt x="759" y="1118" on="1"/>
        <pt x="759" y="1129" on="0"/>
        <pt x="745" y="1139" on="0"/>
        <pt x="725" y="1136" on="0"/>
        <pt x="703" y="1118" on="0"/>
        <pt x="696" y="1101" on="1"/>
        <pt x="547" y="735" on="1"/>
        <pt x="759" y="735" on="1"/>
      </contour>
      <contour>
        <pt x="1609" y="304" on="1"/>
        <pt x="1604" y="261" on="0"/>
        <pt x="1593" y="166" on="0"/>
        <pt x="1582" y="81" on="0"/>
        <pt x="1572" y="15" on="0"/>
        <pt x="1568" y="0" on="1"/>
        <pt x="624" y="0" on="1"/>
        <pt x="624" y="73" on="1"/>
        <pt x="692" y="87" on="0"/>
        <pt x="759" y="120" on="0"/>
        <pt x="759" y="134" on="1"/>
        <pt x="759" y="624" on="1"/>
        <pt x="504" y="624" on="1"/>
        <pt x="308" y="141" on="1"/>
        <pt x="295" y="112" on="0"/>
        <pt x="342" y="82" on="0"/>
        <pt x="416" y="73" on="1"/>
        <pt x="416" y="0" on="1"/>
        <pt x="0" y="0" on="1"/>
        <pt x="0" y="73" on="1"/>
        <pt x="62" y="82" on="0"/>
        <pt x="132" y="112" on="0"/>
        <pt x="145" y="141" on="1"/>
        <pt x="534" y="1103" on="1"/>
        <pt x="541" y="1120" on="0"/>
        <pt x="532" y="1143" on="0"/>
        <pt x="496" y="1162" on="0"/>
        <pt x="430" y="1178" on="0"/>
        <pt x="381" y="1187" on="1"/>
        <pt x="381" y="1260" on="1"/>
        <pt x="1506" y="1260" on="1"/>
        <pt x="1543" y="1228" on="1"/>
        <pt x="1541" y="1202" on="0"/>
        <pt x="1534" y="1124" on="0"/>
        <pt x="1523" y="1042" on="0"/>
        <pt x="1509" y="969" on="0"/>
        <pt x="1502" y="950" on="1"/>
        <pt x="1427" y="950" on="1"/>
        <pt x="1422" y="1043" on="0"/>
        <pt x="1384" y="1140" on="0"/>
        <pt x="1345" y="1140" on="1"/>
        <pt x="1009" y="1140" on="1"/>
        <pt x="1009" y="735" on="1"/>
        <pt x="1407" y="735" on="1"/>
        <pt x="1441" y="700" on="1"/>
        <pt x="1432" y="686" on="0"/>
        <pt x="1409" y="648" on="0"/>
        <pt x="1383" y="610" on="0"/>
        <pt x="1359" y="578" on="0"/>
        <pt x="1349" y="569" on="1"/>
        <pt x="1334" y="584" on="0"/>
        <pt x="1294" y="604" on="0"/>
        <pt x="1256" y="618" on="0"/>
        <pt x="1228" y="624" on="0"/>
        <pt x="1225" y="624" on="1"/>
        <pt x="1009" y="624" on="1"/>
        <pt x="1009" y="184" on="1"/>
        <pt x="1009" y="169" on="0"/>
        <pt x="1024" y="146" on="0"/>
        <pt x="1069" y="129" on="0"/>
        <pt x="1150" y="120" on="0"/>
        <pt x="1216" y="120" on="1"/>
        <pt x="1311" y="120" on="1"/>
        <pt x="1357" y="120" on="0"/>
        <pt x="1423" y="142" on="0"/>
        <pt x="1474" y="191" on="0"/>
        <pt x="1515" y="271" on="0"/>
        <pt x="1536" y="330" on="1"/>
      </contour>
    </TTGlyph>
    <TTGlyph name="AEacute" xMin="0" yMin="0" xMax="1609" yMax="1767">
      <component glyphName="AE" x="0" y="0" flags="0x0"/>
      <component glyphName="acutecomb.LP" x="1511" y="320" flags="0x0"/>
    </TTGlyph>
    <TTGlyph name="Aacute" xMin="0" yMin="0" xMax="1266" yMax="1767">
      <component glyphName="A" x="0" y="0" flags="0x0"/>
      <component glyphName="acutecomb.LP" x="1176" y="320" flags="0x0"/>
    </TTGlyph>
    <TTGlyph name="Abreve" xMin="0" yMin="0" xMax="1266" yMax="1755">
      <component glyphName="A" x="0" y="0" flags="0x0"/>
      <component glyphName="uni0306" x="1148" y="320" flags="0x0"/>
    </TTGlyph>
    <TTGlyph name="Acircumflex" xMin="0" yMin="0" xMax="1266" yMax="1744">
      <component glyphName="A" x="0" y="0" flags="0x0"/>
      <component glyphName="uni0302.LP" x="1147" y="320" flags="0x0"/>
    </TTGlyph>
    <TTGlyph name="Adieresis" xMin="0" yMin="0" xMax="1266" yMax="1669">
      <component glyphName="A" x="0" y="0" flags="0x0"/>
      <component glyphName="uni0308.LP" x="1148" y="320" flags="0x0"/>
    </TTGlyph>
    <TTGlyph name="Agrave" xMin="0" yMin="0" xMax="1266" yMax="1767">
      <component glyphName="A" x="0" y="0" flags="0x0"/>
      <component glyphName="gravecomb.LP" x="1066" y="320" flags="0x0"/>
    </TTGlyph>
    <TTGlyph name="Amacron" xMin="0" yMin="0" xMax="1266" yMax="1618">
      <component glyphName="A" x="0" y="0" flags="0x0"/>
      <component glyphName="uni0304.LP" x="1158" y="320" flags="0x0"/>
    </TTGlyph>
    <TTGlyph name="Aring" xMin="0" yMin="0" xMax="1266" yMax="1783">
      <component glyphName="A" x="0" y="0" flags="0x0"/>
      <component glyphName="uni030A" x="1148" y="320" flags="0x0"/>
    </TTGlyph>
    <TTGlyph name="Aringacute" xMin="0" yMin="0" xMax="1266" yMax="2207">
      <component glyphName="A" x="0" y="0" flags="0x0"/>
      <component glyphName="uni030A" x="1148" y="320" flags="0x0"/>
      <component glyphName="acutecomb.LP" x="1176" y="760" flags="0x0"/>
    </TTGlyph>
    <TTGlyph name="Atilde" xMin="0" yMin="0" xMax="1266" yMax="1687">
      <component glyphName="A" x="0" y="0" flags="0x0"/>
      <component glyphName="tildecomb.LP" x="1171" y="320" flags="0x0"/>
    </TTGlyph>
    <TTGlyph name="B" xMin="30" yMin="-14" xMax="1129" yMax="1290">
      <contour>
        <pt x="1129" y="356" on="1"/>
        <pt x="1129" y="271" on="0"/>
        <pt x="1058" y="134" on="0"/>
        <pt x="924" y="38" on="0"/>
        <pt x="733" y="-14" on="0"/>
        <pt x="612" y="-14" on="1"/>
        <pt x="590" y="-14" on="0"/>
        <pt x="525" y="-13" on="0"/>
        <pt x="448" y="-11" on="0"/>
        <pt x="364" y="-9" on="0"/>
        <pt x="324" y="-7" on="1"/>
        <pt x="229" y="-4" on="0"/>
        <pt x="123" y="0" on="1"/>
        <pt x="43" y="0" on="1"/>
        <pt x="43" y="73" on="1"/>
        <pt x="111" y="87" on="0"/>
        <pt x="180" y="120" on="0"/>
        <pt x="180" y="134" on="1"/>
        <pt x="180" y="1165" on="1"/>
        <pt x="142" y="1161" on="0"/>
        <pt x="72" y="1151" on="0"/>
        <pt x="43" y="1146" on="1"/>
        <pt x="30" y="1230" on="1"/>
        <pt x="75" y="1241" on="0"/>
        <pt x="197" y="1262" on="0"/>
        <pt x="332" y="1279" on="0"/>
        <pt x="469" y="1290" on="0"/>
        <pt x="529" y="1290" on="1"/>
        <pt x="644" y="1290" on="0"/>
        <pt x="825" y="1253" on="0"/>
        <pt x="951" y="1183" on="0"/>
        <pt x="1018" y="1083" on="0"/>
        <pt x="1018" y="1020" on="1"/>
        <pt x="1018" y="912" on="0"/>
        <pt x="902" y="758" on="0"/>
        <pt x="790" y="723" on="1"/>
        <pt x="865" y="711" on="0"/>
        <pt x="990" y="645" on="0"/>
        <pt x="1079" y="548" on="0"/>
        <pt x="1129" y="425" on="0"/>
      </contour>
      <contour>
        <pt x="565" y="639" on="1"/>
        <pt x="519" y="639" on="0"/>
        <pt x="459" y="631" on="0"/>
        <pt x="430" y="626" on="1"/>
        <pt x="430" y="127" on="1"/>
        <pt x="430" y="120" on="0"/>
        <pt x="435" y="114" on="1"/>
        <pt x="464" y="102" on="0"/>
        <pt x="535" y="93" on="0"/>
        <pt x="575" y="93" on="1"/>
        <pt x="720" y="93" on="0"/>
        <pt x="867" y="224" on="0"/>
        <pt x="867" y="337" on="1"/>
        <pt x="867" y="392" on="0"/>
        <pt x="838" y="500" on="0"/>
        <pt x="768" y="586" on="0"/>
        <pt x="652" y="639" on="0"/>
      </contour>
      <contour>
        <pt x="466" y="1184" on="1"/>
        <pt x="449" y="1184" on="1"/>
        <pt x="440" y="1184" on="0"/>
        <pt x="430" y="1183" on="1"/>
        <pt x="430" y="740" on="1"/>
        <pt x="449" y="740" on="1"/>
        <pt x="549" y="740" on="0"/>
        <pt x="672" y="780" on="0"/>
        <pt x="741" y="845" on="0"/>
        <pt x="765" y="928" on="0"/>
        <pt x="765" y="971" on="1"/>
        <pt x="765" y="1021" on="0"/>
        <pt x="736" y="1100" on="0"/>
        <pt x="666" y="1155" on="0"/>
        <pt x="551" y="1184" on="0"/>
      </contour>
    </TTGlyph>
    <TTGlyph name="C" xMin="55" yMin="-30" xMax="1071" yMax="1291">
      <contour>
        <pt x="1071" y="211" on="1"/>
        <pt x="1007" y="146" on="0"/>
        <pt x="883" y="54" on="0"/>
        <pt x="761" y="-4" on="0"/>
        <pt x="643" y="-30" on="0"/>
        <pt x="586" y="-30" on="1"/>
        <pt x="485" y="-30" on="0"/>
        <pt x="294" y="54" on="0"/>
        <pt x="145" y="212" on="0"/>
        <pt x="55" y="441" on="0"/>
        <pt x="55" y="586" on="1"/>
        <pt x="55" y="746" on="0"/>
        <pt x="153" y="1006" on="0"/>
        <pt x="325" y="1191" on="0"/>
        <pt x="557" y="1291" on="0"/>
        <pt x="691" y="1290" on="1"/>
        <pt x="745" y="1290" on="0"/>
        <pt x="851" y="1274" on="0"/>
        <pt x="947" y="1247" on="0"/>
        <pt x="1026" y="1211" on="0"/>
        <pt x="1052" y="1190" on="1"/>
        <pt x="1056" y="1187" on="0"/>
        <pt x="1047" y="1157" on="0"/>
        <pt x="1029" y="1115" on="0"/>
        <pt x="1004" y="1066" on="0"/>
        <pt x="978" y="1021" on="0"/>
        <pt x="955" y="985" on="0"/>
        <pt x="947" y="977" on="1"/>
        <pt x="882" y="991" on="1"/>
        <pt x="831" y="1079" on="0"/>
        <pt x="700" y="1158" on="0"/>
        <pt x="622" y="1158" on="1"/>
        <pt x="588" y="1158" on="0"/>
        <pt x="515" y="1136" on="0"/>
        <pt x="445" y="1086" on="0"/>
        <pt x="382" y="1005" on="0"/>
        <pt x="335" y="887" on="0"/>
        <pt x="308" y="727" on="0"/>
        <pt x="308" y="623" on="1"/>
        <pt x="308" y="495" on="0"/>
        <pt x="375" y="311" on="0"/>
        <pt x="482" y="192" on="0"/>
        <pt x="615" y="135" on="0"/>
        <pt x="681" y="135" on="1"/>
        <pt x="708" y="135" on="0"/>
        <pt x="781" y="147" on="0"/>
        <pt x="868" y="180" on="0"/>
        <pt x="966" y="235" on="0"/>
        <pt x="1019" y="279" on="1"/>
        <pt x="1024" y="275" on="0"/>
        <pt x="1040" y="255" on="0"/>
        <pt x="1055" y="233" on="0"/>
        <pt x="1068" y="214" on="0"/>
      </contour>
    </TTGlyph>
    <TTGlyph name="Cacute" xMin="55" yMin="-30" xMax="1071" yMax="1767">
      <component glyphName="C" x="0" y="0" flags="0x0"/>
      <component glyphName="acutecomb.LP" x="1180" y="320" flags="0x0"/>
    </TTGlyph>
    <TTGlyph name="Ccaron" xMin="55" yMin="-30" xMax="1071" yMax="1775">
      <component glyphName="C" x="0" y="0" flags="0x0"/>
      <component glyphName="uni030C.LP" x="1151" y="320" flags="0x0"/>
    </TTGlyph>
    <TTGlyph name="Ccedilla" xMin="55" yMin="-444" xMax="1071" yMax="1291">
      <contour>
        <pt x="804" y="-229" on="1"/>
        <pt x="804" y="-266" on="0"/>
        <pt x="750" y="-336" on="0"/>
        <pt x="654" y="-394" on="0"/>
        <pt x="521" y="-436" on="0"/>
        <pt x="443" y="-444" on="1"/>
        <pt x="406" y="-373" on="1"/>
        <pt x="493" y="-360" on="0"/>
        <pt x="568" y="-301" on="0"/>
        <pt x="568" y="-269" on="1"/>
        <pt x="568" y="-235" on="0"/>
        <pt x="522" y="-206" on="0"/>
        <pt x="478" y="-202" on="1"/>
        <pt x="481" y="-198" on="1"/>
        <pt x="484" y="-194" on="0"/>
        <pt x="501" y="-152" on="0"/>
        <pt x="516" y="-108" on="1"/>
        <pt x="527" y="-77" on="0"/>
        <pt x="543" y="-28" on="1"/>
        <pt x="465" y="-21" on="0"/>
        <pt x="389" y="12" on="1"/>
        <pt x="294" y="54" on="0"/>
        <pt x="145" y="212" on="0"/>
        <pt x="55" y="441" on="0"/>
        <pt x="55" y="586" on="1"/>
        <pt x="55" y="746" on="0"/>
        <pt x="153" y="1006" on="0"/>
        <pt x="325" y="1191" on="0"/>
        <pt x="557" y="1291" on="0"/>
        <pt x="691" y="1290" on="1"/>
        <pt x="745" y="1290" on="0"/>
        <pt x="851" y="1274" on="0"/>
        <pt x="947" y="1247" on="0"/>
        <pt x="1026" y="1211" on="0"/>
        <pt x="1052" y="1190" on="1"/>
        <pt x="1056" y="1187" on="0"/>
        <pt x="1047" y="1157" on="0"/>
        <pt x="1029" y="1115" on="0"/>
        <pt x="1004" y="1066" on="0"/>
        <pt x="978" y="1021" on="0"/>
        <pt x="955" y="985" on="0"/>
        <pt x="947" y="977" on="1"/>
        <pt x="882" y="991" on="1"/>
        <pt x="831" y="1079" on="0"/>
        <pt x="700" y="1158" on="0"/>
        <pt x="622" y="1158" on="1"/>
        <pt x="588" y="1158" on="0"/>
        <pt x="515" y="1136" on="0"/>
        <pt x="445" y="1086" on="0"/>
        <pt x="382" y="1005" on="0"/>
        <pt x="335" y="887" on="0"/>
        <pt x="308" y="727" on="0"/>
        <pt x="308" y="623" on="1"/>
        <pt x="308" y="495" on="0"/>
        <pt x="375" y="311" on="0"/>
        <pt x="482" y="192" on="0"/>
        <pt x="615" y="135" on="0"/>
        <pt x="681" y="135" on="1"/>
        <pt x="708" y="135" on="0"/>
        <pt x="781" y="147" on="0"/>
        <pt x="868" y="180" on="0"/>
        <pt x="966" y="235" on="0"/>
        <pt x="1019" y="279" on="1"/>
        <pt x="1024" y="275" on="0"/>
        <pt x="1040" y="255" on="0"/>
        <pt x="1055" y="233" on="0"/>
        <pt x="1068" y="214" on="0"/>
        <pt x="1071" y="211" on="1"/>
        <pt x="1007" y="146" on="0"/>
        <pt x="883" y="54" on="0"/>
        <pt x="761" y="-4" on="0"/>
        <pt x="702" y="-17" on="1"/>
        <pt x="684" y="-21" on="0"/>
        <pt x="666" y="-23" on="1"/>
        <pt x="641" y="-89" on="1"/>
        <pt x="719" y="-103" on="0"/>
        <pt x="804" y="-172" on="0"/>
      </contour>
    </TTGlyph>
    <TTGlyph name="Ccircumflex" xMin="55" yMin="-30" xMax="1071" yMax="1744">
      <component glyphName="C" x="0" y="0" flags="0x0"/>
      <component glyphName="uni0302.LP" x="1151" y="320" flags="0x0"/>
    </TTGlyph>
    <TTGlyph name="Cdotaccent" xMin="55" yMin="-30" xMax="1071" yMax="1669">
      <component glyphName="C" x="0" y="0" flags="0x0"/>
      <component glyphName="uni0307.LP" x="1152" y="320" flags="0x0"/>
    </TTGlyph>
    <TTGlyph name="D" xMin="30" yMin="0" xMax="1221" yMax="1290">
      <contour>
        <pt x="1221" y="676" on="1"/>
        <pt x="1221" y="551" on="0"/>
        <pt x="1170" y="354" on="0"/>
        <pt x="1082" y="203" on="0"/>
        <pt x="964" y="98" on="0"/>
        <pt x="830" y="31" on="0"/>
        <pt x="687" y="0" on="0"/>
        <pt x="619" y="0" on="1"/>
        <pt x="43" y="0" on="1"/>
        <pt x="43" y="73" on="1"/>
        <pt x="111" y="87" on="0"/>
        <pt x="180" y="120" on="0"/>
        <pt x="180" y="134" on="1"/>
        <pt x="180" y="1157" on="1"/>
        <pt x="43" y="1138" on="1"/>
        <pt x="30" y="1230" on="1"/>
        <pt x="79" y="1242" on="0"/>
        <pt x="214" y="1264" on="0"/>
        <pt x="363" y="1281" on="0"/>
        <pt x="513" y="1290" on="0"/>
        <pt x="578" y="1290" on="1"/>
        <pt x="731" y="1290" on="0"/>
        <pt x="971" y="1207" on="0"/>
        <pt x="1135" y="1049" on="0"/>
        <pt x="1221" y="821" on="0"/>
      </contour>
      <contour>
        <pt x="506" y="1184" on="1"/>
        <pt x="488" y="1184" on="0"/>
        <pt x="450" y="1183" on="0"/>
        <pt x="430" y="1182" on="1"/>
        <pt x="430" y="167" on="1"/>
        <pt x="430" y="160" on="0"/>
        <pt x="432" y="153" on="1"/>
        <pt x="435" y="142" on="0"/>
        <pt x="451" y="125" on="0"/>
        <pt x="485" y="113" on="0"/>
        <pt x="540" y="107" on="0"/>
        <pt x="582" y="107" on="1"/>
        <pt x="620" y="107" on="0"/>
        <pt x="705" y="133" on="0"/>
        <pt x="788" y="189" on="0"/>
        <pt x="863" y="274" on="0"/>
        <pt x="919" y="392" on="0"/>
        <pt x="953" y="543" on="0"/>
        <pt x="953" y="637" on="1"/>
        <pt x="953" y="770" on="0"/>
        <pt x="895" y="974" on="0"/>
        <pt x="782" y="1113" on="0"/>
        <pt x="615" y="1184" on="0"/>
      </contour>
    </TTGlyph>
    <TTGlyph name="Dcaron" xMin="30" yMin="0" xMax="1221" yMax="1775">
      <component glyphName="D" x="0" y="0" flags="0x0"/>
      <component glyphName="uni030C.LP" x="1104" y="320" flags="0x0"/>
    </TTGlyph>
    <TTGlyph name="Dcroat" xMin="28" yMin="0" xMax="1221" yMax="1290">
      <contour>
        <pt x="1221" y="676" on="1"/>
        <pt x="1221" y="551" on="0"/>
        <pt x="1170" y="354" on="0"/>
        <pt x="1082" y="203" on="0"/>
        <pt x="964" y="98" on="0"/>
        <pt x="830" y="31" on="0"/>
        <pt x="687" y="0" on="0"/>
        <pt x="619" y="0" on="1"/>
        <pt x="43" y="0" on="1"/>
        <pt x="43" y="73" on="1"/>
        <pt x="111" y="87" on="0"/>
        <pt x="180" y="120" on="0"/>
        <pt x="180" y="134" on="1"/>
        <pt x="180" y="615" on="1"/>
        <pt x="50" y="615" on="1"/>
        <pt x="28" y="639" on="1"/>
        <pt x="30" y="646" on="0"/>
        <pt x="39" y="672" on="0"/>
        <pt x="49" y="701" on="0"/>
        <pt x="58" y="727" on="0"/>
        <pt x="61" y="735" on="1"/>
        <pt x="180" y="735" on="1"/>
        <pt x="180" y="1157" on="1"/>
        <pt x="43" y="1138" on="1"/>
        <pt x="30" y="1230" on="1"/>
        <pt x="79" y="1242" on="0"/>
        <pt x="214" y="1264" on="0"/>
        <pt x="363" y="1281" on="0"/>
        <pt x="513" y="1290" on="0"/>
        <pt x="578" y="1290" on="1"/>
        <pt x="731" y="1290" on="0"/>
        <pt x="971" y="1207" on="0"/>
        <pt x="1135" y="1049" on="0"/>
        <pt x="1221" y="821" on="0"/>
      </contour>
      <contour>
        <pt x="506" y="1184" on="1"/>
        <pt x="488" y="1184" on="0"/>
        <pt x="450" y="1183" on="0"/>
        <pt x="430" y="1182" on="1"/>
        <pt x="430" y="735" on="1"/>
        <pt x="671" y="735" on="1"/>
        <pt x="696" y="712" on="1"/>
        <pt x="660" y="615" on="1"/>
        <pt x="430" y="615" on="1"/>
        <pt x="430" y="167" on="1"/>
        <pt x="430" y="160" on="0"/>
        <pt x="432" y="153" on="1"/>
        <pt x="435" y="142" on="0"/>
        <pt x="451" y="125" on="0"/>
        <pt x="485" y="113" on="0"/>
        <pt x="540" y="107" on="0"/>
        <pt x="582" y="107" on="1"/>
        <pt x="620" y="107" on="0"/>
        <pt x="705" y="133" on="0"/>
        <pt x="788" y="189" on="0"/>
        <pt x="863" y="274" on="0"/>
        <pt x="919" y="392" on="0"/>
        <pt x="953" y="543" on="0"/>
        <pt x="953" y="637" on="1"/>
        <pt x="953" y="770" on="0"/>
        <pt x="895" y="974" on="0"/>
        <pt x="782" y="1113" on="0"/>
        <pt x="615" y="1184" on="0"/>
      </contour>
    </TTGlyph>
    <TTGlyph name="Delta" xMin="44" yMin="0" xMax="1184" yMax="1317">
      <contour>
        <pt x="1156" y="0" on="1"/>
        <pt x="67" y="0" on="1"/>
        <pt x="44" y="59" on="1"/>
        <pt x="130" y="288" on="0"/>
        <pt x="210" y="503" on="1"/>
        <pt x="244" y="594" on="0"/>
        <pt x="316" y="788" on="0"/>
        <pt x="385" y="974" on="0"/>
        <pt x="446" y="1142" on="0"/>
        <pt x="470" y="1207" on="1"/>
        <pt x="521" y="1241" on="0"/>
        <pt x="633" y="1294" on="0"/>
        <pt x="691" y="1317" on="1"/>
        <pt x="719" y="1242" on="0"/>
        <pt x="792" y="1055" on="0"/>
        <pt x="872" y="850" on="0"/>
        <pt x="955" y="638" on="0"/>
        <pt x="994" y="539" on="1"/>
        <pt x="1086" y="306" on="0"/>
        <pt x="1184" y="59" on="1"/>
      </contour>
      <contour>
        <pt x="874" y="196" on="1"/>
        <pt x="815" y="345" on="0"/>
        <pt x="758" y="492" on="1"/>
        <pt x="734" y="555" on="0"/>
        <pt x="680" y="691" on="0"/>
        <pt x="627" y="826" on="0"/>
        <pt x="576" y="956" on="0"/>
        <pt x="554" y="1013" on="1"/>
        <pt x="531" y="950" on="0"/>
        <pt x="505" y="881" on="1"/>
        <pt x="454" y="743" on="1"/>
        <pt x="429" y="674" on="0"/>
        <pt x="379" y="539" on="0"/>
        <pt x="357" y="478" on="1"/>
        <pt x="304" y="335" on="0"/>
        <pt x="253" y="196" on="1"/>
        <pt x="246" y="177" on="0"/>
        <pt x="243" y="156" on="0"/>
        <pt x="263" y="147" on="0"/>
        <pt x="314" y="145" on="0"/>
        <pt x="362" y="145" on="1"/>
        <pt x="763" y="145" on="1"/>
        <pt x="812" y="145" on="0"/>
        <pt x="864" y="147" on="0"/>
        <pt x="885" y="156" on="0"/>
        <pt x="881" y="177" on="0"/>
      </contour>
    </TTGlyph>
    <TTGlyph name="E" xMin="43" yMin="0" xMax="1029" yMax="1260">
      <contour>
        <pt x="1029" y="304" on="1"/>
        <pt x="1025" y="261" on="0"/>
        <pt x="1015" y="166" on="0"/>
        <pt x="1003" y="81" on="0"/>
        <pt x="992" y="15" on="0"/>
        <pt x="988" y="0" on="1"/>
        <pt x="43" y="0" on="1"/>
        <pt x="43" y="73" on="1"/>
        <pt x="111" y="87" on="0"/>
        <pt x="180" y="120" on="0"/>
        <pt x="180" y="134" on="1"/>
        <pt x="180" y="1125" on="1"/>
        <pt x="180" y="1137" on="0"/>
        <pt x="115" y="1173" on="0"/>
        <pt x="43" y="1187" on="1"/>
        <pt x="43" y="1260" on="1"/>
        <pt x="924" y="1260" on="1"/>
        <pt x="964" y="1228" on="1"/>
        <pt x="962" y="1202" on="0"/>
        <pt x="954" y="1124" on="0"/>
        <pt x="942" y="1042" on="0"/>
        <pt x="929" y="969" on="0"/>
        <pt x="923" y="950" on="1"/>
        <pt x="848" y="950" on="1"/>
        <pt x="843" y="1043" on="0"/>
        <pt x="803" y="1140" on="0"/>
        <pt x="766" y="1140" on="1"/>
        <pt x="430" y="1140" on="1"/>
        <pt x="430" y="735" on="1"/>
        <pt x="828" y="735" on="1"/>
        <pt x="861" y="700" on="1"/>
        <pt x="853" y="686" on="0"/>
        <pt x="830" y="649" on="0"/>
        <pt x="805" y="613" on="0"/>
        <pt x="780" y="582" on="0"/>
        <pt x="769" y="574" on="1"/>
        <pt x="754" y="589" on="0"/>
        <pt x="719" y="609" on="0"/>
        <pt x="674" y="623" on="0"/>
        <pt x="613" y="629" on="0"/>
        <pt x="571" y="629" on="1"/>
        <pt x="430" y="629" on="1"/>
        <pt x="430" y="184" on="1"/>
        <pt x="430" y="169" on="0"/>
        <pt x="444" y="146" on="0"/>
        <pt x="488" y="129" on="0"/>
        <pt x="568" y="120" on="0"/>
        <pt x="634" y="120" on="1"/>
        <pt x="733" y="120" on="1"/>
        <pt x="779" y="120" on="0"/>
        <pt x="844" y="142" on="0"/>
        <pt x="894" y="191" on="0"/>
        <pt x="935" y="271" on="0"/>
        <pt x="956" y="330" on="1"/>
      </contour>
    </TTGlyph>
    <TTGlyph name="Eacute" xMin="43" yMin="0" xMax="1029" yMax="1767">
      <component glyphName="E" x="0" y="0" flags="0x0"/>
      <component glyphName="acutecomb.LP" x="1079" y="320" flags="0x0"/>
    </TTGlyph>
    <TTGlyph name="Ebreve" xMin="43" yMin="0" xMax="1029" yMax="1755">
      <component glyphName="E" x="0" y="0" flags="0x0"/>
      <component glyphName="uni0306" x="1051" y="320" flags="0x0"/>
    </TTGlyph>
    <TTGlyph name="Ecaron" xMin="43" yMin="0" xMax="1029" yMax="1775">
      <component glyphName="E" x="0" y="0" flags="0x0"/>
      <component glyphName="uni030C.LP" x="1050" y="320" flags="0x0"/>
    </TTGlyph>
    <TTGlyph name="Ecircumflex" xMin="43" yMin="0" xMax="1029" yMax="1744">
      <component glyphName="E" x="0" y="0" flags="0x0"/>
      <component glyphName="uni0302.LP" x="1050" y="320" flags="0x0"/>
    </TTGlyph>
    <TTGlyph name="Edieresis" xMin="43" yMin="0" xMax="1029" yMax="1669">
      <component glyphName="E" x="0" y="0" flags="0x0"/>
      <component glyphName="uni0308.LP" x="1051" y="320" flags="0x0"/>
    </TTGlyph>
    <TTGlyph name="Edotaccent" xMin="43" yMin="0" xMax="1029" yMax="1669">
      <component glyphName="E" x="0" y="0" flags="0x0"/>
      <component glyphName="uni0307.LP" x="1051" y="320" flags="0x0"/>
    </TTGlyph>
    <TTGlyph name="Egrave" xMin="43" yMin="0" xMax="1029" yMax="1767">
      <component glyphName="E" x="0" y="0" flags="0x0"/>
      <component glyphName="gravecomb.LP" x="969" y="320" flags="0x0"/>
    </TTGlyph>
    <TTGlyph name="Emacron" xMin="43" yMin="0" xMax="1029" yMax="1618">
      <component glyphName="E" x="0" y="0" flags="0x0"/>
      <component glyphName="uni0304.LP" x="1061" y="320" flags="0x0"/>
    </TTGlyph>
    <TTGlyph name="Eng" xMin="42" yMin="-418" xMax="1200" yMax="1290">
      <contour>
        <pt x="1200" y="277" on="1"/>
        <pt x="1200" y="173" on="0"/>
        <pt x="1164" y="8" on="0"/>
        <pt x="1095" y="-128" on="0"/>
        <pt x="996" y="-243" on="0"/>
        <pt x="934" y="-296" on="1"/>
        <pt x="907" y="-318" on="0"/>
        <pt x="835" y="-362" on="0"/>
        <pt x="750" y="-396" on="0"/>
        <pt x="653" y="-418" on="0"/>
        <pt x="601" y="-418" on="1"/>
        <pt x="557" y="-418" on="0"/>
        <pt x="455" y="-394" on="0"/>
        <pt x="367" y="-358" on="0"/>
        <pt x="308" y="-318" on="0"/>
        <pt x="308" y="-302" on="1"/>
        <pt x="308" y="-296" on="0"/>
        <pt x="332" y="-268" on="0"/>
        <pt x="369" y="-231" on="0"/>
        <pt x="415" y="-190" on="0"/>
        <pt x="458" y="-154" on="0"/>
        <pt x="495" y="-128" on="0"/>
        <pt x="505" y="-124" on="1"/>
        <pt x="533" y="-151" on="0"/>
        <pt x="590" y="-199" on="0"/>
        <pt x="650" y="-235" on="0"/>
        <pt x="714" y="-257" on="0"/>
        <pt x="749" y="-257" on="1"/>
        <pt x="792" y="-257" on="0"/>
        <pt x="866" y="-200" on="0"/>
        <pt x="920" y="-81" on="0"/>
        <pt x="950" y="100" on="0"/>
        <pt x="950" y="224" on="1"/>
        <pt x="950" y="872" on="1"/>
        <pt x="950" y="942" on="0"/>
        <pt x="935" y="1031" on="0"/>
        <pt x="902" y="1080" on="0"/>
        <pt x="849" y="1098" on="0"/>
        <pt x="812" y="1098" on="1"/>
        <pt x="783" y="1098" on="0"/>
        <pt x="708" y="1076" on="0"/>
        <pt x="614" y="1018" on="0"/>
        <pt x="499" y="917" on="0"/>
        <pt x="430" y="838" on="1"/>
        <pt x="430" y="134" on="1"/>
        <pt x="430" y="122" on="0"/>
        <pt x="502" y="87" on="0"/>
        <pt x="575" y="73" on="1"/>
        <pt x="575" y="0" on="1"/>
        <pt x="42" y="0" on="1"/>
        <pt x="42" y="73" on="1"/>
        <pt x="110" y="87" on="0"/>
        <pt x="180" y="120" on="0"/>
        <pt x="180" y="134" on="1"/>
        <pt x="180" y="1000" on="1"/>
        <pt x="180" y="1039" on="0"/>
        <pt x="177" y="1088" on="0"/>
        <pt x="153" y="1117" on="0"/>
        <pt x="99" y="1132" on="0"/>
        <pt x="48" y="1137" on="1"/>
        <pt x="48" y="1210" on="1"/>
        <pt x="83" y="1214" on="0"/>
        <pt x="172" y="1230" on="0"/>
        <pt x="265" y="1251" on="0"/>
        <pt x="353" y="1276" on="0"/>
        <pt x="388" y="1290" on="1"/>
        <pt x="430" y="1248" on="1"/>
        <pt x="430" y="1026" on="1"/>
        <pt x="512" y="1104" on="0"/>
        <pt x="651" y="1206" on="0"/>
        <pt x="774" y="1266" on="0"/>
        <pt x="885" y="1290" on="0"/>
        <pt x="939" y="1290" on="1"/>
        <pt x="982" y="1290" on="0"/>
        <pt x="1074" y="1264" on="0"/>
        <pt x="1151" y="1195" on="0"/>
        <pt x="1200" y="1075" on="0"/>
        <pt x="1200" y="981" on="1"/>
      </contour>
    </TTGlyph>
    <TTGlyph name="Eng.BaselineHook" xMin="42" yMin="-30" xMax="1200" yMax="1290">
      <contour>
        <pt x="1200" y="587" on="1"/>
        <pt x="1200" y="500" on="0"/>
        <pt x="1187" y="362" on="0"/>
        <pt x="1157" y="249" on="0"/>
        <pt x="1107" y="155" on="0"/>
        <pt x="1071" y="113" on="1"/>
        <pt x="1048" y="86" on="0"/>
        <pt x="990" y="35" on="0"/>
        <pt x="924" y="-6" on="0"/>
        <pt x="854" y="-30" on="0"/>
        <pt x="820" y="-30" on="1"/>
        <pt x="770" y="-30" on="0"/>
        <pt x="684" y="1" on="0"/>
        <pt x="622" y="50" on="0"/>
        <pt x="587" y="110" on="0"/>
        <pt x="587" y="138" on="1"/>
        <pt x="587" y="148" on="0"/>
        <pt x="637" y="189" on="0"/>
        <pt x="703" y="232" on="0"/>
        <pt x="767" y="268" on="0"/>
        <pt x="781" y="272" on="1"/>
        <pt x="792" y="207" on="0"/>
        <pt x="849" y="133" on="0"/>
        <pt x="882" y="133" on="1"/>
        <pt x="900" y="133" on="0"/>
        <pt x="926" y="164" on="0"/>
        <pt x="942" y="252" on="0"/>
        <pt x="950" y="408" on="0"/>
        <pt x="950" y="534" on="1"/>
        <pt x="950" y="872" on="1"/>
        <pt x="950" y="942" on="0"/>
        <pt x="935" y="1031" on="0"/>
        <pt x="902" y="1080" on="0"/>
        <pt x="849" y="1098" on="0"/>
        <pt x="812" y="1098" on="1"/>
        <pt x="783" y="1098" on="0"/>
        <pt x="708" y="1076" on="0"/>
        <pt x="614" y="1018" on="0"/>
        <pt x="499" y="917" on="0"/>
        <pt x="430" y="838" on="1"/>
        <pt x="430" y="134" on="1"/>
        <pt x="430" y="128" on="0"/>
        <pt x="438" y="112" on="0"/>
        <pt x="460" y="96" on="0"/>
        <pt x="502" y="80" on="0"/>
        <pt x="535" y="73" on="1"/>
        <pt x="535" y="0" on="1"/>
        <pt x="42" y="0" on="1"/>
        <pt x="42" y="73" on="1"/>
        <pt x="110" y="87" on="0"/>
        <pt x="180" y="120" on="0"/>
        <pt x="180" y="134" on="1"/>
        <pt x="180" y="1000" on="1"/>
        <pt x="180" y="1039" on="0"/>
        <pt x="177" y="1088" on="0"/>
        <pt x="153" y="1117" on="0"/>
        <pt x="99" y="1132" on="0"/>
        <pt x="48" y="1137" on="1"/>
        <pt x="48" y="1210" on="1"/>
        <pt x="83" y="1214" on="0"/>
        <pt x="172" y="1230" on="0"/>
        <pt x="265" y="1251" on="0"/>
        <pt x="353" y="1276" on="0"/>
        <pt x="388" y="1290" on="1"/>
        <pt x="430" y="1248" on="1"/>
        <pt x="430" y="1026" on="1"/>
        <pt x="512" y="1104" on="0"/>
        <pt x="652" y="1206" on="0"/>
        <pt x="775" y="1266" on="0"/>
        <pt x="886" y="1290" on="0"/>
        <pt x="940" y="1290" on="1"/>
        <pt x="983" y="1290" on="0"/>
        <pt x="1075" y="1264" on="0"/>
        <pt x="1151" y="1195" on="0"/>
        <pt x="1200" y="1075" on="0"/>
        <pt x="1200" y="981" on="1"/>
      </contour>
    </TTGlyph>
    <TTGlyph name="Eng.Kom" xMin="49" yMin="-30" xMax="1163" yMax="1290">
      <contour>
        <pt x="1163" y="567" on="1"/>
        <pt x="1163" y="492" on="0"/>
        <pt x="1133" y="358" on="0"/>
        <pt x="1080" y="241" on="0"/>
        <pt x="1006" y="142" on="0"/>
        <pt x="961" y="102" on="1"/>
        <pt x="928" y="72" on="0"/>
        <pt x="855" y="24" on="0"/>
        <pt x="770" y="-11" on="0"/>
        <pt x="671" y="-30" on="0"/>
        <pt x="613" y="-30" on="1"/>
        <pt x="513" y="-30" on="0"/>
        <pt x="354" y="13" on="0"/>
        <pt x="243" y="74" on="0"/>
        <pt x="183" y="140" on="0"/>
        <pt x="183" y="163" on="1"/>
        <pt x="183" y="178" on="0"/>
        <pt x="235" y="230" on="0"/>
        <pt x="310" y="286" on="0"/>
        <pt x="393" y="336" on="0"/>
        <pt x="425" y="349" on="1"/>
        <pt x="444" y="302" on="0"/>
        <pt x="500" y="222" on="0"/>
        <pt x="567" y="163" on="0"/>
        <pt x="643" y="130" on="0"/>
        <pt x="684" y="130" on="1"/>
        <pt x="732" y="130" on="0"/>
        <pt x="815" y="159" on="0"/>
        <pt x="877" y="241" on="0"/>
        <pt x="913" y="389" on="0"/>
        <pt x="913" y="509" on="1"/>
        <pt x="913" y="872" on="1"/>
        <pt x="913" y="942" on="0"/>
        <pt x="895" y="1031" on="0"/>
        <pt x="859" y="1080" on="0"/>
        <pt x="804" y="1098" on="0"/>
        <pt x="767" y="1098" on="1"/>
        <pt x="738" y="1098" on="0"/>
        <pt x="675" y="1074" on="0"/>
        <pt x="598" y="1018" on="0"/>
        <pt x="501" y="927" on="0"/>
        <pt x="438" y="861" on="1"/>
        <pt x="438" y="669" on="1"/>
        <pt x="438" y="657" on="0"/>
        <pt x="510" y="622" on="0"/>
        <pt x="583" y="608" on="1"/>
        <pt x="583" y="535" on="1"/>
        <pt x="49" y="535" on="1"/>
        <pt x="49" y="608" on="1"/>
        <pt x="117" y="622" on="0"/>
        <pt x="188" y="655" on="0"/>
        <pt x="188" y="669" on="1"/>
        <pt x="188" y="1000" on="1"/>
        <pt x="188" y="1039" on="0"/>
        <pt x="184" y="1088" on="0"/>
        <pt x="160" y="1117" on="0"/>
        <pt x="106" y="1132" on="0"/>
        <pt x="55" y="1137" on="1"/>
        <pt x="55" y="1210" on="1"/>
        <pt x="91" y="1214" on="0"/>
        <pt x="180" y="1230" on="0"/>
        <pt x="272" y="1251" on="0"/>
        <pt x="360" y="1276" on="0"/>
        <pt x="395" y="1290" on="1"/>
        <pt x="438" y="1248" on="1"/>
        <pt x="438" y="1043" on="1"/>
        <pt x="514" y="1109" on="0"/>
        <pt x="636" y="1203" on="0"/>
        <pt x="742" y="1263" on="0"/>
        <pt x="840" y="1290" on="0"/>
        <pt x="894" y="1290" on="1"/>
        <pt x="937" y="1290" on="0"/>
        <pt x="1032" y="1264" on="0"/>
        <pt x="1111" y="1195" on="0"/>
        <pt x="1163" y="1075" on="0"/>
        <pt x="1163" y="981" on="1"/>
      </contour>
    </TTGlyph>
    <TTGlyph name="Eng.UCStyle" xMin="43" yMin="-418" xMax="1318" yMax="1260">
      <contour>
        <pt x="43" y="0" on="1"/>
        <pt x="43" y="73" on="1"/>
        <pt x="116" y="82" on="0"/>
        <pt x="180" y="120" on="0"/>
        <pt x="180" y="134" on="1"/>
        <pt x="180" y="1114" on="1"/>
        <pt x="148" y="1144" on="0"/>
        <pt x="78" y="1182" on="0"/>
        <pt x="43" y="1187" on="1"/>
        <pt x="43" y="1260" on="1"/>
        <pt x="322" y="1260" on="1"/>
        <pt x="337" y="1260" on="0"/>
        <pt x="356" y="1255" on="0"/>
        <pt x="376" y="1239" on="0"/>
        <pt x="399" y="1208" on="0"/>
        <pt x="418" y="1182" on="1"/>
        <pt x="1030" y="334" on="1"/>
        <pt x="1030" y="1125" on="1"/>
        <pt x="1030" y="1131" on="0"/>
        <pt x="1017" y="1148" on="0"/>
        <pt x="986" y="1165" on="0"/>
        <pt x="933" y="1181" on="0"/>
        <pt x="893" y="1187" on="1"/>
        <pt x="893" y="1260" on="1"/>
        <pt x="1318" y="1260" on="1"/>
        <pt x="1318" y="1187" on="1"/>
        <pt x="1246" y="1177" on="0"/>
        <pt x="1180" y="1139" on="0"/>
        <pt x="1180" y="1125" on="1"/>
        <pt x="1180" y="82" on="1"/>
        <pt x="1180" y="27" on="0"/>
        <pt x="1173" y="-70" on="0"/>
        <pt x="1150" y="-157" on="0"/>
        <pt x="1108" y="-236" on="0"/>
        <pt x="1074" y="-273" on="1"/>
        <pt x="1050" y="-298" on="0"/>
        <pt x="985" y="-350" on="0"/>
        <pt x="909" y="-392" on="0"/>
        <pt x="826" y="-418" on="0"/>
        <pt x="784" y="-418" on="1"/>
        <pt x="739" y="-418" on="0"/>
        <pt x="650" y="-399" on="0"/>
        <pt x="578" y="-371" on="0"/>
        <pt x="534" y="-337" on="0"/>
        <pt x="534" y="-323" on="1"/>
        <pt x="534" y="-318" on="0"/>
        <pt x="554" y="-291" on="0"/>
        <pt x="585" y="-257" on="0"/>
        <pt x="624" y="-220" on="0"/>
        <pt x="661" y="-187" on="0"/>
        <pt x="694" y="-163" on="0"/>
        <pt x="703" y="-159" on="1"/>
        <pt x="748" y="-210" on="0"/>
        <pt x="846" y="-250" on="0"/>
        <pt x="891" y="-250" on="1"/>
        <pt x="958" y="-250" on="0"/>
        <pt x="1025" y="-125" on="0"/>
        <pt x="1029" y="14" on="1"/>
        <pt x="991" y="26" on="0"/>
        <pt x="949" y="64" on="0"/>
        <pt x="929" y="91" on="1"/>
        <pt x="330" y="920" on="1"/>
        <pt x="330" y="134" on="1"/>
        <pt x="330" y="128" on="0"/>
        <pt x="344" y="111" on="0"/>
        <pt x="377" y="94" on="0"/>
        <pt x="429" y="78" on="0"/>
        <pt x="468" y="73" on="1"/>
        <pt x="468" y="0" on="1"/>
      </contour>
    </TTGlyph>
    <TTGlyph name="Eth" xMin="28" yMin="0" xMax="1221" yMax="1290">
      <contour>
        <pt x="1221" y="676" on="1"/>
        <pt x="1221" y="551" on="0"/>
        <pt x="1170" y="354" on="0"/>
        <pt x="1082" y="203" on="0"/>
        <pt x="964" y="98" on="0"/>
        <pt x="830" y="31" on="0"/>
        <pt x="687" y="0" on="0"/>
        <pt x="619" y="0" on="1"/>
        <pt x="43" y="0" on="1"/>
        <pt x="43" y="73" on="1"/>
        <pt x="111" y="87" on="0"/>
        <pt x="180" y="120" on="0"/>
        <pt x="180" y="134" on="1"/>
        <pt x="180" y="615" on="1"/>
        <pt x="50" y="615" on="1"/>
        <pt x="28" y="639" on="1"/>
        <pt x="30" y="646" on="0"/>
        <pt x="39" y="672" on="0"/>
        <pt x="49" y="701" on="0"/>
        <pt x="58" y="727" on="0"/>
        <pt x="61" y="735" on="1"/>
        <pt x="180" y="735" on="1"/>
        <pt x="180" y="1157" on="1"/>
        <pt x="43" y="1138" on="1"/>
        <pt x="30" y="1230" on="1"/>
        <pt x="79" y="1242" on="0"/>
        <pt x="214" y="1264" on="0"/>
        <pt x="363" y="1281" on="0"/>
        <pt x="513" y="1290" on="0"/>
        <pt x="578" y="1290" on="1"/>
        <pt x="731" y="1290" on="0"/>
        <pt x="971" y="1207" on="0"/>
        <pt x="1135" y="1049" on="0"/>
        <pt x="1221" y="821" on="0"/>
      </contour>
      <contour>
        <pt x="506" y="1184" on="1"/>
        <pt x="488" y="1184" on="0"/>
        <pt x="450" y="1183" on="0"/>
        <pt x="430" y="1182" on="1"/>
        <pt x="430" y="735" on="1"/>
        <pt x="671" y="735" on="1"/>
        <pt x="696" y="712" on="1"/>
        <pt x="660" y="615" on="1"/>
        <pt x="430" y="615" on="1"/>
        <pt x="430" y="167" on="1"/>
        <pt x="430" y="160" on="0"/>
        <pt x="432" y="153" on="1"/>
        <pt x="435" y="142" on="0"/>
        <pt x="451" y="125" on="0"/>
        <pt x="485" y="113" on="0"/>
        <pt x="540" y="107" on="0"/>
        <pt x="582" y="107" on="1"/>
        <pt x="620" y="107" on="0"/>
        <pt x="705" y="133" on="0"/>
        <pt x="788" y="189" on="0"/>
        <pt x="863" y="274" on="0"/>
        <pt x="919" y="392" on="0"/>
        <pt x="953" y="543" on="0"/>
        <pt x="953" y="637" on="1"/>
        <pt x="953" y="770" on="0"/>
        <pt x="895" y="974" on="0"/>
        <pt x="782" y="1113" on="0"/>
        <pt x="615" y="1184" on="0"/>
      </contour>
    </TTGlyph>
    <TTGlyph name="Euro" xMin="17" yMin="-30" xMax="993" yMax="1235">
      <contour>
        <pt x="685" y="437" on="1"/>
        <pt x="384" y="437" on="1"/>
        <pt x="398" y="344" on="0"/>
        <pt x="455" y="220" on="0"/>
        <pt x="528" y="145" on="0"/>
        <pt x="612" y="113" on="0"/>
        <pt x="653" y="113" on="1"/>
        <pt x="680" y="113" on="0"/>
        <pt x="736" y="123" on="0"/>
        <pt x="802" y="154" on="0"/>
        <pt x="882" y="210" on="0"/>
        <pt x="933" y="256" on="1"/>
        <pt x="947" y="242" on="0"/>
        <pt x="974" y="205" on="0"/>
        <pt x="985" y="189" on="1"/>
        <pt x="925" y="121" on="0"/>
        <pt x="819" y="35" on="0"/>
        <pt x="720" y="-13" on="0"/>
        <pt x="627" y="-30" on="0"/>
        <pt x="581" y="-30" on="1"/>
        <pt x="502" y="-30" on="0"/>
        <pt x="355" y="29" on="0"/>
        <pt x="234" y="146" on="0"/>
        <pt x="148" y="321" on="0"/>
        <pt x="130" y="437" on="1"/>
        <pt x="46" y="437" on="1"/>
        <pt x="17" y="470" on="1"/>
        <pt x="19" y="477" on="0"/>
        <pt x="27" y="501" on="0"/>
        <pt x="35" y="526" on="0"/>
        <pt x="43" y="549" on="0"/>
        <pt x="46" y="557" on="1"/>
        <pt x="120" y="557" on="1"/>
        <pt x="120" y="584" on="1"/>
        <pt x="120" y="628" on="0"/>
        <pt x="123" y="672" on="1"/>
        <pt x="76" y="672" on="1"/>
        <pt x="47" y="705" on="1"/>
        <pt x="49" y="712" on="0"/>
        <pt x="57" y="736" on="0"/>
        <pt x="65" y="761" on="0"/>
        <pt x="73" y="784" on="0"/>
        <pt x="76" y="792" on="1"/>
        <pt x="138" y="792" on="1"/>
        <pt x="160" y="904" on="0"/>
        <pt x="253" y="1071" on="0"/>
        <pt x="390" y="1181" on="0"/>
        <pt x="566" y="1235" on="0"/>
        <pt x="671" y="1235" on="1"/>
        <pt x="721" y="1235" on="0"/>
        <pt x="813" y="1219" on="0"/>
        <pt x="895" y="1192" on="0"/>
        <pt x="963" y="1156" on="0"/>
        <pt x="989" y="1135" on="1"/>
        <pt x="993" y="1132" on="0"/>
        <pt x="984" y="1105" on="0"/>
        <pt x="966" y="1066" on="0"/>
        <pt x="941" y="1020" on="0"/>
        <pt x="915" y="978" on="0"/>
        <pt x="892" y="945" on="0"/>
        <pt x="884" y="937" on="1"/>
        <pt x="819" y="951" on="1"/>
        <pt x="773" y="1025" on="0"/>
        <pt x="669" y="1103" on="0"/>
        <pt x="594" y="1103" on="1"/>
        <pt x="564" y="1103" on="0"/>
        <pt x="499" y="1079" on="0"/>
        <pt x="441" y="1012" on="0"/>
        <pt x="395" y="890" on="0"/>
        <pt x="383" y="792" on="1"/>
        <pt x="745" y="792" on="1"/>
        <pt x="778" y="762" on="1"/>
        <pt x="745" y="672" on="1"/>
        <pt x="374" y="672" on="1"/>
        <pt x="373" y="654" on="0"/>
        <pt x="373" y="636" on="1"/>
        <pt x="373" y="557" on="1"/>
        <pt x="685" y="557" on="1"/>
        <pt x="718" y="527" on="1"/>
      </contour>
    </TTGlyph>
    <TTGlyph name="F" xMin="43" yMin="0" xMax="972" yMax="1260">
      <contour>
        <pt x="43" y="0" on="1"/>
        <pt x="43" y="73" on="1"/>
        <pt x="111" y="87" on="0"/>
        <pt x="180" y="120" on="0"/>
        <pt x="180" y="134" on="1"/>
        <pt x="180" y="1125" on="1"/>
        <pt x="180" y="1137" on="0"/>
        <pt x="115" y="1173" on="0"/>
        <pt x="43" y="1187" on="1"/>
        <pt x="43" y="1260" on="1"/>
        <pt x="934" y="1260" on="1"/>
        <pt x="972" y="1228" on="1"/>
        <pt x="971" y="1202" on="0"/>
        <pt x="963" y="1124" on="0"/>
        <pt x="952" y="1042" on="0"/>
        <pt x="939" y="969" on="0"/>
        <pt x="933" y="950" on="1"/>
        <pt x="856" y="950" on="1"/>
        <pt x="853" y="1043" on="0"/>
        <pt x="812" y="1140" on="0"/>
        <pt x="774" y="1140" on="1"/>
        <pt x="430" y="1140" on="1"/>
        <pt x="430" y="735" on="1"/>
        <pt x="797" y="735" on="1"/>
        <pt x="833" y="700" on="1"/>
        <pt x="824" y="683" on="0"/>
        <pt x="800" y="645" on="0"/>
        <pt x="774" y="611" on="0"/>
        <pt x="749" y="582" on="0"/>
        <pt x="739" y="574" on="1"/>
        <pt x="724" y="589" on="0"/>
        <pt x="690" y="609" on="0"/>
        <pt x="645" y="623" on="0"/>
        <pt x="584" y="629" on="0"/>
        <pt x="542" y="629" on="1"/>
        <pt x="430" y="629" on="1"/>
        <pt x="430" y="134" on="1"/>
        <pt x="430" y="128" on="0"/>
        <pt x="446" y="114" on="0"/>
        <pt x="484" y="99" on="0"/>
        <pt x="549" y="82" on="0"/>
        <pt x="598" y="73" on="1"/>
        <pt x="598" y="0" on="1"/>
      </contour>
    </TTGlyph>
    <TTGlyph name="G" xMin="55" yMin="-30" xMax="1190" yMax="1290">
      <contour>
        <pt x="1095" y="1188" on="1"/>
        <pt x="1100" y="1184" on="0"/>
        <pt x="1092" y="1155" on="0"/>
        <pt x="1073" y="1115" on="0"/>
        <pt x="1046" y="1067" on="0"/>
        <pt x="1019" y="1023" on="0"/>
        <pt x="993" y="989" on="0"/>
        <pt x="984" y="981" on="1"/>
        <pt x="921" y="995" on="1"/>
        <pt x="888" y="1043" on="0"/>
        <pt x="821" y="1109" on="0"/>
        <pt x="749" y="1148" on="0"/>
        <pt x="671" y="1165" on="0"/>
        <pt x="628" y="1165" on="1"/>
        <pt x="603" y="1165" on="0"/>
        <pt x="536" y="1145" on="0"/>
        <pt x="465" y="1097" on="0"/>
        <pt x="396" y="1017" on="0"/>
        <pt x="342" y="900" on="0"/>
        <pt x="308" y="741" on="0"/>
        <pt x="308" y="637" on="1"/>
        <pt x="308" y="503" on="0"/>
        <pt x="370" y="311" on="0"/>
        <pt x="473" y="187" on="0"/>
        <pt x="605" y="128" on="0"/>
        <pt x="676" y="128" on="1"/>
        <pt x="731" y="128" on="0"/>
        <pt x="818" y="148" on="0"/>
        <pt x="853" y="165" on="1"/>
        <pt x="853" y="470" on="1"/>
        <pt x="853" y="481" on="0"/>
        <pt x="845" y="502" on="0"/>
        <pt x="813" y="522" on="0"/>
        <pt x="748" y="542" on="0"/>
        <pt x="692" y="552" on="1"/>
        <pt x="692" y="625" on="1"/>
        <pt x="1190" y="625" on="1"/>
        <pt x="1190" y="552" on="1"/>
        <pt x="1133" y="538" on="0"/>
        <pt x="1093" y="493" on="0"/>
        <pt x="1093" y="470" on="1"/>
        <pt x="1093" y="169" on="1"/>
        <pt x="1019" y="108" on="0"/>
        <pt x="890" y="31" on="0"/>
        <pt x="778" y="-13" on="0"/>
        <pt x="678" y="-30" on="0"/>
        <pt x="633" y="-30" on="1"/>
        <pt x="560" y="-30" on="0"/>
        <pt x="418" y="3" on="0"/>
        <pt x="290" y="70" on="0"/>
        <pt x="180" y="172" on="0"/>
        <pt x="100" y="308" on="0"/>
        <pt x="55" y="479" on="0"/>
        <pt x="55" y="582" on="1"/>
        <pt x="55" y="748" on="0"/>
        <pt x="161" y="1011" on="0"/>
        <pt x="349" y="1194" on="0"/>
        <pt x="603" y="1290" on="0"/>
        <pt x="752" y="1290" on="1"/>
        <pt x="785" y="1290" on="0"/>
        <pt x="876" y="1276" on="0"/>
        <pt x="972" y="1250" on="0"/>
        <pt x="1063" y="1212" on="0"/>
      </contour>
    </TTGlyph>
    <TTGlyph name="Gbreve" xMin="55" yMin="-30" xMax="1190" yMax="1755">
      <component glyphName="G" x="0" y="0" flags="0x0"/>
      <component glyphName="uni0306" x="1172" y="320" flags="0x0"/>
    </TTGlyph>
    <TTGlyph name="Gcaron" xMin="55" yMin="-30" xMax="1190" yMax="1775">
      <component glyphName="G" x="0" y="0" flags="0x0"/>
      <component glyphName="uni030C.LP" x="1171" y="320" flags="0x0"/>
    </TTGlyph>
    <TTGlyph name="Gcircumflex" xMin="55" yMin="-30" xMax="1190" yMax="1744">
      <component glyphName="G" x="0" y="0" flags="0x0"/>
      <component glyphName="uni0302.LP" x="1171" y="320" flags="0x0"/>
    </TTGlyph>
    <TTGlyph name="Gdotaccent" xMin="55" yMin="-30" xMax="1190" yMax="1669">
      <component glyphName="G" x="0" y="0" flags="0x0"/>
      <component glyphName="uni0307.LP" x="1172" y="320" flags="0x0"/>
    </TTGlyph>
    <TTGlyph name="H" xMin="43" yMin="0" xMax="1338" yMax="1260">
      <contour>
        <pt x="43" y="0" on="1"/>
        <pt x="43" y="73" on="1"/>
        <pt x="111" y="87" on="0"/>
        <pt x="180" y="120" on="0"/>
        <pt x="180" y="134" on="1"/>
        <pt x="180" y="1125" on="1"/>
        <pt x="180" y="1137" on="0"/>
        <pt x="115" y="1173" on="0"/>
        <pt x="43" y="1187" on="1"/>
        <pt x="43" y="1260" on="1"/>
        <pt x="568" y="1260" on="1"/>
        <pt x="568" y="1187" on="1"/>
        <pt x="500" y="1173" on="0"/>
        <pt x="430" y="1139" on="0"/>
        <pt x="430" y="1125" on="1"/>
        <pt x="430" y="720" on="1"/>
        <pt x="950" y="720" on="1"/>
        <pt x="950" y="1125" on="1"/>
        <pt x="950" y="1137" on="0"/>
        <pt x="885" y="1173" on="0"/>
        <pt x="813" y="1187" on="1"/>
        <pt x="813" y="1260" on="1"/>
        <pt x="1338" y="1260" on="1"/>
        <pt x="1338" y="1187" on="1"/>
        <pt x="1270" y="1173" on="0"/>
        <pt x="1200" y="1139" on="0"/>
        <pt x="1200" y="1125" on="1"/>
        <pt x="1200" y="134" on="1"/>
        <pt x="1200" y="122" on="0"/>
        <pt x="1266" y="87" on="0"/>
        <pt x="1338" y="73" on="1"/>
        <pt x="1338" y="0" on="1"/>
        <pt x="813" y="0" on="1"/>
        <pt x="813" y="73" on="1"/>
        <pt x="881" y="87" on="0"/>
        <pt x="950" y="120" on="0"/>
        <pt x="950" y="134" on="1"/>
        <pt x="950" y="600" on="1"/>
        <pt x="430" y="600" on="1"/>
        <pt x="430" y="134" on="1"/>
        <pt x="430" y="122" on="0"/>
        <pt x="495" y="87" on="0"/>
        <pt x="568" y="73" on="1"/>
        <pt x="568" y="0" on="1"/>
      </contour>
    </TTGlyph>
    <TTGlyph name="Hcircumflex" xMin="43" yMin="0" xMax="1338" yMax="1744">
      <component glyphName="H" x="0" y="0" flags="0x0"/>
      <component glyphName="uni0302.LP" x="1204" y="320" flags="0x0"/>
    </TTGlyph>
    <TTGlyph name="I" xMin="63" yMin="0" xMax="588" yMax="1260">
      <contour>
        <pt x="63" y="0" on="1"/>
        <pt x="63" y="73" on="1"/>
        <pt x="131" y="87" on="0"/>
        <pt x="200" y="120" on="0"/>
        <pt x="200" y="134" on="1"/>
        <pt x="200" y="1125" on="1"/>
        <pt x="200" y="1137" on="0"/>
        <pt x="135" y="1173" on="0"/>
        <pt x="63" y="1187" on="1"/>
        <pt x="63" y="1260" on="1"/>
        <pt x="588" y="1260" on="1"/>
        <pt x="588" y="1187" on="1"/>
        <pt x="520" y="1173" on="0"/>
        <pt x="450" y="1139" on="0"/>
        <pt x="450" y="1125" on="1"/>
        <pt x="450" y="134" on="1"/>
        <pt x="450" y="122" on="0"/>
        <pt x="516" y="87" on="0"/>
        <pt x="588" y="73" on="1"/>
        <pt x="588" y="0" on="1"/>
      </contour>
    </TTGlyph>
    <TTGlyph name="IJ" xMin="63" yMin="-418" xMax="1293" yMax="1260">
      <component glyphName="I" x="0" y="0" flags="0x0"/>
      <component glyphName="J" x="670" y="0" flags="0x0"/>
    </TTGlyph>
    <TTGlyph name="Iacute" xMin="63" yMin="0" xMax="677" yMax="1767">
      <component glyphName="I" x="0" y="0" flags="0x0"/>
      <component glyphName="acutecomb.LP" x="868" y="320" flags="0x0"/>
    </TTGlyph>
    <TTGlyph name="Ibreve" xMin="-30" yMin="0" xMax="680" yMax="1755">
      <component glyphName="I" x="0" y="0" flags="0x0"/>
      <component glyphName="uni0306" x="840" y="320" flags="0x0"/>
    </TTGlyph>
    <TTGlyph name="Icircumflex" xMin="-15" yMin="0" xMax="663" yMax="1744">
      <component glyphName="I" x="0" y="0" flags="0x0"/>
      <component glyphName="uni0302.LP" x="839" y="320" flags="0x0"/>
    </TTGlyph>
    <TTGlyph name="Idieresis" xMin="-24" yMin="0" xMax="674" yMax="1669">
      <component glyphName="I" x="0" y="0" flags="0x0"/>
      <component glyphName="uni0308.LP" x="840" y="320" flags="0x0"/>
    </TTGlyph>
    <TTGlyph name="Idotaccent" xMin="63" yMin="0" xMax="588" yMax="1669">
      <component glyphName="I" x="0" y="0" flags="0x0"/>
      <component glyphName="uni0307.LP" x="840" y="320" flags="0x0"/>
    </TTGlyph>
    <TTGlyph name="Igrave" xMin="-22" yMin="0" xMax="588" yMax="1767">
      <component glyphName="I" x="0" y="0" flags="0x0"/>
      <component glyphName="gravecomb.LP" x="758" y="320" flags="0x0"/>
    </TTGlyph>
    <TTGlyph name="Imacron" xMin="19" yMin="0" xMax="651" yMax="1658">
      <component glyphName="I" x="0" y="0" flags="0x0"/>
      <component glyphName="uni0304.Short" x="850" y="320" flags="0x0"/>
    </TTGlyph>
    <TTGlyph name="Itilde" xMin="-68" yMin="0" xMax="719" yMax="1687">
      <component glyphName="I" x="0" y="0" flags="0x0"/>
      <component glyphName="tildecomb.LP" x="863" y="320" flags="0x0"/>
    </TTGlyph>
    <TTGlyph name="J" xMin="-265" yMin="-418" xMax="623" yMax="1260">
      <contour>
        <pt x="623" y="1187" on="1"/>
        <pt x="555" y="1173" on="0"/>
        <pt x="485" y="1139" on="0"/>
        <pt x="485" y="1125" on="1"/>
        <pt x="485" y="183" on="1"/>
        <pt x="485" y="73" on="0"/>
        <pt x="441" y="-85" on="0"/>
        <pt x="372" y="-199" on="0"/>
        <pt x="288" y="-279" on="0"/>
        <pt x="249" y="-311" on="1"/>
        <pt x="222" y="-333" on="0"/>
        <pt x="155" y="-372" on="0"/>
        <pt x="83" y="-401" on="0"/>
        <pt x="9" y="-418" on="0"/>
        <pt x="-25" y="-418" on="1"/>
        <pt x="-70" y="-418" on="0"/>
        <pt x="-156" y="-397" on="0"/>
        <pt x="-223" y="-367" on="0"/>
        <pt x="-265" y="-334" on="0"/>
        <pt x="-265" y="-323" on="1"/>
        <pt x="-265" y="-312" on="0"/>
        <pt x="-223" y="-263" on="0"/>
        <pt x="-167" y="-211" on="0"/>
        <pt x="-111" y="-168" on="0"/>
        <pt x="-97" y="-163" on="1"/>
        <pt x="-41" y="-211" on="0"/>
        <pt x="54" y="-250" on="0"/>
        <pt x="92" y="-250" on="1"/>
        <pt x="118" y="-250" on="0"/>
        <pt x="169" y="-226" on="0"/>
        <pt x="210" y="-149" on="0"/>
        <pt x="235" y="-7" on="0"/>
        <pt x="235" y="111" on="1"/>
        <pt x="235" y="1125" on="1"/>
        <pt x="235" y="1131" on="0"/>
        <pt x="222" y="1145" on="0"/>
        <pt x="181" y="1161" on="0"/>
        <pt x="108" y="1178" on="0"/>
        <pt x="48" y="1187" on="1"/>
        <pt x="48" y="1260" on="1"/>
        <pt x="623" y="1260" on="1"/>
      </contour>
    </TTGlyph>
    <TTGlyph name="K" xMin="43" yMin="-14" xMax="1264" yMax="1260">
      <contour>
        <pt x="43" y="0" on="1"/>
        <pt x="43" y="73" on="1"/>
        <pt x="111" y="87" on="0"/>
        <pt x="180" y="120" on="0"/>
        <pt x="180" y="134" on="1"/>
        <pt x="180" y="1125" on="1"/>
        <pt x="180" y="1137" on="0"/>
        <pt x="115" y="1173" on="0"/>
        <pt x="43" y="1187" on="1"/>
        <pt x="43" y="1260" on="1"/>
        <pt x="568" y="1260" on="1"/>
        <pt x="568" y="1187" on="1"/>
        <pt x="500" y="1173" on="0"/>
        <pt x="430" y="1139" on="0"/>
        <pt x="430" y="1125" on="1"/>
        <pt x="430" y="659" on="1"/>
        <pt x="802" y="1098" on="1"/>
        <pt x="825" y="1125" on="0"/>
        <pt x="844" y="1157" on="0"/>
        <pt x="833" y="1175" on="0"/>
        <pt x="789" y="1184" on="0"/>
        <pt x="750" y="1187" on="1"/>
        <pt x="750" y="1260" on="1"/>
        <pt x="1200" y="1260" on="1"/>
        <pt x="1200" y="1187" on="1"/>
        <pt x="1168" y="1183" on="0"/>
        <pt x="1123" y="1175" on="0"/>
        <pt x="1089" y="1162" on="0"/>
        <pt x="1061" y="1141" on="0"/>
        <pt x="1045" y="1125" on="1"/>
        <pt x="616" y="676" on="1"/>
        <pt x="1098" y="165" on="1"/>
        <pt x="1114" y="147" on="0"/>
        <pt x="1148" y="128" on="0"/>
        <pt x="1187" y="121" on="0"/>
        <pt x="1231" y="122" on="0"/>
        <pt x="1257" y="125" on="1"/>
        <pt x="1264" y="52" on="1"/>
        <pt x="1235" y="43" on="0"/>
        <pt x="1163" y="20" on="0"/>
        <pt x="1091" y="0" on="0"/>
        <pt x="1025" y="-14" on="0"/>
        <pt x="1001" y="-14" on="1"/>
        <pt x="972" y="-14" on="0"/>
        <pt x="927" y="4" on="0"/>
        <pt x="907" y="29" on="1"/>
        <pt x="430" y="625" on="1"/>
        <pt x="430" y="134" on="1"/>
        <pt x="430" y="122" on="0"/>
        <pt x="495" y="87" on="0"/>
        <pt x="568" y="73" on="1"/>
        <pt x="568" y="0" on="1"/>
      </contour>
    </TTGlyph>
    <TTGlyph name="L" xMin="43" yMin="0" xMax="1019" yMax="1260">
      <contour>
        <pt x="1019" y="304" on="1"/>
        <pt x="1015" y="261" on="0"/>
        <pt x="1004" y="166" on="0"/>
        <pt x="993" y="81" on="0"/>
        <pt x="982" y="15" on="0"/>
        <pt x="978" y="0" on="1"/>
        <pt x="43" y="0" on="1"/>
        <pt x="43" y="73" on="1"/>
        <pt x="111" y="87" on="0"/>
        <pt x="180" y="120" on="0"/>
        <pt x="180" y="134" on="1"/>
        <pt x="180" y="1125" on="1"/>
        <pt x="180" y="1137" on="0"/>
        <pt x="115" y="1173" on="0"/>
        <pt x="43" y="1187" on="1"/>
        <pt x="43" y="1260" on="1"/>
        <pt x="568" y="1260" on="1"/>
        <pt x="568" y="1187" on="1"/>
        <pt x="500" y="1173" on="0"/>
        <pt x="430" y="1139" on="0"/>
        <pt x="430" y="1125" on="1"/>
        <pt x="430" y="194" on="1"/>
        <pt x="430" y="176" on="0"/>
        <pt x="447" y="149" on="0"/>
        <pt x="489" y="130" on="0"/>
        <pt x="561" y="120" on="0"/>
        <pt x="616" y="120" on="1"/>
        <pt x="729" y="120" on="1"/>
        <pt x="775" y="120" on="0"/>
        <pt x="838" y="142" on="0"/>
        <pt x="886" y="191" on="0"/>
        <pt x="925" y="271" on="0"/>
        <pt x="946" y="330" on="1"/>
      </contour>
    </TTGlyph>
    <TTGlyph name="Lacute" xMin="43" yMin="0" xMax="1019" yMax="1767">
      <component glyphName="L" x="0" y="0" flags="0x0"/>
      <component glyphName="acutecomb.LP" x="1041" y="320" flags="0x0"/>
    </TTGlyph>
    <TTGlyph name="Lslash" xMin="25" yMin="0" xMax="1019" yMax="1260">
      <contour>
        <pt x="1019" y="304" on="1"/>
        <pt x="1015" y="261" on="0"/>
        <pt x="1004" y="166" on="0"/>
        <pt x="993" y="81" on="0"/>
        <pt x="982" y="15" on="0"/>
        <pt x="978" y="0" on="1"/>
        <pt x="43" y="0" on="1"/>
        <pt x="43" y="73" on="1"/>
        <pt x="111" y="87" on="0"/>
        <pt x="180" y="120" on="0"/>
        <pt x="180" y="134" on="1"/>
        <pt x="180" y="470" on="1"/>
        <pt x="52" y="406" on="1"/>
        <pt x="25" y="428" on="1"/>
        <pt x="27" y="443" on="0"/>
        <pt x="37" y="480" on="0"/>
        <pt x="50" y="517" on="0"/>
        <pt x="63" y="548" on="0"/>
        <pt x="69" y="557" on="1"/>
        <pt x="180" y="613" on="1"/>
        <pt x="180" y="1125" on="1"/>
        <pt x="180" y="1137" on="0"/>
        <pt x="115" y="1173" on="0"/>
        <pt x="43" y="1187" on="1"/>
        <pt x="43" y="1260" on="1"/>
        <pt x="568" y="1260" on="1"/>
        <pt x="568" y="1187" on="1"/>
        <pt x="500" y="1173" on="0"/>
        <pt x="430" y="1139" on="0"/>
        <pt x="430" y="1125" on="1"/>
        <pt x="430" y="738" on="1"/>
        <pt x="715" y="882" on="1"/>
        <pt x="741" y="857" on="1"/>
        <pt x="738" y="842" on="0"/>
        <pt x="728" y="807" on="0"/>
        <pt x="716" y="773" on="0"/>
        <pt x="702" y="742" on="0"/>
        <pt x="695" y="731" on="1"/>
        <pt x="430" y="597" on="1"/>
        <pt x="430" y="194" on="1"/>
        <pt x="430" y="176" on="0"/>
        <pt x="447" y="149" on="0"/>
        <pt x="489" y="130" on="0"/>
        <pt x="561" y="120" on="0"/>
        <pt x="616" y="120" on="1"/>
        <pt x="729" y="120" on="1"/>
        <pt x="775" y="120" on="0"/>
        <pt x="838" y="142" on="0"/>
        <pt x="886" y="191" on="0"/>
        <pt x="925" y="271" on="0"/>
        <pt x="946" y="330" on="1"/>
      </contour>
    </TTGlyph>
    <TTGlyph name="M" xMin="53" yMin="0" xMax="1660" yMax="1260">
      <contour>
        <pt x="1633" y="1187" on="1"/>
        <pt x="1608" y="1187" on="0"/>
        <pt x="1541" y="1173" on="0"/>
        <pt x="1505" y="1159" on="1"/>
        <pt x="1515" y="134" on="1"/>
        <pt x="1515" y="122" on="0"/>
        <pt x="1588" y="87" on="0"/>
        <pt x="1660" y="73" on="1"/>
        <pt x="1660" y="0" on="1"/>
        <pt x="1138" y="0" on="1"/>
        <pt x="1138" y="73" on="1"/>
        <pt x="1206" y="87" on="0"/>
        <pt x="1285" y="120" on="0"/>
        <pt x="1285" y="134" on="1"/>
        <pt x="1277" y="947" on="1"/>
        <pt x="853" y="0" on="1"/>
        <pt x="759" y="0" on="1"/>
        <pt x="343" y="945" on="1"/>
        <pt x="335" y="134" on="1"/>
        <pt x="335" y="122" on="0"/>
        <pt x="401" y="87" on="0"/>
        <pt x="473" y="73" on="1"/>
        <pt x="473" y="0" on="1"/>
        <pt x="53" y="0" on="1"/>
        <pt x="53" y="73" on="1"/>
        <pt x="122" y="87" on="0"/>
        <pt x="190" y="120" on="0"/>
        <pt x="190" y="134" on="1"/>
        <pt x="200" y="1152" on="1"/>
        <pt x="165" y="1172" on="0"/>
        <pt x="92" y="1187" on="0"/>
        <pt x="63" y="1187" on="1"/>
        <pt x="63" y="1260" on="1"/>
        <pt x="409" y="1260" on="1"/>
        <pt x="419" y="1260" on="0"/>
        <pt x="435" y="1254" on="0"/>
        <pt x="450" y="1236" on="0"/>
        <pt x="468" y="1203" on="0"/>
        <pt x="480" y="1176" on="1"/>
        <pt x="848" y="341" on="1"/>
        <pt x="1223" y="1176" on="1"/>
        <pt x="1236" y="1206" on="0"/>
        <pt x="1254" y="1239" on="0"/>
        <pt x="1270" y="1256" on="0"/>
        <pt x="1285" y="1260" on="0"/>
        <pt x="1294" y="1260" on="1"/>
        <pt x="1633" y="1260" on="1"/>
      </contour>
    </TTGlyph>
    <TTGlyph name="N" xMin="43" yMin="-30" xMax="1318" yMax="1260">
      <contour>
        <pt x="43" y="0" on="1"/>
        <pt x="43" y="73" on="1"/>
        <pt x="116" y="82" on="0"/>
        <pt x="180" y="120" on="0"/>
        <pt x="180" y="134" on="1"/>
        <pt x="180" y="1114" on="1"/>
        <pt x="115" y="1175" on="0"/>
        <pt x="43" y="1187" on="1"/>
        <pt x="43" y="1260" on="1"/>
        <pt x="322" y="1260" on="1"/>
        <pt x="337" y="1260" on="0"/>
        <pt x="356" y="1255" on="0"/>
        <pt x="376" y="1239" on="0"/>
        <pt x="399" y="1208" on="0"/>
        <pt x="418" y="1182" on="1"/>
        <pt x="1030" y="334" on="1"/>
        <pt x="1030" y="1125" on="1"/>
        <pt x="1030" y="1131" on="0"/>
        <pt x="1017" y="1148" on="0"/>
        <pt x="986" y="1165" on="0"/>
        <pt x="933" y="1181" on="0"/>
        <pt x="893" y="1187" on="1"/>
        <pt x="893" y="1260" on="1"/>
        <pt x="1318" y="1260" on="1"/>
        <pt x="1318" y="1187" on="1"/>
        <pt x="1246" y="1177" on="0"/>
        <pt x="1180" y="1139" on="0"/>
        <pt x="1180" y="1125" on="1"/>
        <pt x="1180" y="-30" on="1"/>
        <pt x="1084" y="-22" on="0"/>
        <pt x="968" y="37" on="0"/>
        <pt x="941" y="74" on="1"/>
        <pt x="330" y="920" on="1"/>
        <pt x="330" y="134" on="1"/>
        <pt x="330" y="128" on="0"/>
        <pt x="344" y="111" on="0"/>
        <pt x="377" y="94" on="0"/>
        <pt x="429" y="78" on="0"/>
        <pt x="468" y="73" on="1"/>
        <pt x="468" y="0" on="1"/>
      </contour>
    </TTGlyph>
    <TTGlyph name="Nacute" xMin="43" yMin="-30" xMax="1318" yMax="1767">
      <component glyphName="N" x="0" y="0" flags="0x0"/>
      <component glyphName="acutecomb.LP" x="1223" y="320" flags="0x0"/>
    </TTGlyph>
    <TTGlyph name="Ncaron" xMin="43" yMin="-30" xMax="1318" yMax="1775">
      <component glyphName="N" x="0" y="0" flags="0x0"/>
      <component glyphName="uni030C.LP" x="1194" y="320" flags="0x0"/>
    </TTGlyph>
    <TTGlyph name="Ntilde" xMin="43" yMin="-30" xMax="1318" yMax="1687">
      <component glyphName="N" x="0" y="0" flags="0x0"/>
      <component glyphName="tildecomb.LP" x="1218" y="320" flags="0x0"/>
    </TTGlyph>
    <TTGlyph name="O" xMin="55" yMin="-30" xMax="1198" yMax="1290">
      <contour>
        <pt x="946" y="629" on="1"/>
        <pt x="946" y="732" on="0"/>
        <pt x="897" y="924" on="0"/>
        <pt x="807" y="1072" on="0"/>
        <pt x="681" y="1160" on="0"/>
        <pt x="604" y="1160" on="1"/>
        <pt x="532" y="1160" on="0"/>
        <pt x="421" y="1089" on="0"/>
        <pt x="346" y="956" on="0"/>
        <pt x="308" y="763" on="0"/>
        <pt x="308" y="641" on="1"/>
        <pt x="308" y="529" on="0"/>
        <pt x="361" y="333" on="0"/>
        <pt x="452" y="188" on="0"/>
        <pt x="573" y="105" on="0"/>
        <pt x="642" y="105" on="1"/>
        <pt x="708" y="105" on="0"/>
        <pt x="819" y="169" on="0"/>
        <pt x="900" y="300" on="0"/>
        <pt x="946" y="497" on="0"/>
      </contour>
      <contour>
        <pt x="1198" y="647" on="1"/>
        <pt x="1198" y="556" on="0"/>
        <pt x="1154" y="386" on="0"/>
        <pt x="1075" y="235" on="0"/>
        <pt x="965" y="110" on="0"/>
        <pt x="831" y="20" on="0"/>
        <pt x="679" y="-30" on="0"/>
        <pt x="598" y="-30" on="1"/>
        <pt x="472" y="-30" on="0"/>
        <pt x="270" y="76" on="0"/>
        <pt x="130" y="254" on="0"/>
        <pt x="55" y="486" on="0"/>
        <pt x="55" y="612" on="1"/>
        <pt x="55" y="748" on="0"/>
        <pt x="144" y="994" on="0"/>
        <pt x="303" y="1180" on="0"/>
        <pt x="524" y="1290" on="0"/>
        <pt x="656" y="1290" on="1"/>
        <pt x="788" y="1290" on="0"/>
        <pt x="990" y="1181" on="0"/>
        <pt x="1128" y="1001" on="0"/>
        <pt x="1198" y="769" on="0"/>
      </contour>
    </TTGlyph>
    <TTGlyph name="OE" xMin="55" yMin="-30" xMax="1679" yMax="1290">
      <contour>
        <pt x="642" y="105" on="1"/>
        <pt x="679" y="105" on="0"/>
        <pt x="734" y="111" on="0"/>
        <pt x="780" y="124" on="0"/>
        <pt x="819" y="144" on="0"/>
        <pt x="840" y="159" on="1"/>
        <pt x="840" y="1067" on="1"/>
        <pt x="793" y="1115" on="0"/>
        <pt x="669" y="1161" on="0"/>
        <pt x="604" y="1161" on="1"/>
        <pt x="533" y="1161" on="0"/>
        <pt x="422" y="1090" on="0"/>
        <pt x="347" y="956" on="0"/>
        <pt x="308" y="763" on="0"/>
        <pt x="308" y="641" on="1"/>
        <pt x="308" y="529" on="0"/>
        <pt x="360" y="333" on="0"/>
        <pt x="450" y="188" on="0"/>
        <pt x="572" y="105" on="0"/>
      </contour>
      <contour>
        <pt x="1679" y="304" on="1"/>
        <pt x="1675" y="261" on="0"/>
        <pt x="1665" y="166" on="0"/>
        <pt x="1653" y="81" on="0"/>
        <pt x="1642" y="15" on="0"/>
        <pt x="1638" y="0" on="1"/>
        <pt x="880" y="0" on="1"/>
        <pt x="827" y="-1" on="0"/>
        <pt x="759" y="-10" on="0"/>
        <pt x="702" y="-21" on="0"/>
        <pt x="642" y="-30" on="0"/>
        <pt x="598" y="-30" on="1"/>
        <pt x="473" y="-30" on="0"/>
        <pt x="272" y="76" on="0"/>
        <pt x="131" y="254" on="0"/>
        <pt x="55" y="486" on="0"/>
        <pt x="55" y="612" on="1"/>
        <pt x="55" y="748" on="0"/>
        <pt x="145" y="994" on="0"/>
        <pt x="306" y="1180" on="0"/>
        <pt x="526" y="1290" on="0"/>
        <pt x="656" y="1290" on="1"/>
        <pt x="696" y="1290" on="0"/>
        <pt x="754" y="1281" on="0"/>
        <pt x="805" y="1270" on="0"/>
        <pt x="856" y="1261" on="0"/>
        <pt x="889" y="1260" on="1"/>
        <pt x="1574" y="1260" on="1"/>
        <pt x="1614" y="1228" on="1"/>
        <pt x="1612" y="1202" on="0"/>
        <pt x="1604" y="1124" on="0"/>
        <pt x="1592" y="1042" on="0"/>
        <pt x="1579" y="969" on="0"/>
        <pt x="1573" y="950" on="1"/>
        <pt x="1498" y="950" on="1"/>
        <pt x="1493" y="1043" on="0"/>
        <pt x="1453" y="1140" on="0"/>
        <pt x="1416" y="1140" on="1"/>
        <pt x="1090" y="1140" on="1"/>
        <pt x="1090" y="735" on="1"/>
        <pt x="1477" y="735" on="1"/>
        <pt x="1511" y="700" on="1"/>
        <pt x="1503" y="686" on="0"/>
        <pt x="1480" y="648" on="0"/>
        <pt x="1455" y="610" on="0"/>
        <pt x="1430" y="578" on="0"/>
        <pt x="1419" y="570" on="1"/>
        <pt x="1404" y="585" on="0"/>
        <pt x="1369" y="605" on="0"/>
        <pt x="1324" y="619" on="0"/>
        <pt x="1263" y="625" on="0"/>
        <pt x="1221" y="625" on="1"/>
        <pt x="1090" y="625" on="1"/>
        <pt x="1090" y="184" on="1"/>
        <pt x="1090" y="169" on="0"/>
        <pt x="1101" y="146" on="0"/>
        <pt x="1141" y="129" on="0"/>
        <pt x="1218" y="120" on="0"/>
        <pt x="1284" y="120" on="1"/>
        <pt x="1383" y="120" on="1"/>
        <pt x="1429" y="120" on="0"/>
        <pt x="1494" y="142" on="0"/>
        <pt x="1544" y="191" on="0"/>
        <pt x="1585" y="271" on="0"/>
        <pt x="1606" y="330" on="1"/>
      </contour>
    </TTGlyph>
    <TTGlyph name="Oacute" xMin="55" yMin="-30" xMax="1198" yMax="1767">
      <component glyphName="O" x="0" y="0" flags="0x0"/>
      <component glyphName="acutecomb.LP" x="1181" y="320" flags="0x0"/>
    </TTGlyph>
    <TTGlyph name="Obreve" xMin="55" yMin="-30" xMax="1198" yMax="1755">
      <component glyphName="O" x="0" y="0" flags="0x0"/>
      <component glyphName="uni0306" x="1153" y="320" flags="0x0"/>
    </TTGlyph>
    <TTGlyph name="Ocircumflex" xMin="55" yMin="-30" xMax="1198" yMax="1744">
      <component glyphName="O" x="0" y="0" flags="0x0"/>
      <component glyphName="uni0302.LP" x="1152" y="320" flags="0x0"/>
    </TTGlyph>
    <TTGlyph name="Odieresis" xMin="55" yMin="-30" xMax="1198" yMax="1669">
      <component glyphName="O" x="0" y="0" flags="0x0"/>
      <component glyphName="uni0308.LP" x="1153" y="320" flags="0x0"/>
    </TTGlyph>
    <TTGlyph name="Ograve" xMin="55" yMin="-30" xMax="1198" yMax="1767">
      <component glyphName="O" x="0" y="0" flags="0x0"/>
      <component glyphName="gravecomb.LP" x="1071" y="320" flags="0x0"/>
    </TTGlyph>
    <TTGlyph name="Ohorn" xMin="55" yMin="-30" xMax="1265" yMax="1533">
      <contour>
        <pt x="946" y="629" on="1"/>
        <pt x="946" y="732" on="0"/>
        <pt x="897" y="924" on="0"/>
        <pt x="807" y="1072" on="0"/>
        <pt x="681" y="1160" on="0"/>
        <pt x="604" y="1160" on="1"/>
        <pt x="532" y="1160" on="0"/>
        <pt x="421" y="1089" on="0"/>
        <pt x="346" y="956" on="0"/>
        <pt x="308" y="763" on="0"/>
        <pt x="308" y="641" on="1"/>
        <pt x="308" y="529" on="0"/>
        <pt x="361" y="333" on="0"/>
        <pt x="452" y="188" on="0"/>
        <pt x="573" y="105" on="0"/>
        <pt x="642" y="105" on="1"/>
        <pt x="708" y="105" on="0"/>
        <pt x="819" y="169" on="0"/>
        <pt x="900" y="300" on="0"/>
        <pt x="946" y="497" on="0"/>
      </contour>
      <contour>
        <pt x="1265" y="1392" on="1"/>
        <pt x="1265" y="1333" on="0"/>
        <pt x="1153" y="1190" on="0"/>
        <pt x="1034" y="1121" on="1"/>
        <pt x="1115" y="1028" on="0"/>
        <pt x="1198" y="781" on="0"/>
        <pt x="1198" y="647" on="1"/>
        <pt x="1198" y="556" on="0"/>
        <pt x="1154" y="386" on="0"/>
        <pt x="1075" y="235" on="0"/>
        <pt x="965" y="110" on="0"/>
        <pt x="831" y="20" on="0"/>
        <pt x="679" y="-30" on="0"/>
        <pt x="598" y="-30" on="1"/>
        <pt x="472" y="-30" on="0"/>
        <pt x="270" y="76" on="0"/>
        <pt x="130" y="254" on="0"/>
        <pt x="55" y="486" on="0"/>
        <pt x="55" y="612" on="1"/>
        <pt x="55" y="748" on="0"/>
        <pt x="144" y="994" on="0"/>
        <pt x="303" y="1180" on="0"/>
        <pt x="524" y="1290" on="0"/>
        <pt x="656" y="1290" on="1"/>
        <pt x="742" y="1290" on="0"/>
        <pt x="887" y="1242" on="0"/>
        <pt x="947" y="1200" on="1"/>
        <pt x="980" y="1231" on="0"/>
        <pt x="1003" y="1289" on="0"/>
        <pt x="1003" y="1311" on="1"/>
        <pt x="1003" y="1340" on="0"/>
        <pt x="966" y="1392" on="0"/>
        <pt x="938" y="1415" on="1"/>
        <pt x="1198" y="1533" on="1"/>
        <pt x="1226" y="1511" on="0"/>
        <pt x="1265" y="1434" on="0"/>
      </contour>
    </TTGlyph>
    <TTGlyph name="Ohungarumlaut" xMin="55" yMin="-30" xMax="1198" yMax="1824">
      <component glyphName="O" x="0" y="0" flags="0x0"/>
      <component glyphName="uni030B" x="1138" y="320" flags="0x0"/>
    </TTGlyph>
    <TTGlyph name="Omacron" xMin="55" yMin="-30" xMax="1198" yMax="1618">
      <component glyphName="O" x="0" y="0" flags="0x0"/>
      <component glyphName="uni0304.LP" x="1163" y="320" flags="0x0"/>
    </TTGlyph>
    <TTGlyph name="Omega" xMin="65" yMin="0" xMax="1285" yMax="1290">
      <component glyphName="uni03A9" x="0" y="0" flags="0x0"/>
    </TTGlyph>
    <TTGlyph name="Oslash" xMin="55" yMin="-53" xMax="1198" yMax="1313">
      <contour>
        <pt x="946" y="629" on="1"/>
        <pt x="946" y="697" on="0"/>
        <pt x="924" y="826" on="0"/>
        <pt x="904" y="885" on="1"/>
        <pt x="427" y="230" on="1"/>
        <pt x="471" y="171" on="0"/>
        <pt x="580" y="105" on="0"/>
        <pt x="642" y="105" on="1"/>
        <pt x="708" y="105" on="0"/>
        <pt x="819" y="169" on="0"/>
        <pt x="900" y="300" on="0"/>
        <pt x="946" y="497" on="0"/>
      </contour>
      <contour>
        <pt x="308" y="641" on="1"/>
        <pt x="308" y="569" on="0"/>
        <pt x="331" y="436" on="0"/>
        <pt x="351" y="378" on="1"/>
        <pt x="828" y="1033" on="1"/>
        <pt x="784" y="1092" on="0"/>
        <pt x="671" y="1160" on="0"/>
        <pt x="604" y="1160" on="1"/>
        <pt x="532" y="1160" on="0"/>
        <pt x="421" y="1089" on="0"/>
        <pt x="346" y="956" on="0"/>
        <pt x="308" y="763" on="0"/>
      </contour>
      <contour>
        <pt x="1056" y="1094" on="1"/>
        <pt x="1126" y="1003" on="0"/>
        <pt x="1198" y="771" on="0"/>
        <pt x="1198" y="647" on="1"/>
        <pt x="1198" y="556" on="0"/>
        <pt x="1154" y="386" on="0"/>
        <pt x="1075" y="235" on="0"/>
        <pt x="965" y="110" on="0"/>
        <pt x="831" y="20" on="0"/>
        <pt x="679" y="-30" on="0"/>
        <pt x="598" y="-30" on="1"/>
        <pt x="513" y="-30" on="0"/>
        <pt x="366" y="18" on="0"/>
        <pt x="306" y="63" on="1"/>
        <pt x="259" y="-2" on="1"/>
        <pt x="250" y="-10" on="0"/>
        <pt x="206" y="-26" on="0"/>
        <pt x="156" y="-41" on="0"/>
        <pt x="108" y="-51" on="0"/>
        <pt x="96" y="-53" on="1"/>
        <pt x="64" y="-16" on="1"/>
        <pt x="198" y="168" on="1"/>
        <pt x="129" y="257" on="0"/>
        <pt x="55" y="486" on="0"/>
        <pt x="55" y="612" on="1"/>
        <pt x="55" y="748" on="0"/>
        <pt x="144" y="994" on="0"/>
        <pt x="303" y="1180" on="0"/>
        <pt x="524" y="1290" on="0"/>
        <pt x="656" y="1290" on="1"/>
        <pt x="743" y="1290" on="0"/>
        <pt x="888" y="1242" on="0"/>
        <pt x="948" y="1199" on="1"/>
        <pt x="996" y="1264" on="1"/>
        <pt x="1010" y="1272" on="0"/>
        <pt x="1052" y="1288" on="0"/>
        <pt x="1098" y="1302" on="0"/>
        <pt x="1142" y="1311" on="0"/>
        <pt x="1157" y="1313" on="1"/>
        <pt x="1189" y="1276" on="1"/>
      </contour>
    </TTGlyph>
    <TTGlyph name="Oslashacute" xMin="55" yMin="-53" xMax="1198" yMax="1767">
      <component glyphName="Oslash" x="0" y="0" flags="0x0"/>
      <component glyphName="acutecomb.LP" x="1170" y="320" flags="0x0"/>
    </TTGlyph>
    <TTGlyph name="Otilde" xMin="55" yMin="-30" xMax="1198" yMax="1687">
      <component glyphName="O" x="0" y="0" flags="0x0"/>
      <component glyphName="tildecomb.LP" x="1176" y="320" flags="0x0"/>
    </TTGlyph>
    <TTGlyph name="P" xMin="30" yMin="0" xMax="1087" yMax="1290">
      <contour>
        <pt x="43" y="0" on="1"/>
        <pt x="43" y="73" on="1"/>
        <pt x="111" y="87" on="0"/>
        <pt x="180" y="120" on="0"/>
        <pt x="180" y="134" on="1"/>
        <pt x="180" y="1158" on="1"/>
        <pt x="142" y="1153" on="0"/>
        <pt x="73" y="1143" on="0"/>
        <pt x="43" y="1138" on="1"/>
        <pt x="30" y="1230" on="1"/>
        <pt x="84" y="1243" on="0"/>
        <pt x="216" y="1265" on="0"/>
        <pt x="359" y="1281" on="0"/>
        <pt x="504" y="1290" on="0"/>
        <pt x="570" y="1290" on="1"/>
        <pt x="686" y="1290" on="0"/>
        <pt x="877" y="1244" on="0"/>
        <pt x="1013" y="1154" on="0"/>
        <pt x="1087" y="1022" on="0"/>
        <pt x="1087" y="936" on="1"/>
        <pt x="1087" y="867" on="0"/>
        <pt x="1049" y="751" on="0"/>
        <pt x="984" y="659" on="0"/>
        <pt x="899" y="589" on="0"/>
        <pt x="804" y="543" on="0"/>
        <pt x="707" y="520" on="0"/>
        <pt x="663" y="520" on="1"/>
        <pt x="617" y="520" on="0"/>
        <pt x="529" y="535" on="0"/>
        <pt x="495" y="550" on="1"/>
        <pt x="464" y="655" on="1"/>
        <pt x="505" y="636" on="0"/>
        <pt x="568" y="625" on="0"/>
        <pt x="603" y="625" on="1"/>
        <pt x="646" y="625" on="0"/>
        <pt x="730" y="656" on="0"/>
        <pt x="795" y="722" on="0"/>
        <pt x="835" y="824" on="0"/>
        <pt x="835" y="895" on="1"/>
        <pt x="835" y="966" on="0"/>
        <pt x="788" y="1074" on="0"/>
        <pt x="703" y="1147" on="0"/>
        <pt x="585" y="1184" on="0"/>
        <pt x="513" y="1184" on="1"/>
        <pt x="493" y="1184" on="0"/>
        <pt x="452" y="1183" on="0"/>
        <pt x="430" y="1182" on="1"/>
        <pt x="430" y="134" on="1"/>
        <pt x="430" y="128" on="0"/>
        <pt x="443" y="114" on="0"/>
        <pt x="480" y="98" on="0"/>
        <pt x="546" y="82" on="0"/>
        <pt x="598" y="73" on="1"/>
        <pt x="598" y="0" on="1"/>
      </contour>
    </TTGlyph>
    <TTGlyph name="Pi" xMin="42" yMin="0" xMax="1289" yMax="1260">
      <contour>
        <pt x="42" y="0" on="1"/>
        <pt x="42" y="73" on="1"/>
        <pt x="110" y="87" on="0"/>
        <pt x="180" y="120" on="0"/>
        <pt x="180" y="134" on="1"/>
        <pt x="180" y="1125" on="1"/>
        <pt x="180" y="1137" on="0"/>
        <pt x="114" y="1173" on="0"/>
        <pt x="42" y="1187" on="1"/>
        <pt x="42" y="1260" on="1"/>
        <pt x="1289" y="1260" on="1"/>
        <pt x="1289" y="1187" on="1"/>
        <pt x="1220" y="1173" on="0"/>
        <pt x="1150" y="1139" on="0"/>
        <pt x="1150" y="1125" on="1"/>
        <pt x="1150" y="134" on="1"/>
        <pt x="1150" y="122" on="0"/>
        <pt x="1216" y="87" on="0"/>
        <pt x="1289" y="73" on="1"/>
        <pt x="1289" y="0" on="1"/>
        <pt x="763" y="0" on="1"/>
        <pt x="763" y="73" on="1"/>
        <pt x="831" y="87" on="0"/>
        <pt x="900" y="120" on="0"/>
        <pt x="900" y="134" on="1"/>
        <pt x="900" y="1077" on="1"/>
        <pt x="900" y="1089" on="0"/>
        <pt x="878" y="1113" on="0"/>
        <pt x="836" y="1133" on="0"/>
        <pt x="774" y="1146" on="0"/>
        <pt x="733" y="1146" on="1"/>
        <pt x="582" y="1146" on="1"/>
        <pt x="543" y="1145" on="0"/>
        <pt x="486" y="1132" on="0"/>
        <pt x="449" y="1113" on="0"/>
        <pt x="430" y="1089" on="0"/>
        <pt x="430" y="1077" on="1"/>
        <pt x="430" y="134" on="1"/>
        <pt x="430" y="122" on="0"/>
        <pt x="495" y="87" on="0"/>
        <pt x="568" y="73" on="1"/>
        <pt x="568" y="0" on="1"/>
      </contour>
    </TTGlyph>
    <TTGlyph name="Q" xMin="55" yMin="-328" xMax="1417" yMax="1290">
      <contour>
        <pt x="946" y="629" on="1"/>
        <pt x="946" y="732" on="0"/>
        <pt x="897" y="924" on="0"/>
        <pt x="807" y="1072" on="0"/>
        <pt x="681" y="1160" on="0"/>
        <pt x="604" y="1160" on="1"/>
        <pt x="532" y="1160" on="0"/>
        <pt x="421" y="1089" on="0"/>
        <pt x="346" y="956" on="0"/>
        <pt x="308" y="763" on="0"/>
        <pt x="308" y="641" on="1"/>
        <pt x="308" y="529" on="0"/>
        <pt x="361" y="333" on="0"/>
        <pt x="452" y="188" on="0"/>
        <pt x="573" y="105" on="0"/>
        <pt x="642" y="105" on="1"/>
        <pt x="708" y="105" on="0"/>
        <pt x="819" y="169" on="0"/>
        <pt x="900" y="300" on="0"/>
        <pt x="946" y="497" on="0"/>
      </contour>
      <contour>
        <pt x="1417" y="-125" on="1"/>
        <pt x="1393" y="-169" on="0"/>
        <pt x="1338" y="-243" on="0"/>
        <pt x="1284" y="-297" on="0"/>
        <pt x="1237" y="-328" on="0"/>
        <pt x="1222" y="-328" on="1"/>
        <pt x="1175" y="-328" on="0"/>
        <pt x="1082" y="-297" on="0"/>
        <pt x="987" y="-246" on="0"/>
        <pt x="893" y="-181" on="0"/>
        <pt x="798" y="-114" on="0"/>
        <pt x="703" y="-50" on="0"/>
        <pt x="656" y="-26" on="1"/>
        <pt x="642" y="-28" on="0"/>
        <pt x="612" y="-30" on="0"/>
        <pt x="598" y="-30" on="1"/>
        <pt x="474" y="-30" on="0"/>
        <pt x="274" y="75" on="0"/>
        <pt x="132" y="252" on="0"/>
        <pt x="55" y="484" on="0"/>
        <pt x="55" y="612" on="1"/>
        <pt x="55" y="748" on="0"/>
        <pt x="144" y="994" on="0"/>
        <pt x="303" y="1180" on="0"/>
        <pt x="524" y="1290" on="0"/>
        <pt x="656" y="1290" on="1"/>
        <pt x="788" y="1290" on="0"/>
        <pt x="990" y="1181" on="0"/>
        <pt x="1128" y="1001" on="0"/>
        <pt x="1198" y="769" on="0"/>
        <pt x="1198" y="647" on="1"/>
        <pt x="1198" y="546" on="0"/>
        <pt x="1144" y="356" on="0"/>
        <pt x="1046" y="194" on="0"/>
        <pt x="912" y="66" on="0"/>
        <pt x="832" y="26" on="1"/>
        <pt x="888" y="6" on="0"/>
        <pt x="992" y="-48" on="0"/>
        <pt x="1090" y="-96" on="0"/>
        <pt x="1183" y="-130" on="0"/>
        <pt x="1228" y="-130" on="1"/>
        <pt x="1240" y="-130" on="0"/>
        <pt x="1265" y="-125" on="0"/>
        <pt x="1296" y="-110" on="0"/>
        <pt x="1338" y="-82" on="0"/>
        <pt x="1368" y="-60" on="1"/>
      </contour>
    </TTGlyph>
    <TTGlyph name="R" xMin="30" yMin="-14" xMax="1244" yMax="1290">
      <contour>
        <pt x="43" y="0" on="1"/>
        <pt x="43" y="73" on="1"/>
        <pt x="111" y="87" on="0"/>
        <pt x="180" y="120" on="0"/>
        <pt x="180" y="134" on="1"/>
        <pt x="180" y="1157" on="1"/>
        <pt x="144" y="1152" on="0"/>
        <pt x="75" y="1143" on="0"/>
        <pt x="43" y="1138" on="1"/>
        <pt x="30" y="1230" on="1"/>
        <pt x="136" y="1253" on="0"/>
        <pt x="385" y="1290" on="0"/>
        <pt x="529" y="1290" on="1"/>
        <pt x="665" y="1290" on="0"/>
        <pt x="856" y="1244" on="0"/>
        <pt x="977" y="1162" on="0"/>
        <pt x="1032" y="1051" on="0"/>
        <pt x="1032" y="987" on="1"/>
        <pt x="1032" y="918" on="0"/>
        <pt x="991" y="803" on="0"/>
        <pt x="918" y="710" on="0"/>
        <pt x="815" y="641" on="0"/>
        <pt x="753" y="620" on="1"/>
        <pt x="1068" y="184" on="1"/>
        <pt x="1084" y="163" on="0"/>
        <pt x="1113" y="137" on="0"/>
        <pt x="1148" y="124" on="0"/>
        <pt x="1195" y="122" on="0"/>
        <pt x="1229" y="125" on="1"/>
        <pt x="1244" y="52" on="1"/>
        <pt x="1211" y="41" on="0"/>
        <pt x="1129" y="18" on="0"/>
        <pt x="1048" y="-2" on="0"/>
        <pt x="979" y="-14" on="0"/>
        <pt x="960" y="-14" on="1"/>
        <pt x="931" y="-14" on="0"/>
        <pt x="876" y="18" on="0"/>
        <pt x="862" y="41" on="1"/>
        <pt x="575" y="586" on="1"/>
        <pt x="565" y="585" on="0"/>
        <pt x="555" y="585" on="1"/>
        <pt x="536" y="585" on="1"/>
        <pt x="510" y="585" on="0"/>
        <pt x="458" y="590" on="0"/>
        <pt x="430" y="596" on="1"/>
        <pt x="430" y="134" on="1"/>
        <pt x="430" y="122" on="0"/>
        <pt x="495" y="87" on="0"/>
        <pt x="568" y="73" on="1"/>
        <pt x="568" y="0" on="1"/>
      </contour>
      <contour>
        <pt x="485" y="1184" on="1"/>
        <pt x="472" y="1184" on="0"/>
        <pt x="444" y="1183" on="0"/>
        <pt x="430" y="1182" on="1"/>
        <pt x="430" y="706" on="1"/>
        <pt x="457" y="701" on="0"/>
        <pt x="497" y="699" on="0"/>
        <pt x="519" y="699" on="1"/>
        <pt x="654" y="699" on="0"/>
        <pt x="780" y="835" on="0"/>
        <pt x="780" y="956" on="1"/>
        <pt x="780" y="1002" on="0"/>
        <pt x="752" y="1085" on="0"/>
        <pt x="685" y="1148" on="0"/>
        <pt x="571" y="1184" on="0"/>
      </contour>
    </TTGlyph>
    <TTGlyph name="Racute" xMin="30" yMin="-14" xMax="1244" yMax="1767">
      <component glyphName="R" x="0" y="0" flags="0x0"/>
      <component glyphName="acutecomb.LP" x="1102" y="320" flags="0x0"/>
    </TTGlyph>
    <TTGlyph name="Rcaron" xMin="30" yMin="-14" xMax="1244" yMax="1775">
      <component glyphName="R" x="0" y="0" flags="0x0"/>
      <component glyphName="uni030C.LP" x="1073" y="320" flags="0x0"/>
    </TTGlyph>
    <TTGlyph name="S" xMin="102" yMin="-30" xMax="968" yMax="1290">
      <contour>
        <pt x="968" y="377" on="1"/>
        <pt x="968" y="332" on="0"/>
        <pt x="941" y="238" on="0"/>
        <pt x="887" y="147" on="0"/>
        <pt x="805" y="66" on="0"/>
        <pt x="694" y="6" on="0"/>
        <pt x="555" y="-30" on="0"/>
        <pt x="470" y="-30" on="1"/>
        <pt x="434" y="-30" on="0"/>
        <pt x="341" y="-16" on="0"/>
        <pt x="244" y="9" on="0"/>
        <pt x="151" y="45" on="0"/>
        <pt x="116" y="68" on="1"/>
        <pt x="111" y="70" on="0"/>
        <pt x="105" y="105" on="0"/>
        <pt x="102" y="158" on="0"/>
        <pt x="103" y="225" on="0"/>
        <pt x="108" y="293" on="0"/>
        <pt x="117" y="359" on="0"/>
        <pt x="124" y="384" on="1"/>
        <pt x="195" y="379" on="1"/>
        <pt x="218" y="320" on="0"/>
        <pt x="284" y="222" on="0"/>
        <pt x="366" y="152" on="0"/>
        <pt x="460" y="113" on="0"/>
        <pt x="511" y="113" on="1"/>
        <pt x="556" y="113" on="0"/>
        <pt x="640" y="139" on="0"/>
        <pt x="704" y="188" on="0"/>
        <pt x="743" y="261" on="0"/>
        <pt x="743" y="309" on="1"/>
        <pt x="743" y="370" on="0"/>
        <pt x="689" y="459" on="0"/>
        <pt x="600" y="528" on="0"/>
        <pt x="487" y="584" on="0"/>
        <pt x="368" y="639" on="0"/>
        <pt x="255" y="700" on="0"/>
        <pt x="166" y="781" on="0"/>
        <pt x="112" y="887" on="0"/>
        <pt x="112" y="960" on="1"/>
        <pt x="112" y="1007" on="0"/>
        <pt x="165" y="1122" on="0"/>
        <pt x="276" y="1222" on="0"/>
        <pt x="450" y="1290" on="0"/>
        <pt x="571" y="1290" on="1"/>
        <pt x="625" y="1290" on="0"/>
        <pt x="729" y="1276" on="0"/>
        <pt x="819" y="1252" on="0"/>
        <pt x="888" y="1218" on="0"/>
        <pt x="906" y="1198" on="1"/>
        <pt x="911" y="1194" on="0"/>
        <pt x="906" y="1166" on="0"/>
        <pt x="893" y="1128" on="0"/>
        <pt x="872" y="1084" on="0"/>
        <pt x="850" y="1044" on="0"/>
        <pt x="828" y="1012" on="0"/>
        <pt x="820" y="1005" on="1"/>
        <pt x="754" y="1011" on="1"/>
        <pt x="732" y="1058" on="0"/>
        <pt x="675" y="1121" on="0"/>
        <pt x="612" y="1159" on="0"/>
        <pt x="548" y="1175" on="0"/>
        <pt x="520" y="1175" on="1"/>
        <pt x="470" y="1175" on="0"/>
        <pt x="399" y="1149" on="0"/>
        <pt x="353" y="1105" on="0"/>
        <pt x="332" y="1050" on="0"/>
        <pt x="332" y="1022" on="1"/>
        <pt x="332" y="975" on="0"/>
        <pt x="387" y="902" on="0"/>
        <pt x="476" y="839" on="0"/>
        <pt x="590" y="783" on="0"/>
        <pt x="710" y="723" on="0"/>
        <pt x="824" y="653" on="0"/>
        <pt x="913" y="565" on="0"/>
        <pt x="968" y="451" on="0"/>
      </contour>
    </TTGlyph>
    <TTGlyph name="Sacute" xMin="102" yMin="-30" xMax="968" yMax="1767">
      <component glyphName="S" x="0" y="0" flags="0x0"/>
      <component glyphName="acutecomb.LP" x="1078" y="320" flags="0x0"/>
    </TTGlyph>
    <TTGlyph name="Scaron" xMin="102" yMin="-30" xMax="968" yMax="1775">
      <component glyphName="S" x="0" y="0" flags="0x0"/>
      <component glyphName="uni030C.LP" x="1049" y="320" flags="0x0"/>
    </TTGlyph>
    <TTGlyph name="Scircumflex" xMin="102" yMin="-30" xMax="968" yMax="1744">
      <component glyphName="S" x="0" y="0" flags="0x0"/>
      <component glyphName="uni0302.LP" x="1049" y="320" flags="0x0"/>
    </TTGlyph>
    <TTGlyph name="T" xMin="3" yMin="0" xMax="1151" yMax="1260">
      <contour>
        <pt x="300" y="0" on="1"/>
        <pt x="300" y="73" on="1"/>
        <pt x="346" y="82" on="0"/>
        <pt x="406" y="102" on="0"/>
        <pt x="442" y="121" on="0"/>
        <pt x="456" y="138" on="0"/>
        <pt x="456" y="145" on="1"/>
        <pt x="456" y="1140" on="1"/>
        <pt x="202" y="1140" on="1"/>
        <pt x="187" y="1140" on="0"/>
        <pt x="160" y="1119" on="0"/>
        <pt x="132" y="1069" on="0"/>
        <pt x="98" y="989" on="0"/>
        <pt x="76" y="931" on="1"/>
        <pt x="3" y="958" on="1"/>
        <pt x="5" y="987" on="0"/>
        <pt x="14" y="1069" on="0"/>
        <pt x="26" y="1155" on="0"/>
        <pt x="38" y="1234" on="0"/>
        <pt x="43" y="1260" on="1"/>
        <pt x="1113" y="1260" on="1"/>
        <pt x="1151" y="1228" on="1"/>
        <pt x="1150" y="1202" on="0"/>
        <pt x="1143" y="1130" on="0"/>
        <pt x="1132" y="1050" on="0"/>
        <pt x="1119" y="971" on="0"/>
        <pt x="1113" y="940" on="1"/>
        <pt x="1038" y="940" on="1"/>
        <pt x="1028" y="986" on="0"/>
        <pt x="1015" y="1061" on="0"/>
        <pt x="999" y="1112" on="0"/>
        <pt x="974" y="1140" on="0"/>
        <pt x="953" y="1140" on="1"/>
        <pt x="706" y="1140" on="1"/>
        <pt x="706" y="145" on="1"/>
        <pt x="706" y="139" on="0"/>
        <pt x="720" y="122" on="0"/>
        <pt x="756" y="102" on="0"/>
        <pt x="817" y="82" on="0"/>
        <pt x="863" y="73" on="1"/>
        <pt x="863" y="0" on="1"/>
      </contour>
    </TTGlyph>
    <TTGlyph name="Tcaron" xMin="3" yMin="0" xMax="1151" yMax="1775">
      <component glyphName="T" x="0" y="0" flags="0x0"/>
      <component glyphName="uni030C.LP" x="1090" y="320" flags="0x0"/>
    </TTGlyph>
    <TTGlyph name="Thorn" xMin="42" yMin="0" xMax="1087" yMax="1260">
      <contour>
        <pt x="42" y="0" on="1"/>
        <pt x="42" y="73" on="1"/>
        <pt x="110" y="87" on="0"/>
        <pt x="180" y="120" on="0"/>
        <pt x="180" y="134" on="1"/>
        <pt x="180" y="1125" on="1"/>
        <pt x="180" y="1137" on="0"/>
        <pt x="114" y="1173" on="0"/>
        <pt x="42" y="1187" on="1"/>
        <pt x="42" y="1260" on="1"/>
        <pt x="598" y="1260" on="1"/>
        <pt x="598" y="1187" on="1"/>
        <pt x="547" y="1178" on="0"/>
        <pt x="481" y="1162" on="0"/>
        <pt x="444" y="1147" on="0"/>
        <pt x="430" y="1132" on="0"/>
        <pt x="430" y="1125" on="1"/>
        <pt x="430" y="1023" on="1"/>
        <pt x="465" y="1025" on="0"/>
        <pt x="535" y="1028" on="0"/>
        <pt x="570" y="1028" on="1"/>
        <pt x="686" y="1028" on="0"/>
        <pt x="877" y="982" on="0"/>
        <pt x="1013" y="892" on="0"/>
        <pt x="1087" y="760" on="0"/>
        <pt x="1087" y="674" on="1"/>
        <pt x="1087" y="605" on="0"/>
        <pt x="1049" y="489" on="0"/>
        <pt x="984" y="397" on="0"/>
        <pt x="899" y="327" on="0"/>
        <pt x="804" y="281" on="0"/>
        <pt x="707" y="258" on="0"/>
        <pt x="663" y="258" on="1"/>
        <pt x="617" y="258" on="0"/>
        <pt x="529" y="273" on="0"/>
        <pt x="495" y="288" on="1"/>
        <pt x="464" y="392" on="1"/>
        <pt x="505" y="373" on="0"/>
        <pt x="568" y="363" on="0"/>
        <pt x="603" y="363" on="1"/>
        <pt x="646" y="363" on="0"/>
        <pt x="730" y="394" on="0"/>
        <pt x="795" y="460" on="0"/>
        <pt x="835" y="562" on="0"/>
        <pt x="835" y="633" on="1"/>
        <pt x="835" y="704" on="0"/>
        <pt x="788" y="811" on="0"/>
        <pt x="703" y="883" on="0"/>
        <pt x="585" y="920" on="0"/>
        <pt x="513" y="920" on="1"/>
        <pt x="473" y="920" on="0"/>
        <pt x="430" y="917" on="1"/>
        <pt x="430" y="134" on="1"/>
        <pt x="430" y="128" on="0"/>
        <pt x="443" y="114" on="0"/>
        <pt x="480" y="98" on="0"/>
        <pt x="546" y="82" on="0"/>
        <pt x="598" y="73" on="1"/>
        <pt x="598" y="0" on="1"/>
      </contour>
    </TTGlyph>
    <TTGlyph name="U" xMin="43" yMin="-30" xMax="1313" yMax="1260">
      <contour>
        <pt x="1313" y="1187" on="1"/>
        <pt x="1245" y="1173" on="0"/>
        <pt x="1175" y="1139" on="0"/>
        <pt x="1175" y="1125" on="1"/>
        <pt x="1175" y="524" on="1"/>
        <pt x="1175" y="393" on="0"/>
        <pt x="1102" y="187" on="0"/>
        <pt x="970" y="45" on="0"/>
        <pt x="789" y="-30" on="0"/>
        <pt x="681" y="-30" on="1"/>
        <pt x="578" y="-30" on="0"/>
        <pt x="396" y="27" on="0"/>
        <pt x="259" y="144" on="0"/>
        <pt x="180" y="322" on="0"/>
        <pt x="180" y="444" on="1"/>
        <pt x="180" y="1125" on="1"/>
        <pt x="180" y="1137" on="0"/>
        <pt x="115" y="1173" on="0"/>
        <pt x="43" y="1187" on="1"/>
        <pt x="43" y="1260" on="1"/>
        <pt x="568" y="1260" on="1"/>
        <pt x="568" y="1187" on="1"/>
        <pt x="500" y="1173" on="0"/>
        <pt x="430" y="1139" on="0"/>
        <pt x="430" y="1125" on="1"/>
        <pt x="430" y="509" on="1"/>
        <pt x="430" y="413" on="0"/>
        <pt x="464" y="266" on="0"/>
        <pt x="538" y="166" on="0"/>
        <pt x="657" y="115" on="0"/>
        <pt x="743" y="115" on="1"/>
        <pt x="814" y="115" on="0"/>
        <pt x="912" y="179" on="0"/>
        <pt x="973" y="285" on="0"/>
        <pt x="1000" y="424" on="0"/>
        <pt x="1000" y="498" on="1"/>
        <pt x="1000" y="1125" on="1"/>
        <pt x="1000" y="1137" on="0"/>
        <pt x="935" y="1173" on="0"/>
        <pt x="863" y="1187" on="1"/>
        <pt x="863" y="1260" on="1"/>
        <pt x="1313" y="1260" on="1"/>
      </contour>
    </TTGlyph>
    <TTGlyph name="Uacute" xMin="43" yMin="-30" xMax="1313" yMax="1767">
      <component glyphName="U" x="0" y="0" flags="0x0"/>
      <component glyphName="acutecomb.LP" x="1235" y="320" flags="0x0"/>
    </TTGlyph>
    <TTGlyph name="Ubreve" xMin="43" yMin="-30" xMax="1313" yMax="1755">
      <component glyphName="U" x="0" y="0" flags="0x0"/>
      <component glyphName="uni0306" x="1207" y="320" flags="0x0"/>
    </TTGlyph>
    <TTGlyph name="Ucircumflex" xMin="43" yMin="-30" xMax="1313" yMax="1744">
      <component glyphName="U" x="0" y="0" flags="0x0"/>
      <component glyphName="uni0302.LP" x="1206" y="320" flags="0x0"/>
    </TTGlyph>
    <TTGlyph name="Udieresis" xMin="43" yMin="-30" xMax="1313" yMax="1669">
      <component glyphName="U" x="0" y="0" flags="0x0"/>
      <component glyphName="uni0308.LP" x="1207" y="320" flags="0x0"/>
    </TTGlyph>
    <TTGlyph name="Ugrave" xMin="43" yMin="-30" xMax="1313" yMax="1767">
      <component glyphName="U" x="0" y="0" flags="0x0"/>
      <component glyphName="gravecomb.LP" x="1125" y="320" flags="0x0"/>
    </TTGlyph>
    <TTGlyph name="Uhorn" xMin="43" yMin="-30" xMax="1498" yMax="1533">
      <contour>
        <pt x="1498" y="1392" on="1"/>
        <pt x="1498" y="1357" on="0"/>
        <pt x="1460" y="1278" on="0"/>
        <pt x="1380" y="1196" on="0"/>
        <pt x="1259" y="1113" on="0"/>
        <pt x="1175" y="1074" on="1"/>
        <pt x="1175" y="524" on="1"/>
        <pt x="1175" y="393" on="0"/>
        <pt x="1102" y="187" on="0"/>
        <pt x="970" y="45" on="0"/>
        <pt x="789" y="-30" on="0"/>
        <pt x="681" y="-30" on="1"/>
        <pt x="578" y="-30" on="0"/>
        <pt x="396" y="27" on="0"/>
        <pt x="259" y="144" on="0"/>
        <pt x="180" y="322" on="0"/>
        <pt x="180" y="444" on="1"/>
        <pt x="180" y="1125" on="1"/>
        <pt x="180" y="1137" on="0"/>
        <pt x="115" y="1173" on="0"/>
        <pt x="43" y="1187" on="1"/>
        <pt x="43" y="1260" on="1"/>
        <pt x="568" y="1260" on="1"/>
        <pt x="568" y="1187" on="1"/>
        <pt x="500" y="1173" on="0"/>
        <pt x="430" y="1139" on="0"/>
        <pt x="430" y="1125" on="1"/>
        <pt x="430" y="509" on="1"/>
        <pt x="430" y="413" on="0"/>
        <pt x="464" y="266" on="0"/>
        <pt x="538" y="166" on="0"/>
        <pt x="657" y="115" on="0"/>
        <pt x="743" y="115" on="1"/>
        <pt x="814" y="115" on="0"/>
        <pt x="912" y="179" on="0"/>
        <pt x="973" y="285" on="0"/>
        <pt x="1000" y="424" on="0"/>
        <pt x="1000" y="498" on="1"/>
        <pt x="1000" y="1125" on="1"/>
        <pt x="1000" y="1137" on="0"/>
        <pt x="935" y="1173" on="0"/>
        <pt x="863" y="1187" on="1"/>
        <pt x="863" y="1260" on="1"/>
        <pt x="1224" y="1260" on="1"/>
        <pt x="1231" y="1274" on="0"/>
        <pt x="1236" y="1300" on="0"/>
        <pt x="1236" y="1311" on="1"/>
        <pt x="1236" y="1340" on="0"/>
        <pt x="1198" y="1392" on="0"/>
        <pt x="1170" y="1415" on="1"/>
        <pt x="1431" y="1533" on="1"/>
        <pt x="1459" y="1511" on="0"/>
        <pt x="1498" y="1434" on="0"/>
      </contour>
    </TTGlyph>
    <TTGlyph name="Uhungarumlaut" xMin="43" yMin="-30" xMax="1313" yMax="1824">
      <component glyphName="U" x="0" y="0" flags="0x0"/>
      <component glyphName="uni030B" x="1192" y="320" flags="0x0"/>
    </TTGlyph>
    <TTGlyph name="Umacron" xMin="43" yMin="-30" xMax="1313" yMax="1618">
      <component glyphName="U" x="0" y="0" flags="0x0"/>
      <component glyphName="uni0304.LP" x="1217" y="320" flags="0x0"/>
    </TTGlyph>
    <TTGlyph name="Uring" xMin="43" yMin="-30" xMax="1313" yMax="1783">
      <component glyphName="U" x="0" y="0" flags="0x0"/>
      <component glyphName="uni030A" x="1207" y="320" flags="0x0"/>
    </TTGlyph>
    <TTGlyph name="Utilde" xMin="43" yMin="-30" xMax="1313" yMax="1687">
      <component glyphName="U" x="0" y="0" flags="0x0"/>
      <component glyphName="tildecomb.LP" x="1230" y="320" flags="0x0"/>
    </TTGlyph>
    <TTGlyph name="V" xMin="13" yMin="-30" xMax="1328" yMax="1260">
      <contour>
        <pt x="1328" y="1187" on="1"/>
        <pt x="1260" y="1174" on="0"/>
        <pt x="1183" y="1149" on="0"/>
        <pt x="1173" y="1121" on="1"/>
        <pt x="797" y="82" on="1"/>
        <pt x="789" y="60" on="0"/>
        <pt x="744" y="24" on="0"/>
        <pt x="687" y="-5" on="0"/>
        <pt x="626" y="-24" on="0"/>
        <pt x="602" y="-30" on="1"/>
        <pt x="147" y="1121" on="1"/>
        <pt x="136" y="1147" on="0"/>
        <pt x="76" y="1179" on="0"/>
        <pt x="13" y="1187" on="1"/>
        <pt x="13" y="1260" on="1"/>
        <pt x="523" y="1260" on="1"/>
        <pt x="523" y="1187" on="1"/>
        <pt x="443" y="1181" on="0"/>
        <pt x="391" y="1152" on="0"/>
        <pt x="402" y="1123" on="1"/>
        <pt x="727" y="286" on="1"/>
        <pt x="1024" y="1121" on="1"/>
        <pt x="1029" y="1136" on="0"/>
        <pt x="1022" y="1156" on="0"/>
        <pt x="992" y="1171" on="0"/>
        <pt x="938" y="1182" on="0"/>
        <pt x="897" y="1187" on="1"/>
        <pt x="897" y="1260" on="1"/>
        <pt x="1328" y="1260" on="1"/>
      </contour>
    </TTGlyph>
    <TTGlyph name="W" xMin="20" yMin="-30" xMax="1732" yMax="1260">
      <contour>
        <pt x="1732" y="1187" on="1"/>
        <pt x="1688" y="1178" on="0"/>
        <pt x="1630" y="1162" on="0"/>
        <pt x="1596" y="1147" on="0"/>
        <pt x="1581" y="1133" on="0"/>
        <pt x="1580" y="1125" on="1"/>
        <pt x="1351" y="59" on="1"/>
        <pt x="1346" y="38" on="0"/>
        <pt x="1311" y="7" on="0"/>
        <pt x="1266" y="-14" on="0"/>
        <pt x="1220" y="-27" on="0"/>
        <pt x="1205" y="-30" on="1"/>
        <pt x="864" y="877" on="1"/>
        <pt x="577" y="59" on="1"/>
        <pt x="570" y="38" on="0"/>
        <pt x="534" y="8" on="0"/>
        <pt x="488" y="-13" on="0"/>
        <pt x="438" y="-26" on="0"/>
        <pt x="418" y="-30" on="1"/>
        <pt x="158" y="1117" on="1"/>
        <pt x="153" y="1142" on="0"/>
        <pt x="91" y="1174" on="0"/>
        <pt x="20" y="1187" on="1"/>
        <pt x="20" y="1260" on="1"/>
        <pt x="509" y="1260" on="1"/>
        <pt x="509" y="1187" on="1"/>
        <pt x="460" y="1182" on="0"/>
        <pt x="406" y="1167" on="0"/>
        <pt x="382" y="1149" on="0"/>
        <pt x="379" y="1128" on="0"/>
        <pt x="381" y="1117" on="1"/>
        <pt x="552" y="385" on="1"/>
        <pt x="844" y="1260" on="1"/>
        <pt x="944" y="1260" on="1"/>
        <pt x="1279" y="385" on="1"/>
        <pt x="1440" y="1125" on="1"/>
        <pt x="1442" y="1137" on="0"/>
        <pt x="1420" y="1155" on="0"/>
        <pt x="1378" y="1169" on="0"/>
        <pt x="1320" y="1181" on="0"/>
        <pt x="1286" y="1187" on="1"/>
        <pt x="1286" y="1260" on="1"/>
        <pt x="1732" y="1260" on="1"/>
      </contour>
    </TTGlyph>
    <TTGlyph name="Wacute" xMin="20" yMin="-30" xMax="1732" yMax="1767">
      <component glyphName="W" x="0" y="0" flags="0x0"/>
      <component glyphName="acutecomb.LP" x="1419" y="320" flags="0x0"/>
    </TTGlyph>
    <TTGlyph name="Wcircumflex" xMin="20" yMin="-30" xMax="1732" yMax="1744">
      <component glyphName="W" x="0" y="0" flags="0x0"/>
      <component glyphName="uni0302.LP" x="1390" y="320" flags="0x0"/>
    </TTGlyph>
    <TTGlyph name="Wdieresis" xMin="20" yMin="-30" xMax="1732" yMax="1669">
      <component glyphName="W" x="0" y="0" flags="0x0"/>
      <component glyphName="uni0308.LP" x="1391" y="320" flags="0x0"/>
    </TTGlyph>
    <TTGlyph name="Wgrave" xMin="20" yMin="-30" xMax="1732" yMax="1767">
      <component glyphName="W" x="0" y="0" flags="0x0"/>
      <component glyphName="gravecomb.LP" x="1309" y="320" flags="0x0"/>
    </TTGlyph>
    <TTGlyph name="X" xMin="24" yMin="0" xMax="1267" yMax="1260">
      <contour>
        <pt x="733" y="0" on="1"/>
        <pt x="733" y="73" on="1"/>
        <pt x="777" y="77" on="0"/>
        <pt x="831" y="90" on="0"/>
        <pt x="855" y="109" on="0"/>
        <pt x="852" y="137" on="0"/>
        <pt x="838" y="157" on="1"/>
        <pt x="602" y="500" on="1"/>
        <pt x="375" y="157" on="1"/>
        <pt x="360" y="135" on="0"/>
        <pt x="353" y="106" on="0"/>
        <pt x="374" y="87" on="0"/>
        <pt x="428" y="76" on="0"/>
        <pt x="474" y="73" on="1"/>
        <pt x="474" y="0" on="1"/>
        <pt x="24" y="0" on="1"/>
        <pt x="24" y="73" on="1"/>
        <pt x="89" y="78" on="0"/>
        <pt x="179" y="117" on="0"/>
        <pt x="206" y="157" on="1"/>
        <pt x="515" y="628" on="1"/>
        <pt x="190" y="1103" on="1"/>
        <pt x="175" y="1125" on="0"/>
        <pt x="147" y="1153" on="0"/>
        <pt x="112" y="1171" on="0"/>
        <pt x="67" y="1182" on="0"/>
        <pt x="34" y="1187" on="1"/>
        <pt x="34" y="1260" on="1"/>
        <pt x="575" y="1260" on="1"/>
        <pt x="575" y="1187" on="1"/>
        <pt x="490" y="1179" on="0"/>
        <pt x="438" y="1146" on="0"/>
        <pt x="468" y="1103" on="1"/>
        <pt x="675" y="800" on="1"/>
        <pt x="866" y="1103" on="1"/>
        <pt x="880" y="1126" on="0"/>
        <pt x="885" y="1155" on="0"/>
        <pt x="863" y="1174" on="0"/>
        <pt x="810" y="1184" on="0"/>
        <pt x="765" y="1187" on="1"/>
        <pt x="765" y="1260" on="1"/>
        <pt x="1218" y="1260" on="1"/>
        <pt x="1218" y="1187" on="1"/>
        <pt x="1182" y="1183" on="0"/>
        <pt x="1125" y="1171" on="0"/>
        <pt x="1081" y="1152" on="0"/>
        <pt x="1048" y="1124" on="0"/>
        <pt x="1035" y="1103" on="1"/>
        <pt x="761" y="675" on="1"/>
        <pt x="1116" y="157" on="1"/>
        <pt x="1131" y="136" on="0"/>
        <pt x="1160" y="107" on="0"/>
        <pt x="1194" y="88" on="0"/>
        <pt x="1238" y="77" on="0"/>
        <pt x="1267" y="73" on="1"/>
        <pt x="1267" y="0" on="1"/>
      </contour>
    </TTGlyph>
    <TTGlyph name="Y" xMin="0" yMin="0" xMax="1221" yMax="1270">
      <contour>
        <pt x="345" y="0" on="1"/>
        <pt x="345" y="73" on="1"/>
        <pt x="390" y="82" on="0"/>
        <pt x="451" y="102" on="0"/>
        <pt x="487" y="121" on="0"/>
        <pt x="502" y="138" on="0"/>
        <pt x="502" y="145" on="1"/>
        <pt x="502" y="529" on="1"/>
        <pt x="466" y="609" on="0"/>
        <pt x="376" y="779" on="0"/>
        <pt x="284" y="938" on="0"/>
        <pt x="196" y="1074" on="0"/>
        <pt x="161" y="1121" on="1"/>
        <pt x="152" y="1132" on="0"/>
        <pt x="132" y="1150" on="0"/>
        <pt x="98" y="1162" on="0"/>
        <pt x="46" y="1169" on="0"/>
        <pt x="4" y="1169" on="1"/>
        <pt x="0" y="1242" on="1"/>
        <pt x="29" y="1246" on="0"/>
        <pt x="104" y="1256" on="0"/>
        <pt x="178" y="1264" on="0"/>
        <pt x="243" y="1270" on="0"/>
        <pt x="264" y="1270" on="1"/>
        <pt x="292" y="1270" on="0"/>
        <pt x="348" y="1246" on="0"/>
        <pt x="365" y="1224" on="1"/>
        <pt x="402" y="1174" on="0"/>
        <pt x="483" y="1046" on="0"/>
        <pt x="566" y="902" on="0"/>
        <pt x="645" y="751" on="0"/>
        <pt x="680" y="679" on="1"/>
        <pt x="914" y="1121" on="1"/>
        <pt x="929" y="1147" on="0"/>
        <pt x="880" y="1177" on="0"/>
        <pt x="803" y="1187" on="1"/>
        <pt x="803" y="1260" on="1"/>
        <pt x="1221" y="1260" on="1"/>
        <pt x="1221" y="1187" on="1"/>
        <pt x="1153" y="1174" on="0"/>
        <pt x="1087" y="1146" on="0"/>
        <pt x="1073" y="1121" on="1"/>
        <pt x="752" y="523" on="1"/>
        <pt x="752" y="145" on="1"/>
        <pt x="752" y="139" on="0"/>
        <pt x="766" y="122" on="0"/>
        <pt x="802" y="102" on="0"/>
        <pt x="863" y="82" on="0"/>
        <pt x="910" y="73" on="1"/>
        <pt x="910" y="0" on="1"/>
      </contour>
    </TTGlyph>
    <TTGlyph name="Yacute" xMin="0" yMin="0" xMax="1221" yMax="1767">
      <component glyphName="Y" x="0" y="0" flags="0x0"/>
      <component glyphName="acutecomb.LP" x="1170" y="320" flags="0x0"/>
    </TTGlyph>
    <TTGlyph name="Ycircumflex" xMin="0" yMin="0" xMax="1221" yMax="1744">
      <component glyphName="Y" x="0" y="0" flags="0x0"/>
      <component glyphName="uni0302.LP" x="1141" y="320" flags="0x0"/>
    </TTGlyph>
    <TTGlyph name="Ydieresis" xMin="0" yMin="0" xMax="1221" yMax="1669">
      <component glyphName="Y" x="0" y="0" flags="0x0"/>
      <component glyphName="uni0308.LP" x="1142" y="320" flags="0x0"/>
    </TTGlyph>
    <TTGlyph name="Ygrave" xMin="0" yMin="0" xMax="1221" yMax="1767">
      <component glyphName="Y" x="0" y="0" flags="0x0"/>
      <component glyphName="gravecomb.LP" x="1060" y="320" flags="0x0"/>
    </TTGlyph>
    <TTGlyph name="Z" xMin="52" yMin="0" xMax="1044" yMax="1276">
      <contour>
        <pt x="1044" y="353" on="1"/>
        <pt x="1042" y="321" on="0"/>
        <pt x="1039" y="224" on="0"/>
        <pt x="1036" y="123" on="0"/>
        <pt x="1033" y="29" on="0"/>
        <pt x="1032" y="0" on="1"/>
        <pt x="88" y="0" on="1"/>
        <pt x="52" y="53" on="1"/>
        <pt x="725" y="1130" on="1"/>
        <pt x="334" y="1130" on="1"/>
        <pt x="318" y="1130" on="0"/>
        <pt x="278" y="1096" on="0"/>
        <pt x="239" y="1034" on="0"/>
        <pt x="204" y="948" on="0"/>
        <pt x="193" y="896" on="1"/>
        <pt x="106" y="915" on="1"/>
        <pt x="143" y="1276" on="1"/>
        <pt x="170" y="1270" on="0"/>
        <pt x="215" y="1263" on="0"/>
        <pt x="258" y="1260" on="0"/>
        <pt x="281" y="1260" on="1"/>
        <pt x="1001" y="1260" on="1"/>
        <pt x="1034" y="1210" on="1"/>
        <pt x="366" y="130" on="1"/>
        <pt x="822" y="130" on="1"/>
        <pt x="843" y="130" on="0"/>
        <pt x="877" y="160" on="0"/>
        <pt x="908" y="222" on="0"/>
        <pt x="940" y="313" on="0"/>
        <pt x="959" y="375" on="1"/>
      </contour>
    </TTGlyph>
    <TTGlyph name="Zacute" xMin="52" yMin="0" xMax="1044" yMax="1767">
      <component glyphName="Z" x="0" y="0" flags="0x0"/>
      <component glyphName="acutecomb.LP" x="1122" y="320" flags="0x0"/>
    </TTGlyph>
    <TTGlyph name="Zcaron" xMin="52" yMin="0" xMax="1044" yMax="1775">
      <component glyphName="Z" x="0" y="0" flags="0x0"/>
      <component glyphName="uni030C.LP" x="1093" y="320" flags="0x0"/>
    </TTGlyph>
    <TTGlyph name="Zdotaccent" xMin="52" yMin="0" xMax="1044" yMax="1669">
      <component glyphName="Z" x="0" y="0" flags="0x0"/>
      <component glyphName="uni0307.LP" x="1094" y="320" flags="0x0"/>
    </TTGlyph>
    <TTGlyph name="a" xMin="65" yMin="-30" xMax="1016" yMax="960">
      <contour>
        <pt x="412" y="145" on="1"/>
        <pt x="431" y="145" on="0"/>
        <pt x="473" y="154" on="0"/>
        <pt x="524" y="177" on="0"/>
        <pt x="585" y="218" on="0"/>
        <pt x="623" y="250" on="1"/>
        <pt x="623" y="471" on="1"/>
        <pt x="563" y="461" on="0"/>
        <pt x="481" y="442" on="0"/>
        <pt x="425" y="422" on="0"/>
        <pt x="390" y="400" on="0"/>
        <pt x="377" y="387" on="1"/>
        <pt x="351" y="361" on="0"/>
        <pt x="319" y="301" on="0"/>
        <pt x="319" y="259" on="1"/>
        <pt x="319" y="225" on="0"/>
        <pt x="338" y="181" on="0"/>
        <pt x="367" y="155" on="0"/>
        <pt x="399" y="145" on="0"/>
      </contour>
      <contour>
        <pt x="1016" y="112" on="1"/>
        <pt x="974" y="83" on="0"/>
        <pt x="883" y="31" on="0"/>
        <pt x="802" y="-8" on="0"/>
        <pt x="735" y="-30" on="0"/>
        <pt x="717" y="-30" on="1"/>
        <pt x="680" y="-30" on="0"/>
        <pt x="629" y="54" on="0"/>
        <pt x="624" y="129" on="1"/>
        <pt x="579" y="84" on="0"/>
        <pt x="488" y="23" on="0"/>
        <pt x="403" y="-14" on="0"/>
        <pt x="325" y="-30" on="0"/>
        <pt x="293" y="-30" on="1"/>
        <pt x="251" y="-30" on="0"/>
        <pt x="170" y="-1" on="0"/>
        <pt x="105" y="56" on="0"/>
        <pt x="65" y="143" on="0"/>
        <pt x="65" y="201" on="1"/>
        <pt x="65" y="269" on="0"/>
        <pt x="114" y="364" on="0"/>
        <pt x="151" y="401" on="1"/>
        <pt x="175" y="425" on="0"/>
        <pt x="238" y="470" on="0"/>
        <pt x="343" y="512" on="0"/>
        <pt x="502" y="551" on="0"/>
        <pt x="623" y="569" on="1"/>
        <pt x="623" y="687" on="1"/>
        <pt x="623" y="718" on="0"/>
        <pt x="611" y="771" on="0"/>
        <pt x="581" y="809" on="0"/>
        <pt x="531" y="830" on="0"/>
        <pt x="493" y="830" on="1"/>
        <pt x="469" y="830" on="0"/>
        <pt x="421" y="812" on="0"/>
        <pt x="385" y="779" on="0"/>
        <pt x="364" y="732" on="0"/>
        <pt x="367" y="702" on="1"/>
        <pt x="368" y="696" on="0"/>
        <pt x="334" y="678" on="0"/>
        <pt x="282" y="659" on="0"/>
        <pt x="219" y="640" on="0"/>
        <pt x="161" y="627" on="0"/>
        <pt x="115" y="620" on="0"/>
        <pt x="107" y="622" on="1"/>
        <pt x="86" y="676" on="1"/>
        <pt x="110" y="736" on="0"/>
        <pt x="213" y="839" on="0"/>
        <pt x="351" y="916" on="0"/>
        <pt x="514" y="960" on="0"/>
        <pt x="597" y="960" on="1"/>
        <pt x="666" y="960" on="0"/>
        <pt x="766" y="924" on="0"/>
        <pt x="831" y="859" on="0"/>
        <pt x="863" y="771" on="0"/>
        <pt x="863" y="720" on="1"/>
        <pt x="863" y="238" on="1"/>
        <pt x="863" y="196" on="0"/>
        <pt x="885" y="160" on="0"/>
        <pt x="903" y="160" on="1"/>
        <pt x="910" y="160" on="0"/>
        <pt x="925" y="162" on="0"/>
        <pt x="946" y="168" on="0"/>
        <pt x="974" y="179" on="0"/>
        <pt x="994" y="187" on="1"/>
      </contour>
    </TTGlyph>
    <TTGlyph name="a.SngStory" xMin="65" yMin="-30" xMax="1093" yMax="960">
      <contour>
        <pt x="1093" y="115" on="1"/>
        <pt x="1049" y="86" on="0"/>
        <pt x="957" y="33" on="0"/>
        <pt x="875" y="-7" on="0"/>
        <pt x="811" y="-30" on="0"/>
        <pt x="796" y="-30" on="1"/>
        <pt x="756" y="-30" on="0"/>
        <pt x="711" y="45" on="0"/>
        <pt x="703" y="135" on="1"/>
        <pt x="660" y="88" on="0"/>
        <pt x="585" y="25" on="0"/>
        <pt x="515" y="-13" on="0"/>
        <pt x="444" y="-30" on="0"/>
        <pt x="405" y="-30" on="1"/>
        <pt x="342" y="-30" on="0"/>
        <pt x="220" y="31" on="0"/>
        <pt x="124" y="151" on="0"/>
        <pt x="65" y="326" on="0"/>
        <pt x="65" y="440" on="1"/>
        <pt x="65" y="499" on="0"/>
        <pt x="94" y="623" on="0"/>
        <pt x="150" y="738" on="0"/>
        <pt x="232" y="840" on="0"/>
        <pt x="337" y="916" on="0"/>
        <pt x="466" y="960" on="0"/>
        <pt x="540" y="960" on="1"/>
        <pt x="569" y="960" on="0"/>
        <pt x="621" y="951" on="0"/>
        <pt x="673" y="928" on="0"/>
        <pt x="725" y="888" on="0"/>
        <pt x="754" y="857" on="1"/>
        <pt x="794" y="876" on="0"/>
        <pt x="885" y="928" on="0"/>
        <pt x="927" y="960" on="1"/>
        <pt x="967" y="923" on="1"/>
        <pt x="958" y="889" on="0"/>
        <pt x="952" y="850" on="1"/>
        <pt x="947" y="817" on="0"/>
        <pt x="938" y="735" on="0"/>
        <pt x="938" y="693" on="1"/>
        <pt x="938" y="314" on="1"/>
        <pt x="938" y="254" on="0"/>
        <pt x="945" y="178" on="0"/>
        <pt x="955" y="169" on="1"/>
        <pt x="966" y="158" on="0"/>
        <pt x="1014" y="165" on="0"/>
        <pt x="1065" y="188" on="1"/>
        <pt x="1065" y="189" on="0"/>
        <pt x="1074" y="166" on="0"/>
        <pt x="1079" y="152" on="1"/>
        <pt x="1085" y="135" on="0"/>
      </contour>
      <contour>
        <pt x="698" y="268" on="1"/>
        <pt x="698" y="705" on="1"/>
        <pt x="674" y="761" on="0"/>
        <pt x="579" y="828" on="0"/>
        <pt x="525" y="828" on="1"/>
        <pt x="484" y="828" on="0"/>
        <pt x="405" y="796" on="0"/>
        <pt x="343" y="720" on="0"/>
        <pt x="305" y="595" on="0"/>
        <pt x="305" y="501" on="1"/>
        <pt x="305" y="416" on="0"/>
        <pt x="341" y="288" on="0"/>
        <pt x="399" y="203" on="0"/>
        <pt x="471" y="160" on="0"/>
        <pt x="507" y="160" on="1"/>
        <pt x="526" y="160" on="0"/>
        <pt x="565" y="169" on="0"/>
        <pt x="609" y="193" on="0"/>
        <pt x="663" y="235" on="0"/>
      </contour>
    </TTGlyph>
    <TTGlyph name="aacute" xMin="65" yMin="-30" xMax="1016" yMax="1512">
      <component glyphName="a" x="0" y="0" flags="0x0"/>
      <component glyphName="acutecomb" x="1056" y="0" flags="0x0"/>
    </TTGlyph>
    <TTGlyph name="aacute.SngStory" xMin="65" yMin="-30" xMax="1093" yMax="1512">
      <component glyphName="a.SngStory" x="0" y="0" flags="0x0"/>
      <component glyphName="acutecomb" x="1120" y="0" flags="0x0"/>
    </TTGlyph>
    <TTGlyph name="abreve" xMin="65" yMin="-30" xMax="1016" yMax="1435">
      <component glyphName="a" x="0" y="0" flags="0x0"/>
      <component glyphName="uni0306" x="1030" y="0" flags="0x0"/>
    </TTGlyph>
    <TTGlyph name="abreve.SngStory" xMin="65" yMin="-30" xMax="1093" yMax="1435">
      <component glyphName="a.SngStory" x="0" y="0" flags="0x0"/>
      <component glyphName="uni0306" x="1094" y="0" flags="0x0"/>
    </TTGlyph>
    <TTGlyph name="acircumflex" xMin="65" yMin="-30" xMax="1016" yMax="1494">
      <component glyphName="a" x="0" y="0" flags="0x0"/>
      <component glyphName="uni0302" x="1030" y="0" flags="0x0"/>
    </TTGlyph>
    <TTGlyph name="acircumflex.SngStory" xMin="65" yMin="-30" xMax="1093" yMax="1494">
      <component glyphName="a.SngStory" x="0" y="0" flags="0x0"/>
      <component glyphName="uni0302" x="1094" y="0" flags="0x0"/>
    </TTGlyph>
    <TTGlyph name="acute" xMin="202" yMin="1040" xMax="672" yMax="1512">
      <contour>
        <pt x="289" y="1040" on="1"/>
        <pt x="280" y="1041" on="0"/>
        <pt x="255" y="1052" on="0"/>
        <pt x="229" y="1065" on="0"/>
        <pt x="208" y="1078" on="0"/>
        <pt x="202" y="1083" on="1"/>
        <pt x="414" y="1512" on="1"/>
        <pt x="426" y="1511" on="0"/>
        <pt x="491" y="1501" on="0"/>
        <pt x="565" y="1489" on="0"/>
        <pt x="630" y="1477" on="0"/>
        <pt x="641" y="1474" on="1"/>
        <pt x="672" y="1420" on="1"/>
      </contour>
    </TTGlyph>
    <TTGlyph name="acutecomb" xMin="-688" yMin="1040" xMax="-219" yMax="1512">
      <contour>
        <pt x="-601" y="1040" on="1"/>
        <pt x="-610" y="1041" on="0"/>
        <pt x="-635" y="1052" on="0"/>
        <pt x="-661" y="1065" on="0"/>
        <pt x="-682" y="1078" on="0"/>
        <pt x="-688" y="1083" on="1"/>
        <pt x="-477" y="1512" on="1"/>
        <pt x="-465" y="1511" on="0"/>
        <pt x="-400" y="1502" on="0"/>
        <pt x="-326" y="1490" on="0"/>
        <pt x="-260" y="1477" on="0"/>
        <pt x="-249" y="1474" on="1"/>
        <pt x="-219" y="1420" on="1"/>
      </contour>
    </TTGlyph>
    <TTGlyph name="acutecomb.LP" xMin="-743" yMin="1040" xMax="-191" yMax="1447">
      <contour>
        <pt x="-675" y="1040" on="1"/>
        <pt x="-692" y="1048" on="0"/>
        <pt x="-729" y="1088" on="0"/>
        <pt x="-743" y="1107" on="1"/>
        <pt x="-378" y="1447" on="1"/>
        <pt x="-355" y="1435" on="0"/>
        <pt x="-299" y="1402" on="0"/>
        <pt x="-248" y="1371" on="0"/>
        <pt x="-208" y="1343" on="0"/>
        <pt x="-200" y="1335" on="1"/>
        <pt x="-191" y="1283" on="1"/>
      </contour>
    </TTGlyph>
    <TTGlyph name="adieresis" xMin="65" yMin="-30" xMax="1016" yMax="1389">
      <component glyphName="a" x="0" y="0" flags="0x0"/>
      <component glyphName="uni0308" x="1030" y="0" flags="0x0"/>
    </TTGlyph>
    <TTGlyph name="adieresis.SngStory" xMin="65" yMin="-30" xMax="1093" yMax="1389">
      <component glyphName="a.SngStory" x="0" y="0" flags="0x0"/>
      <component glyphName="uni0308" x="1094" y="0" flags="0x0"/>
    </TTGlyph>
    <TTGlyph name="ae" xMin="65" yMin="-30" xMax="1436" yMax="960">
      <contour>
        <pt x="1436" y="550" on="1"/>
        <pt x="1426" y="540" on="0"/>
        <pt x="1394" y="516" on="0"/>
        <pt x="1357" y="493" on="0"/>
        <pt x="1318" y="473" on="0"/>
        <pt x="1302" y="467" on="1"/>
        <pt x="858" y="467" on="1"/>
        <pt x="857" y="463" on="0"/>
        <pt x="857" y="454" on="1"/>
        <pt x="857" y="441" on="1"/>
        <pt x="857" y="394" on="0"/>
        <pt x="887" y="289" on="0"/>
        <pt x="946" y="199" on="0"/>
        <pt x="1034" y="140" on="0"/>
        <pt x="1092" y="140" on="1"/>
        <pt x="1123" y="140" on="0"/>
        <pt x="1185" y="151" on="0"/>
        <pt x="1252" y="178" on="0"/>
        <pt x="1329" y="224" on="0"/>
        <pt x="1376" y="259" on="1"/>
        <pt x="1382" y="256" on="0"/>
        <pt x="1399" y="238" on="0"/>
        <pt x="1414" y="217" on="0"/>
        <pt x="1426" y="199" on="0"/>
        <pt x="1428" y="195" on="1"/>
        <pt x="1368" y="129" on="0"/>
        <pt x="1267" y="42" on="0"/>
        <pt x="1169" y="-9" on="0"/>
        <pt x="1067" y="-30" on="0"/>
        <pt x="1006" y="-30" on="1"/>
        <pt x="963" y="-30" on="0"/>
        <pt x="871" y="-1" on="0"/>
        <pt x="784" y="53" on="0"/>
        <pt x="708" y="131" on="0"/>
        <pt x="680" y="181" on="1"/>
        <pt x="635" y="125" on="0"/>
        <pt x="537" y="45" on="0"/>
        <pt x="438" y="-6" on="0"/>
        <pt x="339" y="-30" on="0"/>
        <pt x="293" y="-30" on="1"/>
        <pt x="257" y="-30" on="0"/>
        <pt x="177" y="-6" on="0"/>
        <pt x="109" y="49" on="0"/>
        <pt x="65" y="137" on="0"/>
        <pt x="65" y="201" on="1"/>
        <pt x="65" y="260" on="0"/>
        <pt x="110" y="368" on="0"/>
        <pt x="205" y="460" on="0"/>
        <pt x="353" y="533" on="0"/>
        <pt x="456" y="558" on="1"/>
        <pt x="483" y="565" on="0"/>
        <pt x="581" y="574" on="0"/>
        <pt x="632" y="576" on="1"/>
        <pt x="632" y="655" on="1"/>
        <pt x="632" y="745" on="0"/>
        <pt x="570" y="830" on="0"/>
        <pt x="505" y="830" on="1"/>
        <pt x="479" y="830" on="0"/>
        <pt x="422" y="810" on="0"/>
        <pt x="377" y="774" on="0"/>
        <pt x="354" y="723" on="0"/>
        <pt x="363" y="691" on="1"/>
        <pt x="364" y="684" on="0"/>
        <pt x="332" y="666" on="0"/>
        <pt x="281" y="647" on="0"/>
        <pt x="218" y="629" on="0"/>
        <pt x="160" y="616" on="0"/>
        <pt x="115" y="610" on="0"/>
        <pt x="107" y="612" on="1"/>
        <pt x="86" y="663" on="1"/>
        <pt x="106" y="716" on="0"/>
        <pt x="177" y="801" on="0"/>
        <pt x="265" y="867" on="0"/>
        <pt x="365" y="914" on="0"/>
        <pt x="463" y="945" on="0"/>
        <pt x="554" y="960" on="0"/>
        <pt x="588" y="960" on="1"/>
        <pt x="663" y="960" on="0"/>
        <pt x="773" y="911" on="0"/>
        <pt x="807" y="856" on="1"/>
        <pt x="840" y="885" on="0"/>
        <pt x="910" y="925" on="0"/>
        <pt x="981" y="949" on="0"/>
        <pt x="1049" y="960" on="0"/>
        <pt x="1079" y="960" on="1"/>
        <pt x="1167" y="960" on="0"/>
        <pt x="1301" y="891" on="0"/>
        <pt x="1391" y="777" on="0"/>
        <pt x="1436" y="629" on="0"/>
      </contour>
      <contour>
        <pt x="645" y="264" on="1"/>
        <pt x="639" y="287" on="0"/>
        <pt x="632" y="338" on="0"/>
        <pt x="632" y="365" on="1"/>
        <pt x="632" y="463" on="1"/>
        <pt x="597" y="461" on="0"/>
        <pt x="536" y="458" on="0"/>
        <pt x="526" y="456" on="1"/>
        <pt x="463" y="442" on="0"/>
        <pt x="380" y="399" on="0"/>
        <pt x="332" y="347" on="0"/>
        <pt x="312" y="289" on="0"/>
        <pt x="312" y="259" on="1"/>
        <pt x="312" y="228" on="0"/>
        <pt x="331" y="184" on="0"/>
        <pt x="361" y="157" on="0"/>
        <pt x="396" y="145" on="0"/>
        <pt x="412" y="145" on="1"/>
        <pt x="435" y="145" on="0"/>
        <pt x="489" y="157" on="0"/>
        <pt x="548" y="185" on="0"/>
        <pt x="612" y="230" on="0"/>
      </contour>
      <contour>
        <pt x="1050" y="845" on="1"/>
        <pt x="1027" y="845" on="0"/>
        <pt x="971" y="828" on="0"/>
        <pt x="918" y="772" on="0"/>
        <pt x="875" y="667" on="0"/>
        <pt x="865" y="580" on="1"/>
        <pt x="1172" y="580" on="1"/>
        <pt x="1193" y="580" on="0"/>
        <pt x="1210" y="595" on="0"/>
        <pt x="1210" y="616" on="1"/>
        <pt x="1210" y="669" on="0"/>
        <pt x="1187" y="754" on="0"/>
        <pt x="1145" y="813" on="0"/>
        <pt x="1086" y="845" on="0"/>
      </contour>
    </TTGlyph>
    <TTGlyph name="aeacute" xMin="65" yMin="-30" xMax="1436" yMax="1512">
      <component glyphName="ae" x="0" y="0" flags="0x0"/>
      <component glyphName="acutecomb" x="1323" y="0" flags="0x0"/>
    </TTGlyph>
    <TTGlyph name="agrave" xMin="65" yMin="-30" xMax="1016" yMax="1512">
      <component glyphName="a" x="0" y="0" flags="0x0"/>
      <component glyphName="gravecomb" x="950" y="0" flags="0x0"/>
    </TTGlyph>
    <TTGlyph name="agrave.SngStory" xMin="65" yMin="-30" xMax="1093" yMax="1512">
      <component glyphName="a.SngStory" x="0" y="0" flags="0x0"/>
      <component glyphName="gravecomb" x="1014" y="0" flags="0x0"/>
    </TTGlyph>
    <TTGlyph name="amacron" xMin="65" yMin="-30" xMax="1016" yMax="1338">
      <component glyphName="a" x="0" y="0" flags="0x0"/>
      <component glyphName="uni0304" x="1040" y="0" flags="0x0"/>
    </TTGlyph>
    <TTGlyph name="amacron.SngStory" xMin="65" yMin="-30" xMax="1093" yMax="1338">
      <component glyphName="a.SngStory" x="0" y="0" flags="0x0"/>
      <component glyphName="uni0304" x="1104" y="0" flags="0x0"/>
    </TTGlyph>
    <TTGlyph name="ampersand" xMin="65" yMin="-30" xMax="1414" yMax="1450">
      <contour>
        <pt x="497" y="1130" on="1"/>
        <pt x="497" y="1078" on="0"/>
        <pt x="525" y="967" on="0"/>
        <pt x="551" y="908" on="1"/>
        <pt x="598" y="936" on="0"/>
        <pt x="661" y="1002" on="0"/>
        <pt x="698" y="1070" on="0"/>
        <pt x="714" y="1139" on="0"/>
        <pt x="714" y="1171" on="1"/>
        <pt x="714" y="1241" on="0"/>
        <pt x="649" y="1321" on="0"/>
        <pt x="603" y="1321" on="1"/>
        <pt x="576" y="1321" on="0"/>
        <pt x="536" y="1291" on="0"/>
        <pt x="510" y="1239" on="0"/>
        <pt x="497" y="1169" on="0"/>
      </contour>
      <contour>
        <pt x="573" y="114" on="1"/>
        <pt x="630" y="114" on="0"/>
        <pt x="735" y="148" on="0"/>
        <pt x="782" y="177" on="1"/>
        <pt x="735" y="222" on="0"/>
        <pt x="638" y="327" on="0"/>
        <pt x="544" y="443" on="0"/>
        <pt x="456" y="567" on="0"/>
        <pt x="418" y="631" on="1"/>
        <pt x="365" y="567" on="0"/>
        <pt x="325" y="442" on="0"/>
        <pt x="325" y="373" on="1"/>
        <pt x="325" y="303" on="0"/>
        <pt x="369" y="204" on="0"/>
        <pt x="440" y="142" on="0"/>
        <pt x="529" y="114" on="0"/>
      </contour>
      <contour>
        <pt x="1414" y="748" on="1"/>
        <pt x="1402" y="733" on="0"/>
        <pt x="1372" y="696" on="0"/>
        <pt x="1342" y="661" on="0"/>
        <pt x="1312" y="631" on="0"/>
        <pt x="1300" y="622" on="1"/>
        <pt x="1263" y="639" on="0"/>
        <pt x="1177" y="668" on="0"/>
        <pt x="1143" y="670" on="1"/>
        <pt x="1164" y="641" on="0"/>
        <pt x="1176" y="581" on="0"/>
        <pt x="1176" y="543" on="1"/>
        <pt x="1176" y="477" on="0"/>
        <pt x="1115" y="327" on="0"/>
        <pt x="1060" y="255" on="1"/>
        <pt x="1081" y="236" on="0"/>
        <pt x="1121" y="202" on="0"/>
        <pt x="1140" y="186" on="1"/>
        <pt x="1191" y="143" on="0"/>
        <pt x="1302" y="121" on="0"/>
        <pt x="1353" y="133" on="1"/>
        <pt x="1369" y="60" on="1"/>
        <pt x="1326" y="41" on="0"/>
        <pt x="1231" y="8" on="0"/>
        <pt x="1147" y="-16" on="0"/>
        <pt x="1085" y="-30" on="0"/>
        <pt x="1074" y="-30" on="1"/>
        <pt x="1049" y="-30" on="0"/>
        <pt x="947" y="32" on="0"/>
        <pt x="881" y="87" on="1"/>
        <pt x="802" y="33" on="0"/>
        <pt x="616" y="-30" on="0"/>
        <pt x="513" y="-30" on="1"/>
        <pt x="408" y="-30" on="0"/>
        <pt x="242" y="19" on="0"/>
        <pt x="126" y="115" on="0"/>
        <pt x="65" y="258" on="0"/>
        <pt x="65" y="352" on="1"/>
        <pt x="65" y="458" on="0"/>
        <pt x="199" y="670" on="0"/>
        <pt x="343" y="776" on="1"/>
        <pt x="310" y="852" on="0"/>
        <pt x="272" y="1001" on="0"/>
        <pt x="272" y="1073" on="1"/>
        <pt x="272" y="1154" on="0"/>
        <pt x="334" y="1292" on="0"/>
        <pt x="441" y="1393" on="0"/>
        <pt x="584" y="1450" on="0"/>
        <pt x="664" y="1450" on="1"/>
        <pt x="740" y="1450" on="0"/>
        <pt x="848" y="1409" on="0"/>
        <pt x="918" y="1341" on="0"/>
        <pt x="951" y="1252" on="0"/>
        <pt x="951" y="1204" on="1"/>
        <pt x="951" y="1152" on="0"/>
        <pt x="898" y="1044" on="0"/>
        <pt x="811" y="942" on="0"/>
        <pt x="700" y="849" on="0"/>
        <pt x="641" y="812" on="1"/>
        <pt x="610" y="792" on="1"/>
        <pt x="644" y="735" on="0"/>
        <pt x="725" y="620" on="0"/>
        <pt x="814" y="510" on="0"/>
        <pt x="907" y="405" on="0"/>
        <pt x="954" y="358" on="1"/>
        <pt x="974" y="394" on="0"/>
        <pt x="995" y="467" on="0"/>
        <pt x="995" y="502" on="1"/>
        <pt x="995" y="544" on="0"/>
        <pt x="969" y="611" on="0"/>
        <pt x="926" y="658" on="0"/>
        <pt x="871" y="683" on="0"/>
        <pt x="842" y="683" on="1"/>
        <pt x="813" y="718" on="1"/>
        <pt x="818" y="724" on="0"/>
        <pt x="840" y="746" on="0"/>
        <pt x="865" y="769" on="0"/>
        <pt x="892" y="788" on="0"/>
        <pt x="902" y="792" on="1"/>
        <pt x="1383" y="792" on="1"/>
      </contour>
    </TTGlyph>
    <TTGlyph name="approxequal" xMin="52" yMin="283" xMax="878" yMax="841">
      <contour>
        <pt x="878" y="463" on="1"/>
        <pt x="853" y="422" on="0"/>
        <pt x="791" y="357" on="0"/>
        <pt x="722" y="311" on="0"/>
        <pt x="649" y="286" on="0"/>
        <pt x="614" y="286" on="1"/>
        <pt x="572" y="286" on="0"/>
        <pt x="489" y="317" on="0"/>
        <pt x="408" y="353" on="0"/>
        <pt x="326" y="384" on="0"/>
        <pt x="286" y="384" on="1"/>
        <pt x="239" y="384" on="0"/>
        <pt x="164" y="331" on="0"/>
        <pt x="120" y="283" on="1"/>
        <pt x="52" y="360" on="1"/>
        <pt x="103" y="442" on="0"/>
        <pt x="238" y="538" on="0"/>
        <pt x="309" y="538" on="1"/>
        <pt x="354" y="538" on="0"/>
        <pt x="444" y="507" on="0"/>
        <pt x="528" y="471" on="0"/>
        <pt x="603" y="440" on="0"/>
        <pt x="635" y="440" on="1"/>
        <pt x="658" y="440" on="0"/>
        <pt x="705" y="457" on="0"/>
        <pt x="748" y="485" on="0"/>
        <pt x="787" y="522" on="0"/>
        <pt x="802" y="543" on="1"/>
      </contour>
      <contour>
        <pt x="878" y="760" on="1"/>
        <pt x="853" y="719" on="0"/>
        <pt x="791" y="654" on="0"/>
        <pt x="722" y="608" on="0"/>
        <pt x="649" y="583" on="0"/>
        <pt x="614" y="583" on="1"/>
        <pt x="572" y="583" on="0"/>
        <pt x="489" y="614" on="0"/>
        <pt x="408" y="650" on="0"/>
        <pt x="326" y="681" on="0"/>
        <pt x="286" y="681" on="1"/>
        <pt x="239" y="681" on="0"/>
        <pt x="164" y="628" on="0"/>
        <pt x="120" y="580" on="1"/>
        <pt x="52" y="658" on="1"/>
        <pt x="103" y="740" on="0"/>
        <pt x="238" y="836" on="0"/>
        <pt x="309" y="836" on="1"/>
        <pt x="354" y="836" on="0"/>
        <pt x="444" y="805" on="0"/>
        <pt x="528" y="769" on="0"/>
        <pt x="603" y="738" on="0"/>
        <pt x="635" y="738" on="1"/>
        <pt x="658" y="738" on="0"/>
        <pt x="705" y="755" on="0"/>
        <pt x="748" y="783" on="0"/>
        <pt x="787" y="820" on="0"/>
        <pt x="802" y="841" on="1"/>
      </contour>
    </TTGlyph>
    <TTGlyph name="aring" xMin="65" yMin="-30" xMax="1016" yMax="1463">
      <component glyphName="a" x="0" y="0" flags="0x0"/>
      <component glyphName="uni030A" x="1030" y="0" flags="0x0"/>
    </TTGlyph>
    <TTGlyph name="aring.SngStory" xMin="65" yMin="-30" xMax="1093" yMax="1463">
      <component glyphName="a.SngStory" x="0" y="0" flags="0x0"/>
      <component glyphName="uni030A" x="1094" y="0" flags="0x0"/>
    </TTGlyph>
    <TTGlyph name="aringacute" xMin="65" yMin="-30" xMax="1016" yMax="1952">
      <component glyphName="a" x="0" y="0" flags="0x0"/>
      <component glyphName="uni030A" x="1030" y="0" flags="0x0"/>
      <component glyphName="acutecomb" x="1056" y="440" flags="0x0"/>
    </TTGlyph>
    <TTGlyph name="aringacute.SngStory" xMin="65" yMin="-30" xMax="1093" yMax="1952">
      <component glyphName="a.SngStory" x="0" y="0" flags="0x0"/>
      <component glyphName="uni030A" x="1094" y="0" flags="0x0"/>
      <component glyphName="acutecomb" x="1120" y="440" flags="0x0"/>
    </TTGlyph>
    <TTGlyph name="asciicircum" xMin="100" yMin="565" xMax="907" yMax="1550">
      <contour>
        <pt x="907" y="635" on="1"/>
        <pt x="882" y="612" on="0"/>
        <pt x="835" y="581" on="0"/>
        <pt x="801" y="565" on="1"/>
        <pt x="764" y="592" on="1"/>
        <pt x="481" y="1315" on="1"/>
        <pt x="231" y="635" on="1"/>
        <pt x="220" y="625" on="0"/>
        <pt x="192" y="604" on="0"/>
        <pt x="162" y="585" on="0"/>
        <pt x="133" y="570" on="0"/>
        <pt x="123" y="565" on="1"/>
        <pt x="100" y="592" on="1"/>
        <pt x="422" y="1462" on="1"/>
        <pt x="434" y="1474" on="0"/>
        <pt x="469" y="1499" on="0"/>
        <pt x="505" y="1523" on="0"/>
        <pt x="541" y="1543" on="0"/>
        <pt x="555" y="1550" on="1"/>
      </contour>
    </TTGlyph>
    <TTGlyph name="asciitilde" xMin="49" yMin="475" xMax="950" yMax="799">
      <contour>
        <pt x="950" y="774" on="1"/>
        <pt x="929" y="725" on="0"/>
        <pt x="865" y="620" on="0"/>
        <pt x="786" y="533" on="0"/>
        <pt x="695" y="477" on="0"/>
        <pt x="647" y="477" on="1"/>
        <pt x="605" y="477" on="0"/>
        <pt x="511" y="527" on="0"/>
        <pt x="414" y="587" on="0"/>
        <pt x="319" y="637" on="0"/>
        <pt x="276" y="637" on="1"/>
        <pt x="227" y="637" on="0"/>
        <pt x="144" y="559" on="0"/>
        <pt x="102" y="475" on="1"/>
        <pt x="49" y="502" on="1"/>
        <pt x="70" y="551" on="0"/>
        <pt x="135" y="656" on="0"/>
        <pt x="214" y="743" on="0"/>
        <pt x="304" y="799" on="0"/>
        <pt x="352" y="799" on="1"/>
        <pt x="398" y="799" on="0"/>
        <pt x="495" y="749" on="0"/>
        <pt x="590" y="689" on="0"/>
        <pt x="681" y="639" on="0"/>
        <pt x="721" y="639" on="1"/>
        <pt x="769" y="639" on="0"/>
        <pt x="855" y="717" on="0"/>
        <pt x="897" y="799" on="1"/>
      </contour>
    </TTGlyph>
    <TTGlyph name="asterisk" xMin="56" yMin="708" xMax="852" yMax="1561">
      <contour>
        <pt x="501" y="1220" on="1"/>
        <pt x="718" y="1404" on="1"/>
        <pt x="728" y="1397" on="0"/>
        <pt x="767" y="1369" on="0"/>
        <pt x="808" y="1336" on="0"/>
        <pt x="844" y="1306" on="0"/>
        <pt x="852" y="1298" on="1"/>
        <pt x="843" y="1242" on="1"/>
        <pt x="552" y="1136" on="1"/>
        <pt x="820" y="1040" on="1"/>
        <pt x="819" y="1028" on="0"/>
        <pt x="813" y="980" on="0"/>
        <pt x="806" y="928" on="0"/>
        <pt x="797" y="882" on="0"/>
        <pt x="794" y="871" on="1"/>
        <pt x="741" y="851" on="1"/>
        <pt x="505" y="1048" on="1"/>
        <pt x="555" y="770" on="1"/>
        <pt x="544" y="764" on="0"/>
        <pt x="500" y="745" on="0"/>
        <pt x="451" y="726" on="0"/>
        <pt x="407" y="710" on="0"/>
        <pt x="396" y="708" on="1"/>
        <pt x="352" y="743" on="1"/>
        <pt x="405" y="1048" on="1"/>
        <pt x="189" y="864" on="1"/>
        <pt x="179" y="871" on="0"/>
        <pt x="140" y="900" on="0"/>
        <pt x="99" y="932" on="0"/>
        <pt x="63" y="962" on="0"/>
        <pt x="56" y="970" on="1"/>
        <pt x="64" y="1026" on="1"/>
        <pt x="356" y="1132" on="1"/>
        <pt x="87" y="1228" on="1"/>
        <pt x="88" y="1240" on="0"/>
        <pt x="94" y="1288" on="0"/>
        <pt x="101" y="1340" on="0"/>
        <pt x="110" y="1386" on="0"/>
        <pt x="113" y="1397" on="1"/>
        <pt x="165" y="1417" on="1"/>
        <pt x="402" y="1219" on="1"/>
        <pt x="352" y="1498" on="1"/>
        <pt x="363" y="1504" on="0"/>
        <pt x="407" y="1523" on="0"/>
        <pt x="456" y="1542" on="0"/>
        <pt x="500" y="1558" on="0"/>
        <pt x="511" y="1561" on="1"/>
        <pt x="555" y="1525" on="1"/>
      </contour>
    </TTGlyph>
    <TTGlyph name="at" xMin="85" yMin="-413" xMax="1711" yMax="1363">
      <contour>
        <pt x="1044" y="731" on="1"/>
        <pt x="1022" y="776" on="0"/>
        <pt x="967" y="828" on="0"/>
        <pt x="918" y="828" on="1"/>
        <pt x="830" y="828" on="0"/>
        <pt x="738" y="655" on="0"/>
        <pt x="738" y="468" on="1"/>
        <pt x="738" y="383" on="0"/>
        <pt x="766" y="265" on="0"/>
        <pt x="811" y="192" on="0"/>
        <pt x="866" y="160" on="0"/>
        <pt x="893" y="160" on="1"/>
        <pt x="912" y="160" on="0"/>
        <pt x="945" y="170" on="0"/>
        <pt x="978" y="197" on="0"/>
        <pt x="1017" y="244" on="0"/>
        <pt x="1044" y="280" on="1"/>
      </contour>
      <contour>
        <pt x="1711" y="572" on="1"/>
        <pt x="1711" y="487" on="0"/>
        <pt x="1671" y="332" on="0"/>
        <pt x="1601" y="198" on="0"/>
        <pt x="1506" y="89" on="0"/>
        <pt x="1396" y="12" on="0"/>
        <pt x="1277" y="-30" on="0"/>
        <pt x="1217" y="-30" on="1"/>
        <pt x="1187" y="-30" on="0"/>
        <pt x="1135" y="-14" on="0"/>
        <pt x="1092" y="23" on="0"/>
        <pt x="1060" y="85" on="0"/>
        <pt x="1050" y="132" on="1"/>
        <pt x="1009" y="84" on="0"/>
        <pt x="948" y="21" on="0"/>
        <pt x="892" y="-16" on="0"/>
        <pt x="832" y="-30" on="0"/>
        <pt x="792" y="-30" on="1"/>
        <pt x="741" y="-30" on="0"/>
        <pt x="636" y="26" on="0"/>
        <pt x="552" y="141" on="0"/>
        <pt x="498" y="317" on="0"/>
        <pt x="498" y="437" on="1"/>
        <pt x="498" y="500" on="0"/>
        <pt x="524" y="626" on="0"/>
        <pt x="575" y="743" on="0"/>
        <pt x="650" y="843" on="0"/>
        <pt x="747" y="918" on="0"/>
        <pt x="865" y="960" on="0"/>
        <pt x="934" y="960" on="1"/>
        <pt x="957" y="960" on="0"/>
        <pt x="997" y="953" on="0"/>
        <pt x="1037" y="934" on="0"/>
        <pt x="1079" y="898" on="0"/>
        <pt x="1103" y="869" on="1"/>
        <pt x="1158" y="888" on="0"/>
        <pt x="1239" y="929" on="0"/>
        <pt x="1283" y="960" on="1"/>
        <pt x="1314" y="930" on="1"/>
        <pt x="1305" y="895" on="0"/>
        <pt x="1299" y="857" on="1"/>
        <pt x="1293" y="825" on="0"/>
        <pt x="1284" y="743" on="0"/>
        <pt x="1284" y="701" on="1"/>
        <pt x="1284" y="285" on="1"/>
        <pt x="1284" y="224" on="0"/>
        <pt x="1312" y="162" on="0"/>
        <pt x="1355" y="162" on="1"/>
        <pt x="1380" y="162" on="0"/>
        <pt x="1437" y="208" on="0"/>
        <pt x="1485" y="297" on="0"/>
        <pt x="1516" y="428" on="0"/>
        <pt x="1516" y="512" on="1"/>
        <pt x="1516" y="683" on="0"/>
        <pt x="1432" y="938" on="0"/>
        <pt x="1280" y="1107" on="0"/>
        <pt x="1067" y="1191" on="0"/>
        <pt x="938" y="1191" on="1"/>
        <pt x="785" y="1191" on="0"/>
        <pt x="550" y="1084" on="0"/>
        <pt x="391" y="902" on="0"/>
        <pt x="310" y="659" on="0"/>
        <pt x="310" y="524" on="1"/>
        <pt x="310" y="335" on="0"/>
        <pt x="415" y="49" on="0"/>
        <pt x="596" y="-143" on="0"/>
        <pt x="840" y="-240" on="0"/>
        <pt x="978" y="-240" on="1"/>
        <pt x="1074" y="-240" on="0"/>
        <pt x="1242" y="-205" on="0"/>
        <pt x="1380" y="-153" on="0"/>
        <pt x="1483" y="-93" on="0"/>
        <pt x="1513" y="-67" on="1"/>
        <pt x="1560" y="-154" on="1"/>
        <pt x="1524" y="-195" on="0"/>
        <pt x="1409" y="-286" on="0"/>
        <pt x="1252" y="-362" on="0"/>
        <pt x="1051" y="-413" on="0"/>
        <pt x="929" y="-413" on="1"/>
        <pt x="743" y="-413" on="0"/>
        <pt x="433" y="-293" on="0"/>
        <pt x="209" y="-67" on="0"/>
        <pt x="85" y="259" on="0"/>
        <pt x="85" y="465" on="1"/>
        <pt x="85" y="586" on="0"/>
        <pt x="148" y="813" on="0"/>
        <pt x="263" y="1012" on="0"/>
        <pt x="425" y="1178" on="0"/>
        <pt x="623" y="1297" on="0"/>
        <pt x="852" y="1363" on="0"/>
        <pt x="977" y="1363" on="1"/>
        <pt x="1140" y="1363" on="0"/>
        <pt x="1410" y="1266" on="0"/>
        <pt x="1604" y="1069" on="0"/>
        <pt x="1711" y="772" on="0"/>
      </contour>
    </TTGlyph>
    <TTGlyph name="atilde" xMin="65" yMin="-30" xMax="1016" yMax="1407">
      <component glyphName="a" x="0" y="0" flags="0x0"/>
      <component glyphName="tildecomb" x="1053" y="0" flags="0x0"/>
    </TTGlyph>
    <TTGlyph name="atilde.SngStory" xMin="65" yMin="-30" xMax="1093" yMax="1407">
      <component glyphName="a.SngStory" x="0" y="0" flags="0x0"/>
      <component glyphName="tildecomb" x="1117" y="0" flags="0x0"/>
    </TTGlyph>
    <TTGlyph name="b" xMin="3" yMin="-30" xMax="1025" yMax="1550">
      <contour>
        <pt x="804" y="416" on="1"/>
        <pt x="804" y="516" on="0"/>
        <pt x="769" y="657" on="0"/>
        <pt x="709" y="747" on="0"/>
        <pt x="628" y="788" on="0"/>
        <pt x="582" y="788" on="1"/>
        <pt x="547" y="788" on="0"/>
        <pt x="438" y="740" on="0"/>
        <pt x="365" y="678" on="1"/>
        <pt x="365" y="218" on="1"/>
        <pt x="445" y="175" on="0"/>
        <pt x="568" y="138" on="0"/>
        <pt x="597" y="138" on="1"/>
        <pt x="649" y="138" on="0"/>
        <pt x="727" y="182" on="0"/>
        <pt x="779" y="257" on="0"/>
        <pt x="804" y="358" on="0"/>
      </contour>
      <contour>
        <pt x="1025" y="507" on="1"/>
        <pt x="1025" y="449" on="0"/>
        <pt x="983" y="324" on="0"/>
        <pt x="909" y="205" on="0"/>
        <pt x="808" y="98" on="0"/>
        <pt x="692" y="17" on="0"/>
        <pt x="563" y="-30" on="0"/>
        <pt x="499" y="-30" on="1"/>
        <pt x="472" y="-30" on="0"/>
        <pt x="388" y="-11" on="0"/>
        <pt x="289" y="23" on="0"/>
        <pt x="179" y="69" on="0"/>
        <pt x="125" y="96" on="1"/>
        <pt x="125" y="1266" on="1"/>
        <pt x="125" y="1312" on="0"/>
        <pt x="118" y="1362" on="0"/>
        <pt x="92" y="1387" on="0"/>
        <pt x="44" y="1395" on="0"/>
        <pt x="3" y="1400" on="1"/>
        <pt x="3" y="1470" on="1"/>
        <pt x="50" y="1478" on="0"/>
        <pt x="133" y="1493" on="0"/>
        <pt x="210" y="1512" on="0"/>
        <pt x="284" y="1535" on="0"/>
        <pt x="321" y="1550" on="1"/>
        <pt x="325" y="1546" on="0"/>
        <pt x="339" y="1533" on="0"/>
        <pt x="347" y="1526" on="1"/>
        <pt x="356" y="1518" on="0"/>
        <pt x="365" y="1509" on="1"/>
        <pt x="365" y="802" on="1"/>
        <pt x="415" y="845" on="0"/>
        <pt x="512" y="905" on="0"/>
        <pt x="601" y="943" on="0"/>
        <pt x="676" y="960" on="0"/>
        <pt x="705" y="960" on="1"/>
        <pt x="779" y="960" on="0"/>
        <pt x="897" y="896" on="0"/>
        <pt x="980" y="778" on="0"/>
        <pt x="1025" y="611" on="0"/>
      </contour>
    </TTGlyph>
    <TTGlyph name="backslash" xMin="40" yMin="-335" xMax="920" yMax="1600">
      <contour>
        <pt x="878" y="-335" on="1"/>
        <pt x="866" y="-331" on="0"/>
        <pt x="822" y="-317" on="0"/>
        <pt x="776" y="-301" on="0"/>
        <pt x="735" y="-284" on="0"/>
        <pt x="726" y="-277" on="1"/>
        <pt x="40" y="1571" on="1"/>
        <pt x="85" y="1600" on="1"/>
        <pt x="100" y="1596" on="0"/>
        <pt x="140" y="1584" on="0"/>
        <pt x="182" y="1569" on="0"/>
        <pt x="221" y="1553" on="0"/>
        <pt x="235" y="1544" on="1"/>
        <pt x="920" y="-303" on="1"/>
      </contour>
    </TTGlyph>
    <TTGlyph name="bar" xMin="165" yMin="-405" xMax="335" yMax="1670">
      <contour>
        <pt x="335" y="-346" on="1"/>
        <pt x="326" y="-354" on="0"/>
        <pt x="293" y="-371" on="0"/>
        <pt x="256" y="-387" on="0"/>
        <pt x="220" y="-401" on="0"/>
        <pt x="208" y="-405" on="1"/>
        <pt x="165" y="-375" on="1"/>
        <pt x="165" y="1614" on="1"/>
        <pt x="193" y="1631" on="0"/>
        <pt x="263" y="1662" on="0"/>
        <pt x="292" y="1670" on="1"/>
        <pt x="335" y="1641" on="1"/>
      </contour>
    </TTGlyph>
    <TTGlyph name="braceleft" xMin="86" yMin="-315" xMax="693" yMax="1600">
      <contour>
        <pt x="693" y="1523" on="1"/>
        <pt x="615" y="1474" on="0"/>
        <pt x="516" y="1343" on="0"/>
        <pt x="516" y="1267" on="1"/>
        <pt x="516" y="1214" on="0"/>
        <pt x="529" y="1133" on="0"/>
        <pt x="544" y="1057" on="0"/>
        <pt x="557" y="975" on="0"/>
        <pt x="557" y="923" on="1"/>
        <pt x="557" y="881" on="0"/>
        <pt x="528" y="800" on="0"/>
        <pt x="475" y="729" on="0"/>
        <pt x="404" y="671" on="0"/>
        <pt x="362" y="653" on="1"/>
        <pt x="462" y="635" on="0"/>
        <pt x="557" y="496" on="0"/>
        <pt x="557" y="385" on="1"/>
        <pt x="557" y="331" on="0"/>
        <pt x="544" y="239" on="0"/>
        <pt x="529" y="154" on="0"/>
        <pt x="516" y="72" on="0"/>
        <pt x="516" y="28" on="1"/>
        <pt x="516" y="-13" on="0"/>
        <pt x="529" y="-80" on="0"/>
        <pt x="565" y="-140" on="0"/>
        <pt x="630" y="-195" on="0"/>
        <pt x="683" y="-224" on="1"/>
        <pt x="645" y="-315" on="1"/>
        <pt x="553" y="-281" on="0"/>
        <pt x="409" y="-211" on="0"/>
        <pt x="311" y="-124" on="0"/>
        <pt x="260" y="-15" on="0"/>
        <pt x="260" y="57" on="1"/>
        <pt x="260" y="110" on="0"/>
        <pt x="273" y="195" on="0"/>
        <pt x="288" y="277" on="0"/>
        <pt x="301" y="365" on="0"/>
        <pt x="301" y="422" on="1"/>
        <pt x="301" y="503" on="0"/>
        <pt x="231" y="571" on="0"/>
        <pt x="168" y="571" on="1"/>
        <pt x="147" y="571" on="1"/>
        <pt x="141" y="571" on="0"/>
        <pt x="131" y="570" on="0"/>
        <pt x="118" y="567" on="0"/>
        <pt x="103" y="565" on="1"/>
        <pt x="86" y="648" on="1"/>
        <pt x="198" y="679" on="0"/>
        <pt x="301" y="788" on="0"/>
        <pt x="301" y="863" on="1"/>
        <pt x="301" y="918" on="0"/>
        <pt x="288" y="998" on="0"/>
        <pt x="273" y="1073" on="0"/>
        <pt x="260" y="1154" on="0"/>
        <pt x="260" y="1210" on="1"/>
        <pt x="260" y="1277" on="0"/>
        <pt x="320" y="1391" on="0"/>
        <pt x="425" y="1487" on="0"/>
        <pt x="569" y="1566" on="0"/>
        <pt x="652" y="1600" on="1"/>
      </contour>
    </TTGlyph>
    <TTGlyph name="braceright" xMin="25" yMin="-316" xMax="632" yMax="1599">
      <contour>
        <pt x="632" y="636" on="1"/>
        <pt x="520" y="605" on="0"/>
        <pt x="417" y="497" on="0"/>
        <pt x="417" y="421" on="1"/>
        <pt x="417" y="366" on="0"/>
        <pt x="429" y="286" on="0"/>
        <pt x="444" y="212" on="0"/>
        <pt x="457" y="131" on="0"/>
        <pt x="457" y="75" on="1"/>
        <pt x="457" y="7" on="0"/>
        <pt x="397" y="-106" on="0"/>
        <pt x="292" y="-202" on="0"/>
        <pt x="149" y="-282" on="0"/>
        <pt x="66" y="-316" on="1"/>
        <pt x="25" y="-238" on="1"/>
        <pt x="103" y="-189" on="0"/>
        <pt x="201" y="-58" on="0"/>
        <pt x="201" y="18" on="1"/>
        <pt x="201" y="70" on="0"/>
        <pt x="188" y="151" on="0"/>
        <pt x="173" y="228" on="0"/>
        <pt x="161" y="309" on="0"/>
        <pt x="161" y="362" on="1"/>
        <pt x="161" y="404" on="0"/>
        <pt x="190" y="484" on="0"/>
        <pt x="242" y="555" on="0"/>
        <pt x="314" y="613" on="0"/>
        <pt x="356" y="631" on="1"/>
        <pt x="255" y="650" on="0"/>
        <pt x="161" y="788" on="0"/>
        <pt x="161" y="900" on="1"/>
        <pt x="161" y="954" on="0"/>
        <pt x="173" y="1046" on="0"/>
        <pt x="188" y="1130" on="0"/>
        <pt x="201" y="1212" on="0"/>
        <pt x="201" y="1256" on="1"/>
        <pt x="201" y="1298" on="0"/>
        <pt x="188" y="1365" on="0"/>
        <pt x="152" y="1424" on="0"/>
        <pt x="87" y="1479" on="0"/>
        <pt x="35" y="1508" on="1"/>
        <pt x="73" y="1599" on="1"/>
        <pt x="165" y="1566" on="0"/>
        <pt x="308" y="1495" on="0"/>
        <pt x="406" y="1409" on="0"/>
        <pt x="457" y="1300" on="0"/>
        <pt x="457" y="1228" on="1"/>
        <pt x="457" y="1175" on="0"/>
        <pt x="444" y="1090" on="0"/>
        <pt x="429" y="1007" on="0"/>
        <pt x="417" y="919" on="0"/>
        <pt x="417" y="863" on="1"/>
        <pt x="417" y="782" on="0"/>
        <pt x="487" y="714" on="0"/>
        <pt x="550" y="714" on="1"/>
        <pt x="570" y="714" on="1"/>
        <pt x="577" y="714" on="0"/>
        <pt x="587" y="715" on="0"/>
        <pt x="600" y="717" on="0"/>
        <pt x="615" y="720" on="1"/>
      </contour>
    </TTGlyph>
    <TTGlyph name="bracketleft" xMin="125" yMin="-335" xMax="666" yMax="1600">
      <contour>
        <pt x="666" y="-227" on="1"/>
        <pt x="664" y="-237" on="0"/>
        <pt x="654" y="-266" on="0"/>
        <pt x="644" y="-298" on="0"/>
        <pt x="633" y="-326" on="0"/>
        <pt x="629" y="-335" on="1"/>
        <pt x="125" y="-335" on="1"/>
        <pt x="125" y="1600" on="1"/>
        <pt x="623" y="1600" on="1"/>
        <pt x="664" y="1567" on="1"/>
        <pt x="662" y="1555" on="0"/>
        <pt x="652" y="1521" on="0"/>
        <pt x="642" y="1488" on="0"/>
        <pt x="632" y="1461" on="0"/>
        <pt x="629" y="1455" on="1"/>
        <pt x="355" y="1455" on="1"/>
        <pt x="355" y="-190" on="1"/>
        <pt x="623" y="-190" on="1"/>
      </contour>
    </TTGlyph>
    <TTGlyph name="bracketright" xMin="25" yMin="-335" xMax="565" yMax="1600">
      <contour>
        <pt x="68" y="-335" on="1"/>
        <pt x="27" y="-301" on="1"/>
        <pt x="29" y="-289" on="0"/>
        <pt x="38" y="-255" on="0"/>
        <pt x="48" y="-223" on="0"/>
        <pt x="58" y="-196" on="0"/>
        <pt x="61" y="-190" on="1"/>
        <pt x="335" y="-190" on="1"/>
        <pt x="335" y="1455" on="1"/>
        <pt x="68" y="1455" on="1"/>
        <pt x="25" y="1491" on="1"/>
        <pt x="27" y="1501" on="0"/>
        <pt x="37" y="1531" on="0"/>
        <pt x="47" y="1563" on="0"/>
        <pt x="58" y="1591" on="0"/>
        <pt x="61" y="1600" on="1"/>
        <pt x="565" y="1600" on="1"/>
        <pt x="565" y="-335" on="1"/>
      </contour>
    </TTGlyph>
    <TTGlyph name="breve" xMin="10" yMin="1063" xMax="720" yMax="1435">
      <contour>
        <pt x="720" y="1368" on="1"/>
        <pt x="690" y="1287" on="0"/>
        <pt x="610" y="1172" on="0"/>
        <pt x="518" y="1098" on="0"/>
        <pt x="418" y="1063" on="0"/>
        <pt x="367" y="1063" on="1"/>
        <pt x="312" y="1063" on="0"/>
        <pt x="209" y="1098" on="0"/>
        <pt x="118" y="1172" on="0"/>
        <pt x="40" y="1287" on="0"/>
        <pt x="10" y="1368" on="1"/>
        <pt x="16" y="1377" on="0"/>
        <pt x="35" y="1397" on="0"/>
        <pt x="56" y="1416" on="0"/>
        <pt x="78" y="1431" on="0"/>
        <pt x="86" y="1435" on="1"/>
        <pt x="111" y="1389" on="0"/>
        <pt x="178" y="1322" on="0"/>
        <pt x="253" y="1277" on="0"/>
        <pt x="330" y="1255" on="0"/>
        <pt x="363" y="1255" on="1"/>
        <pt x="398" y="1255" on="0"/>
        <pt x="476" y="1277" on="0"/>
        <pt x="552" y="1321" on="0"/>
        <pt x="620" y="1389" on="0"/>
        <pt x="645" y="1435" on="1"/>
        <pt x="654" y="1431" on="0"/>
        <pt x="675" y="1416" on="0"/>
        <pt x="696" y="1397" on="0"/>
        <pt x="714" y="1377" on="0"/>
      </contour>
    </TTGlyph>
    <TTGlyph name="brokenbar" xMin="159" yMin="-406" xMax="341" yMax="1670">
      <contour>
        <pt x="341" y="775" on="1"/>
        <pt x="331" y="767" on="0"/>
        <pt x="295" y="750" on="0"/>
        <pt x="255" y="733" on="0"/>
        <pt x="235" y="726" on="1"/>
        <pt x="204" y="716" on="1"/>
        <pt x="159" y="746" on="1"/>
        <pt x="159" y="1614" on="1"/>
        <pt x="188" y="1631" on="0"/>
        <pt x="266" y="1662" on="0"/>
        <pt x="297" y="1670" on="1"/>
        <pt x="341" y="1641" on="1"/>
      </contour>
      <contour>
        <pt x="341" y="-347" on="1"/>
        <pt x="331" y="-355" on="0"/>
        <pt x="295" y="-372" on="0"/>
        <pt x="255" y="-388" on="0"/>
        <pt x="216" y="-402" on="0"/>
        <pt x="204" y="-406" on="1"/>
        <pt x="159" y="-376" on="1"/>
        <pt x="159" y="482" on="1"/>
        <pt x="174" y="491" on="0"/>
        <pt x="209" y="508" on="0"/>
        <pt x="246" y="523" on="0"/>
        <pt x="282" y="536" on="0"/>
        <pt x="297" y="541" on="1"/>
        <pt x="341" y="509" on="1"/>
      </contour>
    </TTGlyph>
    <TTGlyph name="bullet" xMin="70" yMin="389" xMax="498" yMax="885">
      <contour>
        <pt x="498" y="662" on="1"/>
        <pt x="498" y="601" on="0"/>
        <pt x="463" y="501" on="0"/>
        <pt x="400" y="429" on="0"/>
        <pt x="313" y="389" on="0"/>
        <pt x="260" y="389" on="1"/>
        <pt x="212" y="389" on="0"/>
        <pt x="141" y="422" on="0"/>
        <pt x="94" y="482" on="0"/>
        <pt x="70" y="564" on="0"/>
        <pt x="70" y="612" on="1"/>
        <pt x="70" y="672" on="0"/>
        <pt x="107" y="772" on="0"/>
        <pt x="171" y="845" on="0"/>
        <pt x="258" y="885" on="0"/>
        <pt x="309" y="885" on="1"/>
        <pt x="354" y="885" on="0"/>
        <pt x="425" y="852" on="0"/>
        <pt x="473" y="793" on="0"/>
        <pt x="498" y="711" on="0"/>
      </contour>
    </TTGlyph>
    <TTGlyph name="c" xMin="65" yMin="-30" xMax="893" yMax="960">
      <contour>
        <pt x="893" y="190" on="1"/>
        <pt x="828" y="116" on="0"/>
        <pt x="718" y="29" on="0"/>
        <pt x="619" y="-17" on="0"/>
        <pt x="527" y="-30" on="0"/>
        <pt x="480" y="-30" on="1"/>
        <pt x="399" y="-30" on="0"/>
        <pt x="249" y="35" on="0"/>
        <pt x="134" y="157" on="0"/>
        <pt x="65" y="333" on="0"/>
        <pt x="65" y="444" on="1"/>
        <pt x="65" y="552" on="0"/>
        <pt x="145" y="740" on="0"/>
        <pt x="288" y="879" on="0"/>
        <pt x="486" y="960" on="0"/>
        <pt x="605" y="960" on="1"/>
        <pt x="638" y="960" on="0"/>
        <pt x="721" y="949" on="0"/>
        <pt x="801" y="928" on="0"/>
        <pt x="868" y="899" on="0"/>
        <pt x="885" y="881" on="1"/>
        <pt x="886" y="873" on="0"/>
        <pt x="879" y="833" on="0"/>
        <pt x="866" y="781" on="0"/>
        <pt x="848" y="723" on="0"/>
        <pt x="830" y="671" on="0"/>
        <pt x="812" y="629" on="0"/>
        <pt x="806" y="620" on="1"/>
        <pt x="739" y="630" on="1"/>
        <pt x="706" y="728" on="0"/>
        <pt x="610" y="835" on="0"/>
        <pt x="530" y="835" on="1"/>
        <pt x="486" y="835" on="0"/>
        <pt x="405" y="795" on="0"/>
        <pt x="343" y="708" on="0"/>
        <pt x="305" y="572" on="0"/>
        <pt x="305" y="475" on="1"/>
        <pt x="305" y="395" on="0"/>
        <pt x="346" y="270" on="0"/>
        <pt x="417" y="184" on="0"/>
        <pt x="513" y="138" on="0"/>
        <pt x="567" y="138" on="1"/>
        <pt x="595" y="138" on="0"/>
        <pt x="647" y="145" on="0"/>
        <pt x="709" y="169" on="0"/>
        <pt x="786" y="215" on="0"/>
        <pt x="839" y="254" on="1"/>
      </contour>
    </TTGlyph>
    <TTGlyph name="cacute" xMin="65" yMin="-30" xMax="893" yMax="1512">
      <component glyphName="c" x="0" y="0" flags="0x0"/>
      <component glyphName="acutecomb" x="1052" y="0" flags="0x0"/>
    </TTGlyph>
    <TTGlyph name="caron" xMin="28" yMin="1064" xMax="713" yMax="1513">
      <contour>
        <pt x="435" y="1064" on="1"/>
        <pt x="298" y="1064" on="1"/>
        <pt x="28" y="1445" on="1"/>
        <pt x="40" y="1465" on="0"/>
        <pt x="69" y="1505" on="0"/>
        <pt x="86" y="1513" on="1"/>
        <pt x="368" y="1295" on="1"/>
        <pt x="646" y="1513" on="1"/>
        <pt x="663" y="1505" on="0"/>
        <pt x="699" y="1465" on="0"/>
        <pt x="713" y="1445" on="1"/>
      </contour>
    </TTGlyph>
    <TTGlyph name="ccaron" xMin="65" yMin="-30" xMax="893" yMax="1513">
      <component glyphName="c" x="0" y="0" flags="0x0"/>
      <component glyphName="uni030C" x="1019" y="0" flags="0x0"/>
    </TTGlyph>
    <TTGlyph name="ccedilla" xMin="65" yMin="-444" xMax="893" yMax="960">
      <contour>
        <pt x="710" y="-229" on="1"/>
        <pt x="710" y="-266" on="0"/>
        <pt x="656" y="-336" on="0"/>
        <pt x="560" y="-394" on="0"/>
        <pt x="427" y="-436" on="0"/>
        <pt x="349" y="-444" on="1"/>
        <pt x="312" y="-373" on="1"/>
        <pt x="399" y="-360" on="0"/>
        <pt x="474" y="-301" on="0"/>
        <pt x="474" y="-269" on="1"/>
        <pt x="474" y="-235" on="0"/>
        <pt x="428" y="-206" on="0"/>
        <pt x="384" y="-202" on="1"/>
        <pt x="387" y="-198" on="1"/>
        <pt x="390" y="-194" on="0"/>
        <pt x="407" y="-152" on="0"/>
        <pt x="422" y="-108" on="1"/>
        <pt x="433" y="-78" on="0"/>
        <pt x="449" y="-29" on="1"/>
        <pt x="384" y="-23" on="0"/>
        <pt x="324" y="2" on="1"/>
        <pt x="249" y="35" on="0"/>
        <pt x="134" y="157" on="0"/>
        <pt x="65" y="333" on="0"/>
        <pt x="65" y="444" on="1"/>
        <pt x="65" y="552" on="0"/>
        <pt x="145" y="740" on="0"/>
        <pt x="288" y="879" on="0"/>
        <pt x="486" y="960" on="0"/>
        <pt x="605" y="960" on="1"/>
        <pt x="638" y="960" on="0"/>
        <pt x="721" y="949" on="0"/>
        <pt x="801" y="928" on="0"/>
        <pt x="868" y="899" on="0"/>
        <pt x="885" y="881" on="1"/>
        <pt x="886" y="873" on="0"/>
        <pt x="879" y="833" on="0"/>
        <pt x="866" y="781" on="0"/>
        <pt x="848" y="723" on="0"/>
        <pt x="830" y="671" on="0"/>
        <pt x="812" y="629" on="0"/>
        <pt x="806" y="620" on="1"/>
        <pt x="739" y="630" on="1"/>
        <pt x="706" y="728" on="0"/>
        <pt x="610" y="835" on="0"/>
        <pt x="530" y="835" on="1"/>
        <pt x="486" y="835" on="0"/>
        <pt x="405" y="795" on="0"/>
        <pt x="343" y="708" on="0"/>
        <pt x="305" y="572" on="0"/>
        <pt x="305" y="475" on="1"/>
        <pt x="305" y="395" on="0"/>
        <pt x="346" y="270" on="0"/>
        <pt x="417" y="184" on="0"/>
        <pt x="513" y="138" on="0"/>
        <pt x="567" y="138" on="1"/>
        <pt x="595" y="138" on="0"/>
        <pt x="647" y="145" on="0"/>
        <pt x="709" y="169" on="0"/>
        <pt x="786" y="215" on="0"/>
        <pt x="839" y="254" on="1"/>
        <pt x="893" y="190" on="1"/>
        <pt x="828" y="116" on="0"/>
        <pt x="718" y="29" on="0"/>
        <pt x="619" y="-17" on="0"/>
        <pt x="573" y="-23" on="1"/>
        <pt x="572" y="-23" on="1"/>
        <pt x="547" y="-89" on="1"/>
        <pt x="625" y="-103" on="0"/>
        <pt x="710" y="-172" on="0"/>
      </contour>
    </TTGlyph>
    <TTGlyph name="ccircumflex" xMin="65" yMin="-30" xMax="893" yMax="1494">
      <component glyphName="c" x="0" y="0" flags="0x0"/>
      <component glyphName="uni0302" x="1026" y="0" flags="0x0"/>
    </TTGlyph>
    <TTGlyph name="cdotaccent" xMin="65" yMin="-30" xMax="893" yMax="1389">
      <component glyphName="c" x="0" y="0" flags="0x0"/>
      <component glyphName="uni0307" x="1026" y="0" flags="0x0"/>
    </TTGlyph>
    <TTGlyph name="cedilla" xMin="56" yMin="-444" xMax="454" yMax="14">
      <contour>
        <pt x="454" y="-229" on="1"/>
        <pt x="454" y="-266" on="0"/>
        <pt x="400" y="-336" on="0"/>
        <pt x="304" y="-394" on="0"/>
        <pt x="171" y="-436" on="0"/>
        <pt x="93" y="-444" on="1"/>
        <pt x="56" y="-373" on="1"/>
        <pt x="143" y="-360" on="0"/>
        <pt x="218" y="-301" on="0"/>
        <pt x="218" y="-269" on="1"/>
        <pt x="218" y="-235" on="0"/>
        <pt x="172" y="-206" on="0"/>
        <pt x="127" y="-202" on="1"/>
        <pt x="130" y="-198" on="1"/>
        <pt x="134" y="-194" on="0"/>
        <pt x="151" y="-152" on="0"/>
        <pt x="182" y="-65" on="0"/>
        <pt x="207" y="14" on="1"/>
        <pt x="330" y="12" on="1"/>
        <pt x="291" y="-89" on="1"/>
        <pt x="369" y="-103" on="0"/>
        <pt x="454" y="-172" on="0"/>
      </contour>
    </TTGlyph>
    <TTGlyph name="cent" xMin="89" yMin="-41" xMax="947" yMax="1245">
      <contour>
        <pt x="309" y="616" on="1"/>
        <pt x="309" y="549" on="0"/>
        <pt x="337" y="442" on="0"/>
        <pt x="387" y="362" on="0"/>
        <pt x="456" y="308" on="0"/>
        <pt x="498" y="293" on="1"/>
        <pt x="498" y="941" on="1"/>
        <pt x="460" y="931" on="0"/>
        <pt x="392" y="884" on="0"/>
        <pt x="340" y="806" on="0"/>
        <pt x="309" y="692" on="0"/>
      </contour>
      <contour>
        <pt x="618" y="7" on="1"/>
        <pt x="600" y="-9" on="0"/>
        <pt x="554" y="-33" on="0"/>
        <pt x="530" y="-41" on="1"/>
        <pt x="498" y="-9" on="1"/>
        <pt x="498" y="130" on="1"/>
        <pt x="428" y="136" on="0"/>
        <pt x="283" y="200" on="0"/>
        <pt x="164" y="316" on="0"/>
        <pt x="89" y="480" on="0"/>
        <pt x="89" y="586" on="1"/>
        <pt x="89" y="675" on="0"/>
        <pt x="147" y="831" on="0"/>
        <pt x="254" y="955" on="0"/>
        <pt x="405" y="1043" on="0"/>
        <pt x="498" y="1063" on="1"/>
        <pt x="498" y="1199" on="1"/>
        <pt x="512" y="1208" on="0"/>
        <pt x="531" y="1221" on="0"/>
        <pt x="548" y="1232" on="0"/>
        <pt x="569" y="1241" on="0"/>
        <pt x="584" y="1245" on="1"/>
        <pt x="618" y="1216" on="1"/>
        <pt x="618" y="1078" on="1"/>
        <pt x="626" y="1078" on="0"/>
        <pt x="643" y="1079" on="0"/>
        <pt x="652" y="1079" on="1"/>
        <pt x="685" y="1079" on="0"/>
        <pt x="771" y="1068" on="0"/>
        <pt x="854" y="1047" on="0"/>
        <pt x="923" y="1018" on="0"/>
        <pt x="940" y="999" on="1"/>
        <pt x="942" y="988" on="0"/>
        <pt x="925" y="928" on="0"/>
        <pt x="899" y="860" on="0"/>
        <pt x="870" y="799" on="0"/>
        <pt x="861" y="786" on="1"/>
        <pt x="796" y="803" on="1"/>
        <pt x="788" y="818" on="0"/>
        <pt x="758" y="859" on="0"/>
        <pt x="715" y="900" on="0"/>
        <pt x="656" y="935" on="0"/>
        <pt x="618" y="943" on="1"/>
        <pt x="618" y="277" on="1"/>
        <pt x="647" y="278" on="0"/>
        <pt x="703" y="292" on="0"/>
        <pt x="765" y="326" on="0"/>
        <pt x="838" y="384" on="0"/>
        <pt x="885" y="429" on="1"/>
        <pt x="947" y="358" on="1"/>
        <pt x="896" y="301" on="0"/>
        <pt x="809" y="221" on="0"/>
        <pt x="730" y="170" on="0"/>
        <pt x="656" y="141" on="0"/>
        <pt x="618" y="135" on="1"/>
      </contour>
    </TTGlyph>
    <TTGlyph name="circumflex" xMin="19" yMin="1040" xMax="705" yMax="1494">
      <contour>
        <pt x="705" y="1107" on="1"/>
        <pt x="693" y="1088" on="0"/>
        <pt x="664" y="1048" on="0"/>
        <pt x="647" y="1040" on="1"/>
        <pt x="365" y="1263" on="1"/>
        <pt x="87" y="1040" on="1"/>
        <pt x="70" y="1048" on="0"/>
        <pt x="33" y="1088" on="0"/>
        <pt x="19" y="1107" on="1"/>
        <pt x="298" y="1494" on="1"/>
        <pt x="435" y="1494" on="1"/>
      </contour>
    </TTGlyph>
    <TTGlyph name="colon" xMin="131" yMin="-40" xMax="459" yMax="960">
      <contour>
        <pt x="459" y="825" on="1"/>
        <pt x="459" y="785" on="0"/>
        <pt x="430" y="721" on="0"/>
        <pt x="381" y="677" on="0"/>
        <pt x="314" y="654" on="0"/>
        <pt x="276" y="654" on="1"/>
        <pt x="247" y="654" on="0"/>
        <pt x="194" y="669" on="0"/>
        <pt x="154" y="702" on="0"/>
        <pt x="131" y="753" on="0"/>
        <pt x="131" y="789" on="1"/>
        <pt x="131" y="828" on="0"/>
        <pt x="161" y="892" on="0"/>
        <pt x="212" y="936" on="0"/>
        <pt x="279" y="960" on="0"/>
        <pt x="315" y="960" on="1"/>
        <pt x="343" y="960" on="0"/>
        <pt x="395" y="944" on="0"/>
        <pt x="435" y="911" on="0"/>
        <pt x="459" y="860" on="0"/>
      </contour>
      <contour>
        <pt x="459" y="131" on="1"/>
        <pt x="459" y="91" on="0"/>
        <pt x="430" y="27" on="0"/>
        <pt x="381" y="-17" on="0"/>
        <pt x="314" y="-40" on="0"/>
        <pt x="276" y="-40" on="1"/>
        <pt x="247" y="-40" on="0"/>
        <pt x="194" y="-25" on="0"/>
        <pt x="154" y="8" on="0"/>
        <pt x="131" y="59" on="0"/>
        <pt x="131" y="95" on="1"/>
        <pt x="131" y="134" on="0"/>
        <pt x="161" y="198" on="0"/>
        <pt x="212" y="242" on="0"/>
        <pt x="279" y="266" on="0"/>
        <pt x="315" y="266" on="1"/>
        <pt x="343" y="266" on="0"/>
        <pt x="395" y="250" on="0"/>
        <pt x="435" y="217" on="0"/>
        <pt x="459" y="166" on="0"/>
      </contour>
    </TTGlyph>
    <TTGlyph name="comma" xMin="88" yMin="-380" xMax="480" yMax="259">
      <contour>
        <pt x="480" y="70" on="1"/>
        <pt x="480" y="16" on="0"/>
        <pt x="434" y="-108" on="0"/>
        <pt x="355" y="-231" on="0"/>
        <pt x="249" y="-341" on="0"/>
        <pt x="189" y="-380" on="1"/>
        <pt x="121" y="-330" on="1"/>
        <pt x="177" y="-265" on="0"/>
        <pt x="241" y="-125" on="0"/>
        <pt x="241" y="-38" on="1"/>
        <pt x="241" y="-16" on="0"/>
        <pt x="222" y="28" on="0"/>
        <pt x="187" y="61" on="0"/>
        <pt x="136" y="79" on="0"/>
        <pt x="104" y="77" on="1"/>
        <pt x="88" y="154" on="1"/>
        <pt x="94" y="162" on="0"/>
        <pt x="132" y="184" on="0"/>
        <pt x="187" y="207" on="0"/>
        <pt x="251" y="230" on="0"/>
        <pt x="313" y="249" on="0"/>
        <pt x="367" y="259" on="0"/>
        <pt x="384" y="259" on="1"/>
        <pt x="432" y="236" on="0"/>
        <pt x="480" y="149" on="0"/>
      </contour>
    </TTGlyph>
    <TTGlyph name="copyright" xMin="85" yMin="-30" xMax="1411" yMax="1359">
      <contour>
        <pt x="1068" y="412" on="1"/>
        <pt x="1015" y="355" on="0"/>
        <pt x="924" y="285" on="0"/>
        <pt x="841" y="247" on="0"/>
        <pt x="764" y="234" on="0"/>
        <pt x="725" y="234" on="1"/>
        <pt x="655" y="234" on="0"/>
        <pt x="524" y="290" on="0"/>
        <pt x="422" y="395" on="0"/>
        <pt x="361" y="545" on="0"/>
        <pt x="361" y="639" on="1"/>
        <pt x="361" y="733" on="0"/>
        <pt x="431" y="897" on="0"/>
        <pt x="555" y="1020" on="0"/>
        <pt x="724" y="1091" on="0"/>
        <pt x="824" y="1091" on="1"/>
        <pt x="857" y="1091" on="0"/>
        <pt x="926" y="1079" on="0"/>
        <pt x="988" y="1058" on="0"/>
        <pt x="1040" y="1032" on="0"/>
        <pt x="1055" y="1017" on="1"/>
        <pt x="1057" y="1008" on="0"/>
        <pt x="1042" y="948" on="0"/>
        <pt x="1018" y="878" on="0"/>
        <pt x="992" y="816" on="0"/>
        <pt x="983" y="805" on="1"/>
        <pt x="929" y="813" on="1"/>
        <pt x="919" y="847" on="0"/>
        <pt x="892" y="910" on="0"/>
        <pt x="854" y="959" on="0"/>
        <pt x="802" y="988" on="0"/>
        <pt x="766" y="988" on="1"/>
        <pt x="725" y="988" on="0"/>
        <pt x="650" y="952" on="0"/>
        <pt x="593" y="875" on="0"/>
        <pt x="560" y="754" on="0"/>
        <pt x="560" y="670" on="1"/>
        <pt x="560" y="601" on="0"/>
        <pt x="603" y="490" on="0"/>
        <pt x="672" y="413" on="0"/>
        <pt x="759" y="372" on="0"/>
        <pt x="803" y="372" on="1"/>
        <pt x="826" y="372" on="0"/>
        <pt x="869" y="378" on="0"/>
        <pt x="918" y="398" on="0"/>
        <pt x="981" y="435" on="0"/>
        <pt x="1023" y="465" on="1"/>
        <pt x="1024" y="465" on="0"/>
        <pt x="1038" y="448" on="0"/>
        <pt x="1054" y="429" on="0"/>
        <pt x="1067" y="412" on="0"/>
      </contour>
      <contour>
        <pt x="1292" y="666" on="1"/>
        <pt x="1292" y="784" on="0"/>
        <pt x="1211" y="993" on="0"/>
        <pt x="1066" y="1149" on="0"/>
        <pt x="866" y="1239" on="0"/>
        <pt x="747" y="1239" on="1"/>
        <pt x="629" y="1239" on="0"/>
        <pt x="430" y="1149" on="0"/>
        <pt x="285" y="993" on="0"/>
        <pt x="204" y="784" on="0"/>
        <pt x="204" y="666" on="1"/>
        <pt x="204" y="547" on="0"/>
        <pt x="285" y="337" on="0"/>
        <pt x="430" y="181" on="0"/>
        <pt x="629" y="91" on="0"/>
        <pt x="747" y="91" on="1"/>
        <pt x="866" y="91" on="0"/>
        <pt x="1066" y="181" on="0"/>
        <pt x="1211" y="337" on="0"/>
        <pt x="1292" y="547" on="0"/>
      </contour>
      <contour>
        <pt x="1411" y="666" on="1"/>
        <pt x="1411" y="570" on="0"/>
        <pt x="1366" y="392" on="0"/>
        <pt x="1282" y="238" on="0"/>
        <pt x="1164" y="110" on="0"/>
        <pt x="1016" y="20" on="0"/>
        <pt x="843" y="-30" on="0"/>
        <pt x="747" y="-30" on="1"/>
        <pt x="651" y="-30" on="0"/>
        <pt x="479" y="20" on="0"/>
        <pt x="332" y="110" on="0"/>
        <pt x="213" y="238" on="0"/>
        <pt x="130" y="392" on="0"/>
        <pt x="85" y="570" on="0"/>
        <pt x="85" y="666" on="1"/>
        <pt x="85" y="810" on="0"/>
        <pt x="184" y="1062" on="0"/>
        <pt x="361" y="1250" on="0"/>
        <pt x="603" y="1359" on="0"/>
        <pt x="747" y="1359" on="1"/>
        <pt x="843" y="1359" on="0"/>
        <pt x="1016" y="1310" on="0"/>
        <pt x="1164" y="1219" on="0"/>
        <pt x="1282" y="1093" on="0"/>
        <pt x="1366" y="939" on="0"/>
        <pt x="1411" y="762" on="0"/>
      </contour>
    </TTGlyph>
    <TTGlyph name="currency" xMin="100" yMin="182" xMax="937" yMax="1021">
      <contour>
        <pt x="366" y="757" on="1"/>
        <pt x="334" y="725" on="0"/>
        <pt x="301" y="643" on="0"/>
        <pt x="301" y="601" on="1"/>
        <pt x="301" y="559" on="0"/>
        <pt x="332" y="481" on="0"/>
        <pt x="364" y="449" on="1"/>
        <pt x="398" y="415" on="0"/>
        <pt x="478" y="384" on="0"/>
        <pt x="520" y="384" on="1"/>
        <pt x="562" y="384" on="0"/>
        <pt x="641" y="415" on="0"/>
        <pt x="673" y="448" on="1"/>
        <pt x="705" y="480" on="0"/>
        <pt x="737" y="560" on="0"/>
        <pt x="737" y="602" on="1"/>
        <pt x="737" y="644" on="0"/>
        <pt x="704" y="725" on="0"/>
        <pt x="672" y="757" on="1"/>
        <pt x="640" y="789" on="0"/>
        <pt x="562" y="820" on="0"/>
        <pt x="520" y="820" on="1"/>
        <pt x="478" y="820" on="0"/>
        <pt x="398" y="789" on="0"/>
      </contour>
      <contour>
        <pt x="851" y="183" on="1"/>
        <pt x="714" y="320" on="1"/>
        <pt x="671" y="290" on="0"/>
        <pt x="572" y="260" on="0"/>
        <pt x="520" y="260" on="1"/>
        <pt x="467" y="260" on="0"/>
        <pt x="367" y="290" on="0"/>
        <pt x="322" y="322" on="1"/>
        <pt x="182" y="182" on="1"/>
        <pt x="140" y="185" on="1"/>
        <pt x="130" y="202" on="0"/>
        <pt x="108" y="245" on="0"/>
        <pt x="100" y="266" on="1"/>
        <pt x="239" y="405" on="1"/>
        <pt x="208" y="449" on="0"/>
        <pt x="178" y="548" on="0"/>
        <pt x="178" y="599" on="1"/>
        <pt x="178" y="651" on="0"/>
        <pt x="208" y="752" on="0"/>
        <pt x="239" y="797" on="1"/>
        <pt x="101" y="937" on="1"/>
        <pt x="103" y="981" on="1"/>
        <pt x="121" y="991" on="0"/>
        <pt x="163" y="1012" on="0"/>
        <pt x="184" y="1021" on="1"/>
        <pt x="323" y="881" on="1"/>
        <pt x="414" y="946" on="0"/>
        <pt x="520" y="946" on="1"/>
        <pt x="571" y="946" on="0"/>
        <pt x="669" y="914" on="0"/>
        <pt x="713" y="882" on="1"/>
        <pt x="851" y="1020" on="1"/>
        <pt x="895" y="1021" on="1"/>
        <pt x="934" y="935" on="1"/>
        <pt x="797" y="798" on="1"/>
        <pt x="829" y="753" on="0"/>
        <pt x="861" y="651" on="0"/>
        <pt x="861" y="599" on="1"/>
        <pt x="861" y="548" on="0"/>
        <pt x="830" y="449" on="0"/>
        <pt x="798" y="404" on="1"/>
        <pt x="936" y="267" on="1"/>
        <pt x="937" y="222" on="1"/>
      </contour>
    </TTGlyph>
    <TTGlyph name="d" xMin="65" yMin="-30" xMax="1141" yMax="1550">
      <contour>
        <pt x="1141" y="114" on="1"/>
        <pt x="1095" y="83" on="0"/>
        <pt x="1001" y="31" on="0"/>
        <pt x="920" y="-8" on="0"/>
        <pt x="858" y="-30" on="0"/>
        <pt x="844" y="-30" on="1"/>
        <pt x="772" y="-30" on="0"/>
        <pt x="752" y="145" on="1"/>
        <pt x="706" y="98" on="0"/>
        <pt x="629" y="32" on="0"/>
        <pt x="555" y="-10" on="0"/>
        <pt x="477" y="-30" on="0"/>
        <pt x="431" y="-30" on="1"/>
        <pt x="364" y="-30" on="0"/>
        <pt x="233" y="35" on="0"/>
        <pt x="129" y="157" on="0"/>
        <pt x="65" y="333" on="0"/>
        <pt x="65" y="444" on="1"/>
        <pt x="65" y="544" on="0"/>
        <pt x="136" y="731" on="0"/>
        <pt x="265" y="874" on="0"/>
        <pt x="444" y="960" on="0"/>
        <pt x="551" y="960" on="1"/>
        <pt x="598" y="960" on="0"/>
        <pt x="691" y="938" on="0"/>
        <pt x="745" y="901" on="1"/>
        <pt x="745" y="1244" on="1"/>
        <pt x="745" y="1299" on="0"/>
        <pt x="742" y="1364" on="0"/>
        <pt x="717" y="1399" on="0"/>
        <pt x="661" y="1412" on="0"/>
        <pt x="608" y="1416" on="1"/>
        <pt x="608" y="1485" on="1"/>
        <pt x="718" y="1496" on="0"/>
        <pt x="895" y="1533" on="0"/>
        <pt x="947" y="1550" on="1"/>
        <pt x="985" y="1513" on="1"/>
        <pt x="985" y="299" on="1"/>
        <pt x="985" y="264" on="0"/>
        <pt x="988" y="216" on="0"/>
        <pt x="993" y="186" on="0"/>
        <pt x="1002" y="170" on="0"/>
        <pt x="1008" y="166" on="1"/>
        <pt x="1014" y="163" on="0"/>
        <pt x="1028" y="160" on="0"/>
        <pt x="1051" y="163" on="0"/>
        <pt x="1086" y="175" on="0"/>
        <pt x="1113" y="187" on="1"/>
      </contour>
      <contour>
        <pt x="745" y="269" on="1"/>
        <pt x="745" y="706" on="1"/>
        <pt x="709" y="764" on="0"/>
        <pt x="602" y="828" on="0"/>
        <pt x="535" y="828" on="1"/>
        <pt x="485" y="828" on="0"/>
        <pt x="401" y="790" on="0"/>
        <pt x="340" y="709" on="0"/>
        <pt x="305" y="585" on="0"/>
        <pt x="305" y="498" on="1"/>
        <pt x="305" y="418" on="0"/>
        <pt x="345" y="293" on="0"/>
        <pt x="409" y="206" on="0"/>
        <pt x="491" y="160" on="0"/>
        <pt x="532" y="160" on="1"/>
        <pt x="587" y="160" on="0"/>
        <pt x="686" y="215" on="0"/>
      </contour>
    </TTGlyph>
    <TTGlyph name="dagger" xMin="55" yMin="-40" xMax="952" yMax="1480">
      <contour>
        <pt x="952" y="1112" on="1"/>
        <pt x="945" y="1095" on="0"/>
        <pt x="913" y="1030" on="0"/>
        <pt x="875" y="958" on="0"/>
        <pt x="837" y="891" on="0"/>
        <pt x="825" y="872" on="1"/>
        <pt x="792" y="891" on="0"/>
        <pt x="729" y="920" on="0"/>
        <pt x="665" y="942" on="0"/>
        <pt x="597" y="956" on="0"/>
        <pt x="558" y="959" on="1"/>
        <pt x="563" y="890" on="0"/>
        <pt x="599" y="747" on="0"/>
        <pt x="631" y="680" on="1"/>
        <pt x="595" y="569" on="0"/>
        <pt x="559" y="369" on="0"/>
        <pt x="557" y="273" on="1"/>
        <pt x="556" y="215" on="0"/>
        <pt x="579" y="98" on="0"/>
        <pt x="607" y="37" on="1"/>
        <pt x="598" y="30" on="0"/>
        <pt x="550" y="7" on="0"/>
        <pt x="494" y="-16" on="0"/>
        <pt x="443" y="-36" on="0"/>
        <pt x="431" y="-40" on="1"/>
        <pt x="394" y="-12" on="1"/>
        <pt x="406" y="22" on="0"/>
        <pt x="425" y="96" on="0"/>
        <pt x="439" y="171" on="0"/>
        <pt x="446" y="243" on="0"/>
        <pt x="446" y="273" on="1"/>
        <pt x="444" y="372" on="0"/>
        <pt x="408" y="570" on="0"/>
        <pt x="371" y="680" on="1"/>
        <pt x="403" y="747" on="0"/>
        <pt x="439" y="891" on="0"/>
        <pt x="444" y="959" on="1"/>
        <pt x="351" y="951" on="0"/>
        <pt x="176" y="909" on="0"/>
        <pt x="88" y="872" on="1"/>
        <pt x="55" y="923" on="1"/>
        <pt x="62" y="940" on="0"/>
        <pt x="94" y="1004" on="0"/>
        <pt x="132" y="1076" on="0"/>
        <pt x="170" y="1143" on="0"/>
        <pt x="182" y="1162" on="1"/>
        <pt x="214" y="1144" on="0"/>
        <pt x="275" y="1115" on="0"/>
        <pt x="338" y="1094" on="0"/>
        <pt x="406" y="1080" on="0"/>
        <pt x="444" y="1077" on="1"/>
        <pt x="439" y="1157" on="0"/>
        <pt x="396" y="1290" on="0"/>
        <pt x="356" y="1361" on="1"/>
        <pt x="375" y="1373" on="0"/>
        <pt x="442" y="1408" on="0"/>
        <pt x="514" y="1443" on="0"/>
        <pt x="579" y="1473" on="0"/>
        <pt x="596" y="1480" on="1"/>
        <pt x="646" y="1448" on="1"/>
        <pt x="609" y="1357" on="0"/>
        <pt x="566" y="1169" on="0"/>
        <pt x="559" y="1077" on="1"/>
        <pt x="653" y="1084" on="0"/>
        <pt x="831" y="1125" on="0"/>
        <pt x="920" y="1162" on="1"/>
      </contour>
    </TTGlyph>
    <TTGlyph name="daggerdbl" xMin="55" yMin="-40" xMax="952" yMax="1480">
      <contour>
        <pt x="952" y="1112" on="1"/>
        <pt x="945" y="1095" on="0"/>
        <pt x="913" y="1030" on="0"/>
        <pt x="875" y="958" on="0"/>
        <pt x="837" y="891" on="0"/>
        <pt x="825" y="872" on="1"/>
        <pt x="792" y="890" on="0"/>
        <pt x="730" y="918" on="0"/>
        <pt x="667" y="940" on="0"/>
        <pt x="600" y="954" on="0"/>
        <pt x="561" y="958" on="1"/>
        <pt x="566" y="898" on="0"/>
        <pt x="601" y="786" on="0"/>
        <pt x="633" y="720" on="1"/>
        <pt x="603" y="657" on="0"/>
        <pt x="569" y="539" on="0"/>
        <pt x="563" y="482" on="1"/>
        <pt x="747" y="495" on="0"/>
        <pt x="920" y="568" on="1"/>
        <pt x="952" y="518" on="1"/>
        <pt x="945" y="501" on="0"/>
        <pt x="913" y="436" on="0"/>
        <pt x="875" y="364" on="0"/>
        <pt x="837" y="297" on="0"/>
        <pt x="825" y="278" on="1"/>
        <pt x="793" y="294" on="0"/>
        <pt x="731" y="322" on="0"/>
        <pt x="667" y="344" on="0"/>
        <pt x="599" y="359" on="0"/>
        <pt x="560" y="363" on="1"/>
        <pt x="562" y="319" on="0"/>
        <pt x="575" y="248" on="0"/>
        <pt x="597" y="182" on="0"/>
        <pt x="628" y="117" on="0"/>
        <pt x="648" y="80" on="1"/>
        <pt x="629" y="68" on="0"/>
        <pt x="562" y="32" on="0"/>
        <pt x="490" y="-3" on="0"/>
        <pt x="426" y="-33" on="0"/>
        <pt x="409" y="-40" on="1"/>
        <pt x="358" y="-8" on="1"/>
        <pt x="396" y="86" on="0"/>
        <pt x="442" y="266" on="0"/>
        <pt x="447" y="364" on="1"/>
        <pt x="353" y="356" on="0"/>
        <pt x="177" y="313" on="0"/>
        <pt x="88" y="278" on="1"/>
        <pt x="55" y="329" on="1"/>
        <pt x="62" y="346" on="0"/>
        <pt x="94" y="410" on="0"/>
        <pt x="132" y="482" on="0"/>
        <pt x="170" y="549" on="0"/>
        <pt x="182" y="568" on="1"/>
        <pt x="215" y="550" on="0"/>
        <pt x="276" y="521" on="0"/>
        <pt x="339" y="500" on="0"/>
        <pt x="406" y="486" on="0"/>
        <pt x="444" y="482" on="1"/>
        <pt x="437" y="539" on="0"/>
        <pt x="403" y="657" on="0"/>
        <pt x="373" y="720" on="1"/>
        <pt x="405" y="786" on="0"/>
        <pt x="440" y="899" on="0"/>
        <pt x="445" y="959" on="1"/>
        <pt x="352" y="951" on="0"/>
        <pt x="176" y="907" on="0"/>
        <pt x="88" y="872" on="1"/>
        <pt x="55" y="923" on="1"/>
        <pt x="62" y="940" on="0"/>
        <pt x="94" y="1004" on="0"/>
        <pt x="132" y="1076" on="0"/>
        <pt x="170" y="1143" on="0"/>
        <pt x="182" y="1162" on="1"/>
        <pt x="247" y="1124" on="0"/>
        <pt x="369" y="1083" on="0"/>
        <pt x="446" y="1077" on="1"/>
        <pt x="443" y="1119" on="0"/>
        <pt x="429" y="1192" on="0"/>
        <pt x="406" y="1259" on="0"/>
        <pt x="376" y="1325" on="0"/>
        <pt x="358" y="1361" on="1"/>
        <pt x="377" y="1373" on="0"/>
        <pt x="444" y="1408" on="0"/>
        <pt x="516" y="1443" on="0"/>
        <pt x="581" y="1473" on="0"/>
        <pt x="598" y="1480" on="1"/>
        <pt x="648" y="1448" on="1"/>
        <pt x="614" y="1356" on="0"/>
        <pt x="569" y="1173" on="0"/>
        <pt x="562" y="1077" on="1"/>
        <pt x="655" y="1084" on="0"/>
        <pt x="831" y="1125" on="0"/>
        <pt x="920" y="1162" on="1"/>
      </contour>
    </TTGlyph>
    <TTGlyph name="dcroat" xMin="65" yMin="-30" xMax="1151" yMax="1550">
      <contour>
        <pt x="1141" y="114" on="1"/>
        <pt x="1095" y="83" on="0"/>
        <pt x="1001" y="31" on="0"/>
        <pt x="920" y="-8" on="0"/>
        <pt x="858" y="-30" on="0"/>
        <pt x="844" y="-30" on="1"/>
        <pt x="772" y="-30" on="0"/>
        <pt x="752" y="145" on="1"/>
        <pt x="706" y="98" on="0"/>
        <pt x="629" y="32" on="0"/>
        <pt x="555" y="-10" on="0"/>
        <pt x="477" y="-30" on="0"/>
        <pt x="431" y="-30" on="1"/>
        <pt x="364" y="-30" on="0"/>
        <pt x="233" y="35" on="0"/>
        <pt x="129" y="157" on="0"/>
        <pt x="65" y="333" on="0"/>
        <pt x="65" y="444" on="1"/>
        <pt x="65" y="544" on="0"/>
        <pt x="136" y="731" on="0"/>
        <pt x="265" y="874" on="0"/>
        <pt x="444" y="960" on="0"/>
        <pt x="551" y="960" on="1"/>
        <pt x="598" y="960" on="0"/>
        <pt x="691" y="938" on="0"/>
        <pt x="745" y="901" on="1"/>
        <pt x="745" y="1114" on="1"/>
        <pt x="456" y="1114" on="1"/>
        <pt x="433" y="1136" on="1"/>
        <pt x="435" y="1144" on="0"/>
        <pt x="444" y="1171" on="0"/>
        <pt x="454" y="1199" on="0"/>
        <pt x="465" y="1226" on="0"/>
        <pt x="469" y="1234" on="1"/>
        <pt x="745" y="1234" on="1"/>
        <pt x="745" y="1259" on="1"/>
        <pt x="745" y="1308" on="0"/>
        <pt x="740" y="1367" on="0"/>
        <pt x="713" y="1399" on="0"/>
        <pt x="658" y="1412" on="0"/>
        <pt x="608" y="1416" on="1"/>
        <pt x="608" y="1485" on="1"/>
        <pt x="718" y="1496" on="0"/>
        <pt x="895" y="1533" on="0"/>
        <pt x="947" y="1550" on="1"/>
        <pt x="985" y="1513" on="1"/>
        <pt x="985" y="1234" on="1"/>
        <pt x="1129" y="1234" on="1"/>
        <pt x="1151" y="1209" on="1"/>
        <pt x="1116" y="1114" on="1"/>
        <pt x="985" y="1114" on="1"/>
        <pt x="985" y="299" on="1"/>
        <pt x="985" y="264" on="0"/>
        <pt x="988" y="216" on="0"/>
        <pt x="993" y="186" on="0"/>
        <pt x="1002" y="170" on="0"/>
        <pt x="1008" y="166" on="1"/>
        <pt x="1014" y="163" on="0"/>
        <pt x="1028" y="160" on="0"/>
        <pt x="1051" y="163" on="0"/>
        <pt x="1086" y="175" on="0"/>
        <pt x="1113" y="187" on="1"/>
      </contour>
      <contour>
        <pt x="745" y="269" on="1"/>
        <pt x="745" y="706" on="1"/>
        <pt x="709" y="764" on="0"/>
        <pt x="602" y="828" on="0"/>
        <pt x="535" y="828" on="1"/>
        <pt x="485" y="828" on="0"/>
        <pt x="401" y="790" on="0"/>
        <pt x="340" y="709" on="0"/>
        <pt x="305" y="585" on="0"/>
        <pt x="305" y="498" on="1"/>
        <pt x="305" y="418" on="0"/>
        <pt x="345" y="293" on="0"/>
        <pt x="409" y="206" on="0"/>
        <pt x="491" y="160" on="0"/>
        <pt x="532" y="160" on="1"/>
        <pt x="587" y="160" on="0"/>
        <pt x="686" y="215" on="0"/>
      </contour>
    </TTGlyph>
    <TTGlyph name="degree" xMin="115" yMin="732" xMax="619" yMax="1262">
      <contour>
        <pt x="467" y="995" on="1"/>
        <pt x="467" y="1020" on="0"/>
        <pt x="454" y="1065" on="0"/>
        <pt x="431" y="1100" on="0"/>
        <pt x="398" y="1120" on="0"/>
        <pt x="377" y="1120" on="1"/>
        <pt x="356" y="1120" on="0"/>
        <pt x="316" y="1103" on="0"/>
        <pt x="285" y="1071" on="0"/>
        <pt x="267" y="1026" on="0"/>
        <pt x="267" y="998" on="1"/>
        <pt x="267" y="974" on="0"/>
        <pt x="279" y="929" on="0"/>
        <pt x="303" y="894" on="0"/>
        <pt x="336" y="873" on="0"/>
        <pt x="357" y="873" on="1"/>
        <pt x="378" y="873" on="0"/>
        <pt x="417" y="889" on="0"/>
        <pt x="448" y="920" on="0"/>
        <pt x="467" y="966" on="0"/>
      </contour>
      <contour>
        <pt x="619" y="1050" on="1"/>
        <pt x="619" y="982" on="0"/>
        <pt x="566" y="865" on="0"/>
        <pt x="481" y="780" on="0"/>
        <pt x="376" y="732" on="0"/>
        <pt x="325" y="732" on="1"/>
        <pt x="279" y="732" on="0"/>
        <pt x="202" y="766" on="0"/>
        <pt x="146" y="823" on="0"/>
        <pt x="115" y="900" on="0"/>
        <pt x="115" y="943" on="1"/>
        <pt x="115" y="1012" on="0"/>
        <pt x="167" y="1129" on="0"/>
        <pt x="251" y="1214" on="0"/>
        <pt x="356" y="1262" on="0"/>
        <pt x="409" y="1262" on="1"/>
        <pt x="452" y="1262" on="0"/>
        <pt x="529" y="1228" on="0"/>
        <pt x="586" y="1170" on="0"/>
        <pt x="619" y="1093" on="0"/>
      </contour>
    </TTGlyph>
    <TTGlyph name="dieresis" xMin="51" yMin="1091" xMax="749" yMax="1389">
      <contour>
        <pt x="749" y="1268" on="1"/>
        <pt x="749" y="1231" on="0"/>
        <pt x="724" y="1167" on="0"/>
        <pt x="681" y="1119" on="0"/>
        <pt x="624" y="1091" on="0"/>
        <pt x="592" y="1091" on="1"/>
        <pt x="534" y="1091" on="0"/>
        <pt x="474" y="1153" on="0"/>
        <pt x="474" y="1213" on="1"/>
        <pt x="474" y="1250" on="0"/>
        <pt x="500" y="1314" on="0"/>
        <pt x="543" y="1362" on="0"/>
        <pt x="599" y="1389" on="0"/>
        <pt x="630" y="1389" on="1"/>
        <pt x="686" y="1389" on="0"/>
        <pt x="749" y="1329" on="0"/>
      </contour>
      <contour>
        <pt x="326" y="1268" on="1"/>
        <pt x="326" y="1231" on="0"/>
        <pt x="301" y="1167" on="0"/>
        <pt x="259" y="1119" on="0"/>
        <pt x="202" y="1091" on="0"/>
        <pt x="170" y="1091" on="1"/>
        <pt x="112" y="1091" on="0"/>
        <pt x="51" y="1153" on="0"/>
        <pt x="51" y="1213" on="1"/>
        <pt x="51" y="1250" on="0"/>
        <pt x="77" y="1314" on="0"/>
        <pt x="120" y="1362" on="0"/>
        <pt x="177" y="1389" on="0"/>
        <pt x="208" y="1389" on="1"/>
        <pt x="264" y="1389" on="0"/>
        <pt x="326" y="1329" on="0"/>
      </contour>
    </TTGlyph>
    <TTGlyph name="divide" xMin="53" yMin="182" xMax="810" yMax="943">
      <contour>
        <pt x="538" y="324" on="1"/>
        <pt x="538" y="295" on="0"/>
        <pt x="520" y="244" on="0"/>
        <pt x="487" y="205" on="0"/>
        <pt x="443" y="182" on="0"/>
        <pt x="418" y="182" on="1"/>
        <pt x="372" y="182" on="0"/>
        <pt x="331" y="235" on="0"/>
        <pt x="331" y="283" on="1"/>
        <pt x="331" y="312" on="0"/>
        <pt x="350" y="363" on="0"/>
        <pt x="383" y="401" on="0"/>
        <pt x="426" y="423" on="0"/>
        <pt x="451" y="423" on="1"/>
        <pt x="538" y="423" on="0"/>
      </contour>
      <contour>
        <pt x="538" y="845" on="1"/>
        <pt x="538" y="816" on="0"/>
        <pt x="520" y="765" on="0"/>
        <pt x="487" y="726" on="0"/>
        <pt x="443" y="703" on="0"/>
        <pt x="418" y="703" on="1"/>
        <pt x="372" y="703" on="0"/>
        <pt x="331" y="755" on="0"/>
        <pt x="331" y="803" on="1"/>
        <pt x="331" y="832" on="0"/>
        <pt x="350" y="883" on="0"/>
        <pt x="383" y="921" on="0"/>
        <pt x="426" y="943" on="0"/>
        <pt x="451" y="943" on="1"/>
        <pt x="538" y="943" on="0"/>
      </contour>
      <contour>
        <pt x="810" y="603" on="1"/>
        <pt x="807" y="592" on="0"/>
        <pt x="795" y="561" on="0"/>
        <pt x="781" y="528" on="0"/>
        <pt x="768" y="499" on="0"/>
        <pt x="764" y="491" on="1"/>
        <pt x="85" y="491" on="1"/>
        <pt x="53" y="522" on="1"/>
        <pt x="56" y="533" on="0"/>
        <pt x="67" y="563" on="0"/>
        <pt x="81" y="595" on="0"/>
        <pt x="94" y="624" on="0"/>
        <pt x="99" y="634" on="1"/>
        <pt x="777" y="634" on="1"/>
      </contour>
    </TTGlyph>
    <TTGlyph name="dollar" xMin="76" yMin="-174" xMax="952" yMax="1384">
      <contour>
        <pt x="285" y="951" on="1"/>
        <pt x="285" y="919" on="0"/>
        <pt x="311" y="869" on="0"/>
        <pt x="356" y="829" on="0"/>
        <pt x="418" y="796" on="0"/>
        <pt x="455" y="781" on="1"/>
        <pt x="455" y="1092" on="1"/>
        <pt x="414" y="1088" on="0"/>
        <pt x="351" y="1063" on="0"/>
        <pt x="308" y="1025" on="0"/>
        <pt x="285" y="977" on="0"/>
      </contour>
      <contour>
        <pt x="742" y="317" on="1"/>
        <pt x="742" y="356" on="0"/>
        <pt x="717" y="418" on="0"/>
        <pt x="672" y="467" on="0"/>
        <pt x="611" y="506" on="0"/>
        <pt x="575" y="522" on="1"/>
        <pt x="575" y="138" on="1"/>
        <pt x="608" y="143" on="0"/>
        <pt x="668" y="170" on="0"/>
        <pt x="715" y="214" on="0"/>
        <pt x="742" y="276" on="0"/>
      </contour>
      <contour>
        <pt x="575" y="-128" on="1"/>
        <pt x="557" y="-144" on="0"/>
        <pt x="514" y="-168" on="0"/>
        <pt x="489" y="-174" on="1"/>
        <pt x="455" y="-145" on="1"/>
        <pt x="455" y="-9" on="1"/>
        <pt x="370" y="-6" on="0"/>
        <pt x="174" y="56" on="0"/>
        <pt x="87" y="111" on="1"/>
        <pt x="82" y="114" on="0"/>
        <pt x="77" y="151" on="0"/>
        <pt x="76" y="204" on="0"/>
        <pt x="78" y="269" on="0"/>
        <pt x="82" y="333" on="0"/>
        <pt x="90" y="390" on="0"/>
        <pt x="95" y="408" on="1"/>
        <pt x="168" y="404" on="1"/>
        <pt x="192" y="353" on="0"/>
        <pt x="249" y="265" on="0"/>
        <pt x="320" y="197" on="0"/>
        <pt x="404" y="151" on="0"/>
        <pt x="455" y="141" on="1"/>
        <pt x="455" y="569" on="1"/>
        <pt x="388" y="593" on="0"/>
        <pt x="255" y="644" on="0"/>
        <pt x="149" y="718" on="0"/>
        <pt x="83" y="825" on="0"/>
        <pt x="83" y="904" on="1"/>
        <pt x="83" y="947" on="0"/>
        <pt x="119" y="1046" on="0"/>
        <pt x="206" y="1135" on="0"/>
        <pt x="348" y="1200" on="0"/>
        <pt x="455" y="1210" on="1"/>
        <pt x="455" y="1341" on="1"/>
        <pt x="469" y="1349" on="0"/>
        <pt x="488" y="1362" on="0"/>
        <pt x="506" y="1372" on="0"/>
        <pt x="526" y="1380" on="0"/>
        <pt x="541" y="1384" on="1"/>
        <pt x="575" y="1355" on="1"/>
        <pt x="575" y="1212" on="1"/>
        <pt x="627" y="1209" on="0"/>
        <pt x="731" y="1190" on="0"/>
        <pt x="821" y="1162" on="0"/>
        <pt x="891" y="1127" on="0"/>
        <pt x="909" y="1109" on="1"/>
        <pt x="915" y="1102" on="0"/>
        <pt x="900" y="1042" on="0"/>
        <pt x="872" y="970" on="0"/>
        <pt x="838" y="905" on="0"/>
        <pt x="825" y="893" on="1"/>
        <pt x="756" y="901" on="1"/>
        <pt x="722" y="970" on="0"/>
        <pt x="635" y="1061" on="0"/>
        <pt x="575" y="1081" on="1"/>
        <pt x="575" y="737" on="1"/>
        <pt x="642" y="713" on="0"/>
        <pt x="777" y="656" on="0"/>
        <pt x="885" y="572" on="0"/>
        <pt x="952" y="454" on="0"/>
        <pt x="952" y="370" on="1"/>
        <pt x="952" y="310" on="0"/>
        <pt x="910" y="189" on="0"/>
        <pt x="819" y="85" on="0"/>
        <pt x="676" y="10" on="0"/>
        <pt x="575" y="-3" on="1"/>
      </contour>
    </TTGlyph>
    <TTGlyph name="dotaccent" xMin="63" yMin="1091" xMax="338" yMax="1389">
      <contour>
        <pt x="338" y="1268" on="1"/>
        <pt x="338" y="1231" on="0"/>
        <pt x="313" y="1167" on="0"/>
        <pt x="270" y="1119" on="0"/>
        <pt x="213" y="1091" on="0"/>
        <pt x="181" y="1091" on="1"/>
        <pt x="123" y="1091" on="0"/>
        <pt x="63" y="1153" on="0"/>
        <pt x="63" y="1213" on="1"/>
        <pt x="63" y="1250" on="0"/>
        <pt x="89" y="1314" on="0"/>
        <pt x="132" y="1362" on="0"/>
        <pt x="188" y="1389" on="0"/>
        <pt x="219" y="1389" on="1"/>
        <pt x="275" y="1389" on="0"/>
        <pt x="338" y="1329" on="0"/>
      </contour>
    </TTGlyph>
    <TTGlyph name="dotbelowcomb" xMin="-653" yMin="-449" xMax="-378" yMax="-151">
      <contour>
        <pt x="-378" y="-272" on="1"/>
        <pt x="-378" y="-309" on="0"/>
        <pt x="-403" y="-373" on="0"/>
        <pt x="-445" y="-421" on="0"/>
        <pt x="-502" y="-449" on="0"/>
        <pt x="-534" y="-449" on="1"/>
        <pt x="-592" y="-449" on="0"/>
        <pt x="-653" y="-388" on="0"/>
        <pt x="-653" y="-328" on="1"/>
        <pt x="-653" y="-291" on="0"/>
        <pt x="-627" y="-226" on="0"/>
        <pt x="-584" y="-178" on="0"/>
        <pt x="-527" y="-151" on="0"/>
        <pt x="-496" y="-151" on="1"/>
        <pt x="-440" y="-151" on="0"/>
        <pt x="-378" y="-212" on="0"/>
      </contour>
    </TTGlyph>
    <TTGlyph name="dotlessi" xMin="63" yMin="0" xMax="568" yMax="960">
      <component glyphName="i.Dotless" x="0" y="0" flags="0x0"/>
    </TTGlyph>
    <TTGlyph name="e" xMin="65" yMin="-30" xMax="926" yMax="960">
      <contour>
        <pt x="511" y="840" on="1"/>
        <pt x="464" y="840" on="0"/>
        <pt x="396" y="804" on="0"/>
        <pt x="349" y="736" on="0"/>
        <pt x="322" y="640" on="0"/>
        <pt x="316" y="580" on="1"/>
        <pt x="649" y="580" on="1"/>
        <pt x="672" y="580" on="0"/>
        <pt x="687" y="595" on="0"/>
        <pt x="687" y="616" on="1"/>
        <pt x="687" y="646" on="0"/>
        <pt x="671" y="723" on="0"/>
        <pt x="630" y="792" on="0"/>
        <pt x="562" y="840" on="0"/>
      </contour>
      <contour>
        <pt x="926" y="550" on="1"/>
        <pt x="917" y="540" on="0"/>
        <pt x="883" y="516" on="0"/>
        <pt x="843" y="494" on="0"/>
        <pt x="802" y="474" on="0"/>
        <pt x="786" y="468" on="1"/>
        <pt x="313" y="468" on="1"/>
        <pt x="315" y="396" on="0"/>
        <pt x="350" y="275" on="0"/>
        <pt x="414" y="187" on="0"/>
        <pt x="505" y="138" on="0"/>
        <pt x="564" y="138" on="1"/>
        <pt x="595" y="138" on="0"/>
        <pt x="654" y="145" on="0"/>
        <pt x="723" y="171" on="0"/>
        <pt x="809" y="218" on="0"/>
        <pt x="868" y="259" on="1"/>
        <pt x="874" y="256" on="0"/>
        <pt x="891" y="238" on="0"/>
        <pt x="906" y="217" on="0"/>
        <pt x="918" y="199" on="0"/>
        <pt x="920" y="195" on="1"/>
        <pt x="851" y="125" on="0"/>
        <pt x="741" y="37" on="0"/>
        <pt x="640" y="-12" on="0"/>
        <pt x="540" y="-30" on="0"/>
        <pt x="480" y="-30" on="1"/>
        <pt x="395" y="-30" on="0"/>
        <pt x="244" y="38" on="0"/>
        <pt x="131" y="162" on="0"/>
        <pt x="65" y="336" on="0"/>
        <pt x="65" y="442" on="1"/>
        <pt x="65" y="578" on="0"/>
        <pt x="168" y="791" on="0"/>
        <pt x="271" y="866" on="1"/>
        <pt x="297" y="885" on="0"/>
        <pt x="362" y="920" on="0"/>
        <pt x="433" y="945" on="0"/>
        <pt x="509" y="960" on="0"/>
        <pt x="547" y="960" on="1"/>
        <pt x="645" y="960" on="0"/>
        <pt x="788" y="892" on="0"/>
        <pt x="881" y="779" on="0"/>
        <pt x="926" y="631" on="0"/>
      </contour>
    </TTGlyph>
    <TTGlyph name="eacute" xMin="65" yMin="-30" xMax="926" yMax="1512">
      <component glyphName="e" x="0" y="0" flags="0x0"/>
      <component glyphName="acutecomb" x="1077" y="0" flags="0x0"/>
    </TTGlyph>
    <TTGlyph name="ebreve" xMin="65" yMin="-30" xMax="926" yMax="1435">
      <component glyphName="e" x="0" y="0" flags="0x0"/>
      <component glyphName="uni0306" x="1051" y="0" flags="0x0"/>
    </TTGlyph>
    <TTGlyph name="ecaron" xMin="65" yMin="-30" xMax="926" yMax="1513">
      <component glyphName="e" x="0" y="0" flags="0x0"/>
      <component glyphName="uni030C" x="1044" y="0" flags="0x0"/>
    </TTGlyph>
    <TTGlyph name="ecircumflex" xMin="65" yMin="-30" xMax="926" yMax="1494">
      <component glyphName="e" x="0" y="0" flags="0x0"/>
      <component glyphName="uni0302" x="1051" y="0" flags="0x0"/>
    </TTGlyph>
</ttFont>
